<?xml version="1.0" encoding="UTF-8"?>
<svg id="Layer_2" data-name="Layer 2" xmlns="http://www.w3.org/2000/svg" xmlns:xlink="http://www.w3.org/1999/xlink" viewBox="0 0 900.61 543.74">
  <defs>
    <style>
      .cls-1 {
        fill: #f9ad8d;
      }

      .cls-2 {
        fill: #ce549f;
      }

      .cls-3 {
        fill: #4576bb;
      }

      .cls-4 {
        fill: #ae56a1;
      }

      .cls-5 {
        fill: #d76d62;
      }

      .cls-6 {
        fill: #e66fab;
      }

      .cls-7 {
        fill: #904d8e;
      }

      .cls-8 {
        fill: #c5233a;
      }

      .cls-9 {
        fill: #faf1c4;
      }

      .cls-10 {
        fill: #ea4d51;
      }

      .cls-11 {
        fill: url(#linear-gradient-2);
      }

      .cls-12 {
        fill: #f27684;
      }

      .cls-13 {
        fill: #b43774;
      }

      .cls-14 {
        fill: #d34b27;
      }

      .cls-15 {
        fill: #949aa6;
      }

      .cls-16 {
        fill: #d42c30;
      }

      .cls-17 {
        fill: #ef982c;
      }

      .cls-18 {
        fill: #904d9e;
      }

      .cls-19 {
        fill: #e0e7b8;
      }

      .cls-20 {
        fill: #e3d3d4;
      }

      .cls-21 {
        fill: #9b5a3b;
      }

      .cls-22 {
        fill: #fce4a0;
      }

      .cls-23 {
        fill: #de8681;
      }

      .cls-24 {
        fill: url(#linear-gradient-10);
      }

      .cls-25 {
        fill: #b63157;
      }

      .cls-26 {
        fill: #faab4d;
      }

      .cls-27 {
        fill: #a6c5e8;
      }

      .cls-28 {
        fill: #d4b4b0;
      }

      .cls-29 {
        fill: #fdeff5;
      }

      .cls-30 {
        fill: #7e89b1;
      }

      .cls-31 {
        fill: #c5a6a6;
      }

      .cls-32 {
        fill: #fdc78a;
      }

      .cls-33 {
        fill: #fff;
      }

      .cls-34 {
        fill: #fab37e;
      }

      .cls-35 {
        fill: #dc426d;
      }

      .cls-36 {
        fill: #ec7755;
      }

      .cls-37 {
        fill: #edc3d3;
      }

      .cls-38 {
        fill: #539dd5;
      }

      .cls-39 {
        fill: #fbd8e1;
      }

      .cls-40 {
        fill: #673b97;
      }

      .cls-41 {
        fill: #a053a0;
      }

      .cls-42 {
        fill: #953694;
      }

      .cls-43 {
        fill: #69cef6;
      }

      .cls-44 {
        fill: #e2d1e6;
      }

      .cls-45 {
        fill: #d978b0;
      }

      .cls-46 {
        fill: #d07328;
      }

      .cls-47 {
        fill: url(#linear-gradient-4);
      }

      .cls-48 {
        fill: #5489c7;
      }

      .cls-49 {
        fill: #eea591;
      }

      .cls-50 {
        fill: #ee7e31;
      }

      .cls-51 {
        fill: #fdda7d;
      }

      .cls-52 {
        fill: #f1678a;
      }

      .cls-53 {
        fill: #f7e47e;
      }

      .cls-54 {
        fill: #9454a1;
      }

      .cls-55 {
        fill: #dec380;
      }

      .cls-56 {
        fill: url(#linear-gradient-3);
      }

      .cls-57 {
        fill: #c0a4b5;
      }

      .cls-58 {
        fill: #a693b4;
      }

      .cls-59 {
        fill: #108040;
      }

      .cls-60 {
        fill: #f1d9ce;
      }

      .cls-61 {
        fill: url(#linear-gradient-5);
      }

      .cls-62 {
        fill: #141640;
      }

      .cls-63 {
        fill: #b969aa;
      }

      .cls-64 {
        fill: #d1b39d;
      }

      .cls-65 {
        fill: #b59ac9;
      }

      .cls-66 {
        fill: #d66caa;
      }

      .cls-67 {
        fill: #f9f3da;
      }

      .cls-68 {
        fill: #e1f3f7;
      }

      .cls-69 {
        fill: #b97b39;
      }

      .cls-70 {
        fill: #8d2b1d;
      }

      .cls-71 {
        fill: #e39cc4;
      }

      .cls-72 {
        fill: #e788b8;
      }

      .cls-73 {
        fill: #92d7e8;
      }

      .cls-74 {
        fill: #794592;
      }

      .cls-75 {
        fill: url(#linear-gradient-8);
      }

      .cls-76 {
        fill: #743795;
      }

      .cls-77 {
        fill: #612a7a;
      }

      .cls-78 {
        fill: #f7d337;
      }

      .cls-79 {
        fill: #b14025;
      }

      .cls-80 {
        fill: #af3d96;
      }

      .cls-81 {
        fill: #be4d9c;
      }

      .cls-82 {
        fill: #939ebd;
      }

      .cls-83 {
        fill: #5d2872;
      }

      .cls-84 {
        fill: #5f67a8;
      }

      .cls-85 {
        fill: #d75b28;
      }

      .cls-86 {
        fill: #be6e8b;
      }

      .cls-87 {
        fill: #577abc;
      }

      .cls-88 {
        fill: #fce893;
      }

      .cls-89 {
        fill: #fcb962;
      }

      .cls-90 {
        fill: #ebdcc2;
      }

      .cls-91 {
        fill: #f6bfc6;
      }

      .cls-92 {
        fill: #628ac7;
      }

      .cls-93 {
        fill: #f7976f;
      }

      .cls-94 {
        fill: #ce953a;
      }

      .cls-95 {
        fill: #f26559;
      }

      .cls-96 {
        fill: #926eb0;
      }

      .cls-97 {
        fill: #a21d31;
      }

      .cls-98 {
        fill: url(#linear-gradient-7);
      }

      .cls-99 {
        fill: #ac73b1;
      }

      .cls-100 {
        fill: #282b66;
      }

      .cls-101 {
        fill: url(#linear-gradient-9);
      }

      .cls-102 {
        fill: #e3bcd9;
      }

      .cls-103 {
        fill: #e29d95;
      }

      .cls-104 {
        fill: #2c4390;
      }

      .cls-105 {
        fill: #fef1d7;
      }

      .cls-106 {
        fill: url(#linear-gradient-6);
      }

      .cls-107 {
        fill: #f68e6b;
      }

      .cls-108 {
        fill: #dfe1ee;
      }

      .cls-109 {
        fill: #8c616f;
      }

      .cls-110 {
        fill: #bf6678;
      }

      .cls-111 {
        fill: #fab976;
      }

      .cls-112 {
        fill: #afaacb;
      }

      .cls-113 {
        fill: #d9c6d6;
      }

      .cls-114 {
        fill: #d0cfe5;
      }

      .cls-115 {
        fill: #f8cab3;
      }

      .cls-116 {
        fill: #3c54a5;
      }

      .cls-117 {
        fill: #e86c24;
      }

      .cls-118 {
        fill: #944098;
      }

      .cls-119 {
        fill: #cf80b5;
      }

      .cls-120 {
        fill: #4b1e59;
      }

      .cls-121 {
        fill: #fec867;
      }

      .cls-122 {
        fill: #66b0e1;
      }

      .cls-123 {
        fill: #742a85;
      }

      .cls-124 {
        fill: #f0e5e0;
      }

      .cls-125 {
        fill: #fde3e0;
      }

      .cls-126 {
        fill: #f9cc8f;
      }

      .cls-127 {
        fill: #c2e7f0;
      }

      .cls-128 {
        fill: #f5e4a3;
      }

      .cls-129 {
        fill: #9fd8f6;
      }

      .cls-130 {
        fill: #2d4096;
      }

      .cls-131 {
        fill: #8152a1;
      }

      .cls-132 {
        fill: #433789;
      }

      .cls-133 {
        fill: #d7ba96;
      }

      .cls-134 {
        fill: #784166;
      }

      .cls-135 {
        fill: #d3868d;
      }

      .cls-136 {
        fill: url(#linear-gradient);
      }

      .cls-137 {
        fill: #f6a15f;
      }

      .cls-138 {
        fill: #995fa7;
      }

      .cls-139 {
        fill: #ee7c5a;
      }

      .cls-140 {
        fill: #d1ebf9;
      }

      .cls-141 {
        fill: #8c8394;
      }

      .cls-142 {
        fill: #6abbe9;
      }

      .cls-143 {
        fill: #4861ad;
      }

      .cls-144 {
        fill: #aa6eae;
      }

      .cls-145 {
        fill: #e5c052;
      }

      .cls-146 {
        fill: #724fa0;
      }
    </style>
    <linearGradient id="linear-gradient" x1="166.34" y1="165.24" x2="46.86" y2="261.03" gradientUnits="userSpaceOnUse">
      <stop offset="0" stop-color="#3562ae"/>
      <stop offset="1" stop-color="#151a42"/>
    </linearGradient>
    <linearGradient id="linear-gradient-2" x1="234.45" y1="159.29" x2="115.99" y2="229.97" gradientUnits="userSpaceOnUse">
      <stop offset="0" stop-color="#416eb5"/>
      <stop offset="1" stop-color="#272e68"/>
    </linearGradient>
    <linearGradient id="linear-gradient-3" x1="173.28" y1="234.84" x2="138.55" y2="258.86" gradientUnits="userSpaceOnUse">
      <stop offset="0" stop-color="#2a4492"/>
      <stop offset="1" stop-color="#293170"/>
    </linearGradient>
    <linearGradient id="linear-gradient-4" x1="805.27" y1="310.46" x2="767.4" y2="366.87" gradientUnits="userSpaceOnUse">
      <stop offset="0" stop-color="#e74a55"/>
      <stop offset="1" stop-color="#bd2038"/>
    </linearGradient>
    <linearGradient id="linear-gradient-5" x1="354.44" y1="300.03" x2="324.89" y2="364.54" gradientUnits="userSpaceOnUse">
      <stop offset="0" stop-color="#c757a1"/>
      <stop offset="1" stop-color="#813b96"/>
    </linearGradient>
    <linearGradient id="linear-gradient-6" x1="284" y1="306.54" x2="264.33" y2="355.66" gradientUnits="userSpaceOnUse">
      <stop offset="0" stop-color="#4d4da0"/>
      <stop offset="1" stop-color="#322f88"/>
    </linearGradient>
    <linearGradient id="linear-gradient-7" x1="355.85" y1="313.46" x2="317.79" y2="376.88" gradientUnits="userSpaceOnUse">
      <stop offset="0" stop-color="#7e2f92"/>
      <stop offset="1" stop-color="#542871"/>
    </linearGradient>
    <linearGradient id="linear-gradient-8" x1="427.47" y1="306.04" x2="404.13" y2="331.14" gradientUnits="userSpaceOnUse">
      <stop offset="0" stop-color="#f89a3d"/>
      <stop offset="1" stop-color="#f38233"/>
    </linearGradient>
    <linearGradient id="linear-gradient-9" x1="781.36" y1="334.61" x2="753.81" y2="378.37" gradientUnits="userSpaceOnUse">
      <stop offset="0" stop-color="#942889"/>
      <stop offset="1" stop-color="#64266f"/>
    </linearGradient>
    <linearGradient id="linear-gradient-10" x1="733.78" y1="316.54" x2="713.1" y2="370.43" gradientUnits="userSpaceOnUse">
      <stop offset="0" stop-color="#d64173"/>
      <stop offset="1" stop-color="#9e2461"/>
    </linearGradient>
  </defs>
  <g id="Layer_1-2" data-name="Layer 1">
    <g>
      <path class="cls-33" d="M775.91,0l-342.93,229.27,191.66,11.19-212.44,273.01,304.81-307.77-166.25-5.58L775.91,0ZM363.7,30.27L20.78,259.54l191.66,11.19L0,543.74,304.81,235.97l-166.25-5.58L363.7,30.27ZM758.59,287.01c-2.23-1.68-39.51,8.59-43.92,11.71-4.67,3.31-15.4,18.41-19.37,23.8-13.6,18.5-25.31,38.44-36.01,58.64,1.92,1.37,21.65-2.13,24.19-3.96,2.6-1.88,7.76-15.47,10.72-18.17,1.69-1.54,11.09-3.33,13.57-1.97l-12.69,25.23c1.76,1.55,23.57-5.21,25.93-7.88,12.09-29.29,22.67-59.3,37.57-87.4ZM600.41,383.41l21.45-5.51,12.06-26.41c23.18-4.82,42.25-12.37,51.77-34.94,4.65-11.03,6.73-21.37-7.67-25.87-8.72-2.73-29.58-.86-36.07,5.82-4.62,4.76-14.07,24.31-17.49,31.22-8.99,18.11-16.11,37.14-24.04,55.68ZM324.45,290.38c-20.78,3.59-45.73,3.92-65.87,9.46-7.75,2.13-12.6,16.02-14.95,23.04,5.91-.9,12.15-3.6,18.02-4.36,1.67-.22,5.84-1.14,5.04,1.52l-31.15,63.37c3.1,2.19,22.31-4.33,25.09-7.02,1.98-1.91,11.88-26.18,14.5-31.33,2.49-4.92,14.88-29.45,17.83-30.9,1.19-.58,3.24-.74,4.68-1.06,5.03-1.09,11.07-1.22,16.24-1.62l10.57-21.11ZM493.02,291.49c-5.84.61-22.31,4.91-24.06,10.91l4.42,46.79-19.61,33.11c8.08.24,16.97-.1,24.33-3.83,20.1-29.33,40.4-58.6,63.42-85.84-10.07-.32-19.98-.19-29.7,2.55l-16.5,24.34-2.29-8.4v-19.62ZM324.85,308.69c-16.2,15.75-45.23,79.76-1.27,74.43,26.71-3.24,59.61-51.15,55.99-76.21-.75-5.15-1.89-7.87-6.56-10.43-14.48-7.96-37.31,1.68-48.15,12.22ZM779.38,346.43c16.39-1.22,51.88-22.01,46.8-40.4-5.27-19.08-45.71-11.09-59.21-5.29-12.56,26.38-25.99,52.62-34.93,80.43l20.52-3.6,7.2-18.8c2.62-.47,1.83.14,2.56,1.43,4.04,7.15,6.05,16.28,11.46,23.09l19.45-7.72c-6.04-9.03-10.37-18.95-13.86-29.12ZM412.2,347.55c16.39-1.22,51.88-22.01,46.8-40.4-5.27-19.08-45.71-11.09-59.21-5.29-12.56,26.38-25.99,52.62-34.93,80.43l20.52-3.6,7.2-18.8c2.62-.47,1.83.14,2.56,1.43,4.04,7.15,6.05,16.28,11.46,23.09l19.45-7.72c-6.04-9.03-10.37-18.95-13.86-29.12Z"/>
      <path class="cls-59" d="M898.03,319.38l-43.67,22.65c-1.74,2.25,11.98,25.19,12.52,28.8.75,4.94-15.04,10.11-19.37,11.44l-12.78-24.6-7.21,19.92c-7.81,2.59-15.34,6.78-23.98,5.85,9.47-20.62,17.49-42.02,27.51-62.41,2.06-4.19,9.35-19.96,11.81-22.17,2.72-2.44,26.71-10.21,28.8-8.46l-14.03,22.8-1.54,5.23,40.96-21.91,2.33,2.84"/>
      <polygon class="cls-59" points="775.91 0 550.77 200.13 717.02 205.7 412.21 513.47 624.65 240.46 432.99 229.27 775.91 0"/>
      <g id="Generative_Object" data-name="Generative Object">
        <path class="cls-78" d="M550.15,199.87c.13.92,1.54.55,2.25.56,45.95.65,95.25-.26,140.75,3.38-6.59,4.56-38.01,43.12-41.94,43.92-.96.19-1.49-.48-2.53-.56-9.02-.72-8.62-5.62-14.92-7.88-2.1-.75-4.35-.32-6.47-.84.39-.03,6.3-8.31,5.91-8.73-11.89-.76-23.85-.84-35.75-1.13-8.44-.21-16.9-.39-25.34-.56,1.14-2.3-3.04-6.77-4.79-7.88-2.13-1.36-6.6-1.83-7.32-2.25-1.84-1.08-3.37-6.19-7.32-8.45-5.13-2.92-7.57-1.17-11.26-2.25-2.23-.66-5-5.16-9.85-5.07-.05-.45-.38-.65-.56-1.13.45-.14,2.65-1.67,2.82-1.69,4.27-.47,11.28.8,16.33.56Z"/>
        <path class="cls-55" d="M553.53,228.58c-.98,1.73,2.67,7.44-1.13,7.32-35.85-2.02-70.81-3.62-106.41-6.76.29-1.91-1.64-.92-2.25,0-1.15-.09-2.14-.55-2.25-.56-.89-1.54-1.02-1.47.84-1.69,29.5-3.39,79.56,1.05,111.2,1.69Z"/>
        <path class="cls-96" d="M625.03,239.28c-.85-.27-1.08.48-1.69.56-5.36.74-13.49-.3-19.14-.56-.51-3.51.06-6.05.56-9.57,8.72.26,17.44.7,26.18.56,1.55.88-5.19,7.98-5.91,9.01Z"/>
        <path class="cls-57" d="M597.44,229.71c2.43.06,4.89-.07,7.32,0-.51,3.52-1.07,6.06-.56,9.57-7.48-.35-15.03-.72-22.52-1.13,2.19-2.88-1.54-5.95.56-9.01,5.06.11,10.12.44,15.2.56Z"/>
        <path class="cls-64" d="M576.05,229.15c.74,3.51-.99,7.86-4.5,8.45-6.36-.35-12.81-1.33-19.14-1.69,3.8.12.15-5.59,1.13-7.32,7.48.15,15.03.4,22.52.56Z"/>
        <path class="cls-31" d="M582.24,229.15c-2.11,3.05,1.62,6.13-.56,9.01-3.36-.18-6.76-.38-10.13-.56,3.51-.59,5.24-4.94,4.5-8.45,2.06.05,4.14-.05,6.19,0Z"/>
        <g>
          <path class="cls-57" d="M715.67,206.63c-3.02,4.27-7.02,8.12-10.7,11.82-.5.36-.53.54-.56.56-.52.37-.53.54-.56.56-.44.33-.43.43-.56.56-.19.19-.37.37-.56.56-.03.03-.67-.07-.56.56-9.84,9.84-19.97,19.46-29.84,29.28-4.48-2.86-8.66-7.2-14.64-5.63l36.03-41.1c7.56.62,14.2,1.13,21.96,2.82Z"/>
          <path class="cls-9" d="M648.68,247.16c-.41,1.09,1.13,1.31.84,2.25-.83,2.74-11.53,11.25-13.79,13.79-.22.25,1.5.11.84.84-4.23,4.72-8.95,8.92-13.23,13.51-6.67-3.67-11.56-10.9-14.08-18.02,1.34-1.56,3.13-3.05,4.5-4.5.13-.13,1.13.29,1.69-.28.07-.07-.77-1.2,0-1.97.3-.29.6.83,1.13.28.18-.19,3.6-4.71,2.25-4.79,1.81-2.32,3.36-4.94,5.07-7.32.44-.61.78-1.2,1.13-1.69.72-1.03,7.46-8.12,5.91-9.01-8.74.14-17.46-.3-26.18-.56-2.43-.07-4.89.06-7.32,0v-1.13c11.9.29,23.87.36,35.75,1.13.39.42-5.52,8.7-5.91,8.73,2.12.52,4.37.09,6.47.84,6.3,2.26,5.9,7.16,14.92,7.88Z"/>
          <path class="cls-67" d="M567.6,337.25c-5.86,6.39-42.85,48.75-46.17,49.55-2.75.66-4.84-2.23-7.32-3.94,4.59-5.88,8.92-12.08,13.51-18.02,2.39.31,4.17-3.01,3.94-5.07,3.21-4.1,5.95-8.59,9.57-12.39.41-.43,1.47-.49,1.13-1.69.03-.02.13-.22.56-.56.58-.46,2.16,1.09,1.13-1.69,3.98-4.49,8.6-10.42,12.39-15.2,4.34,2.04,9.06,4.43,11.26,9.01Z"/>
          <path class="cls-90" d="M570.42,351.89c-20.09,20.43-40.16,40.93-60.24,61.37-2.27-3.7-3.89-2.17-7.32-2.82,1.59-1.71,11.2-13.56,12.1-13.51.56.03,1.02,2.87,3.1,1.41-1.65-2.67-2.62-1.2-1.13-3.94,4.91-9.04,37.51-40.4,46.73-49.83,2.73,1.93,5.59,4.15,6.76,7.32Z"/>
          <path class="cls-78" d="M623.34,277.57c-2.26,2.43-16.44,19.43-17.74,19.71-.89.19-3.03-2.72-4.22-3.38-2.86-1.57-5.7-2.18-7.88-3.38-.36-1.54-1.55-4.26-1.69-5.63-.11-1.03-.75-1.6-.56-2.53.28-1.42,15.8-20.23,18.02-22.8,2.52,7.12,7.4,14.35,14.08,18.02Z"/>
          <path class="cls-9" d="M591.25,284.89c.8,2.4.16,4.48,2.25,5.63s5.02,1.81,7.88,3.38c5.69,5.81-5.34,11.2-9.01,15.48-2.09,2.44-4.01,5.66-6.76,8.73-4.13-5.41-6.44.43-8.73-.56-.24-.1-2.25-3.61-3.38-3.94-1.31-.39-4.41,1.35-5.91,0,2.74-3.51,8.98-13.35,12.39-15.2,1.73.24.55-.52.56-.56.56-2.89,8.32-12.99,10.7-12.95Z"/>
          <path class="cls-133" d="M510.17,413.25c-13.62,13.86-39.77,45.53-54.05,55.18-2.48,1.68-4.7,4.11-7.88,2.25,17.92-20.32,36.17-40.4,54.61-60.24,3.43.65,5.05-.88,7.32,2.82Z"/>
          <path class="cls-33" d="M657.68,244.91c-3.94,1.03-3.35,2.99-5.07,4.5-7.7,6.81-13.81,14.6-20.83,21.96-8.03,8.41-15.77,16.84-23.65,25.34-5.45,5.87-11.06,11.37-16.33,17.45-1.07,1.23-3.74,2.81-4.5,4.22-.47.86,1.25.95,1.13,1.13-.49.67-2.14.02-2.53.28-.5.32-8.13,8.13-8.16,8.73-.21,3.29,5.45-.37,6.19,2.53-6.4-.81-7.71,0-12.39,4.22-.16.14-1.01,1.61-1.97,2.53-2.19,2.12-3.88,4.68-5.91,6.76-9.22,9.43-41.82,40.79-46.73,49.83-1.49,2.74-.52,1.28,1.13,3.94-2.08,1.46-2.54-1.38-3.1-1.41-.91-.05-10.52,11.81-12.1,13.51-18.44,19.84-36.7,39.93-54.61,60.24-2.19,2.48-4.59,4.84-6.76,7.32,16.78-20.59,35-40.49,52.92-60.24,7.98-8.79,16.19-17.42,24.21-26.18.19-.2,4.46-4.57,2.82-4.79,3.31-.79,40.3-43.15,46.17-49.55,2.84-3.1,6.14-5.86,9.01-9.01,3.05-3.34,6-6.77,9.01-10.13,2.74-3.07,4.66-6.28,6.76-8.73,3.67-4.29,14.7-9.67,9.01-15.48,1.2.66,3.34,3.57,4.22,3.38,1.3-.27,15.47-17.28,17.74-19.71,4.28-4.59,9-8.79,13.23-13.51.66-.73-1.07-.59-.84-.84,2.27-2.54,12.96-11.06,13.79-13.79.29-.94-1.25-1.16-.84-2.25,1.05.08,1.57.76,2.53.56,3.94-.8,35.35-39.36,41.94-43.92.19.01.38-.02.56,0l-36.03,41.1Z"/>
          <path class="cls-133" d="M644.73,277.57c-8.93,8.97-16.86,19.29-27.02,27.02.31-1.13-.53-1.07-.56-1.13-2.25-4.25-3.96-6.06-9.01-6.76,7.88-8.49,15.62-16.93,23.65-25.34,2.96,3.72,8.42,6.48,12.95,6.19Z"/>
          <path class="cls-20" d="M652.62,249.42c4.59,3.44,7.28,7.09,7.32,12.95-5.07,5.05-10.15,10.13-15.2,15.2-4.53.29-9.99-2.47-12.95-6.19,7.02-7.36,13.14-15.15,20.83-21.96Z"/>
          <path class="cls-53" d="M494.41,417.76c-17.92,19.75-36.15,39.66-52.92,60.24-4.09,4.68-8.36,9.35-12.39,14.08l-.56-.56c.14-.17.42-.94.56-1.13.64.1.53-.52.56-.56.05-.06.19.07.56-.56.19-.33.37-.8.56-1.13.64.1.53-.52.56-.56.08-.08.21-.05.56-.56,16.87-24.4,37.85-48.57,56.3-72.07,2.25,1.05,4.81.72,6.19,2.82Z"/>
          <path class="cls-9" d="M514.11,382.85c2.48,1.71,4.57,4.6,7.32,3.94,1.65.21-2.63,4.58-2.82,4.79-8.02,8.76-16.23,17.39-24.21,26.18-1.38-2.1-3.94-1.76-6.19-2.82,8.48-10.8,17.47-21.3,25.9-32.09Z"/>
          <path class="cls-20" d="M617.15,303.47c-1.45.45,0,1.07,0,1.13-.19,2.32-15.57,15.25-18.02,18.02.64-3.58-5.75-5.36-7.32-8.45,5.27-6.08,10.88-11.58,16.33-17.45,5.05.69,6.75,2.51,9.01,6.76Z"/>
          <path class="cls-124" d="M583.93,331.05c1.72.22,3.58,1.62,5.63,1.69-6.22,6.61-12.8,12.69-19.14,19.14-1.16-3.17-4.02-5.39-6.76-7.32,2.03-2.08,3.73-4.64,5.91-6.76.96-.93,1.81-2.39,1.97-2.53,4.67-4.22,5.99-5.03,12.39-4.22Z"/>
          <path class="cls-20" d="M599.13,322.61c-.42,2.37-7.62,8.06-9.57,10.13-2.05-.07-3.92-1.47-5.63-1.69-.75-2.91-6.41.76-6.19-2.53.04-.6,7.66-8.4,8.16-8.73.4-.26,2.05.39,2.53-.28.13-.17-1.59-.26-1.13-1.13.76-1.41,3.44-2.99,4.5-4.22,1.57,3.09,7.96,4.87,7.32,8.45Z"/>
          <path class="cls-53" d="M576.61,328.24c-2.87,3.15-6.17,5.91-9.01,9.01-2.2-4.58-6.92-6.97-11.26-9.01,2.47-3.12,4.85-6.42,7.32-9.57,5.32,3.48,12.49,2.58,12.95,9.57Z"/>
          <path class="cls-113" d="M672.32,250.54c-4.05,4.03-8.39,7.84-12.39,11.82-.04-5.86-2.73-9.51-7.32-12.95,1.71-1.51,1.13-3.47,5.07-4.5,5.98-1.57,10.16,2.77,14.64,5.63Z"/>
          <path class="cls-9" d="M585.62,318.1c-3.01,3.37-5.96,6.79-9.01,10.13-.45-6.99-7.63-6.09-12.95-9.57,1.31-1.68,2.63-3.39,3.94-5.07,1.51,1.35,4.6-.39,5.91,0,1.13.33,3.14,3.84,3.38,3.94,2.28.99,4.6-4.84,8.73.56Z"/>
          <path class="cls-57" d="M456.12,468.43l-41.66,41.66v-.56c.64.09.48-.41.56-.56.02-.03.17.06.56-.56.74-.8,1.5-1.34,2.25-2.25.3-.36.54-.53.56-.56,3.63-4.41,6.99-9.17,10.7-13.51,4.02-4.72,8.29-9.39,12.39-14.08,2.17-2.48,4.57-4.84,6.76-7.32,3.18,1.85,5.4-.58,7.88-2.25Z"/>
          <path class="cls-33" d="M704.98,218.45c3.68-3.7,7.67-7.55,10.7-11.82,6.12,1.33-7.8,9.7-10.7,11.82Z"/>
          <path class="cls-33" d="M429.1,492.08c-3.7,4.34-7.07,9.1-10.7,13.51l-.56-.56c3.43-4.66,7.12-8.99,10.7-13.51l.56.56Z"/>
          <path class="cls-33" d="M527.63,364.83c1.32-1.7,2.62-3.38,3.94-5.07.22,2.06-1.55,5.37-3.94,5.07Z"/>
          <path class="cls-33" d="M615.46,252.79c1.16-1.41,2.24-3.04,3.38-4.5,1.35.08-2.07,4.59-2.25,4.79-.53.55-.83-.58-1.13-.28Z"/>
          <path class="cls-33" d="M593.5,290.52c-2.09-1.15-1.45-3.23-2.25-5.63h.56c.14,1.37,1.33,4.09,1.69,5.63Z"/>
          <path class="cls-33" d="M613.77,255.05c-.34-1.34,1.24-1.7,1.69-2.25-.77.77.07,1.9,0,1.97-.56.57-1.56.15-1.69.28Z"/>
          <path class="cls-33" d="M417.84,506.15c-.75.91-1.51,1.46-2.25,2.25.76-1.2,1.13-1.46,1.69-2.25h.56Z"/>
          <path class="cls-33" d="M625.03,239.28c-.34.49-.69,1.08-1.13,1.69l-.56-1.13c.61-.08.84-.84,1.69-.56Z"/>
          <path class="cls-33" d="M542.83,345.13c-.37-1.2.77-1.28,1.13-1.69,1.03,2.78-.55,1.23-1.13,1.69Z"/>
          <path class="cls-33" d="M617.71,304.59h-.56c0-.06-1.45-.68,0-1.13.03.06.88,0,.56,1.13Z"/>
          <path class="cls-33" d="M541.14,347.38c-.23-1.08.4-1.23,1.13-1.69.35,1.2-.71,1.25-1.13,1.69Z"/>
          <path class="cls-19" d="M418.4,505.59s-.27.2-.56.56h-.56c.05-.07.03-.4.56-1.13l.56.56Z"/>
        </g>
        <g>
          <path class="cls-78" d="M759.59,12.39s-.42.42-.56.56c-.18.17-.44.45-.56.56-7.86,6.84-17.35,13.3-25.9,20.27-22.02,17.94-43.79,36.18-65.87,54.05-10.57,8.56-41.76,37.13-50.95,41.66-1.63.8-1,.66-2.53.56-6.77-.42-4.3-4.2-6.19-8.16-.85-1.78-2.45-3.99-3.94-5.35-.03-.03.08-.66-.56-.56,48.52-33.48,97.45-66.57,146.95-98.53.2,1.04.2.49.56,0,2.04-2.72,6.77-5.11,10.13-7.32-.09.47-.42,2.02-.56,2.25Z"/>
          <path class="cls-9" d="M530.44,199.31c.47.7.38,1.21.56,1.69s.52.68.56,1.13c-2.65.05-4.16,2.06-6.47,2.25-2.49.2-13.08-.4-14.64.56-.3.18-2.65,4.72-3.66,5.91-.58.69-4.31,2.29-4.5,2.82-1.24,3.31,5.67,10.14.28,12.1-1.16.42-4.67-1.08-4.79,1.13-1.88-.04-4.88.7-5.35-1.13l-54.89-.56c.77-.37,1.95-.32,2.25-1.69.13-.09.43.09.56,0,.63-.4.53-.54.56-.56.64-.39.53-.54.56-.56,1.53-.96,2.97-1.82,4.5-2.82.14-.09.46-.12,1.13-.56.57-.39.53-.54.56-.56.52-.35,1.17-.78,1.69-1.13,2.55-1.71,5.29-3.34,7.88-5.07.54-.28,1.56-1.07,1.69-1.13.58-.39.53-.54.56-.56.1-.07.46-.11,1.13-.56.94-.23,2.87.58,3.38-.56.97.38,5.51,3.01,5.91,2.82,1.35-5.8,5.08-10.11,9.29-14.08,3.93-1.46,7.3-1.28,11.54-1.13.21,0,3.09,1.84,3.94,1.69.56-.1,3.97-4.39,5.07-5.07,10.85-6.7,23.21-5.57,30.68,5.63Z"/>
          <path class="cls-78" d="M587.87,152.01l-57.43,47.29c-7.48-11.2-19.83-12.33-30.68-5.63-1.1.68-4.51,4.97-5.07,5.07-.85.15-3.73-1.68-3.94-1.69-4.24-.15-7.61-.34-11.54,1.13,4.27-4.03,52.98-37.06,56.3-37.72-.14.7.25,1.15.56,1.69,7.52,13.06,27.37,4.31,29.56-9.01,7.61,7.45,14.75,3.55,22.24-1.13Z"/>
          <path class="cls-9" d="M601.94,116.54h1.13c1.5,1.36,3.09,3.56,3.94,5.35,1.89,3.96-.58,7.74,6.19,8.16-.46,1.96-2.75,3.78-4.22,5.07-5.86,5.1-14.73,12.91-21.11,16.89-7.49,4.68-14.63,8.57-22.24,1.13-2.19,13.32-22.04,22.07-29.56,9.01.94-.06.45-1.07.56-1.69.21-1.19.43-.89.56-1.13.65.1.53-.55.56-.56,1.28-.6.99-.63,1.69-1.13.07-.05.44-.09,1.13-.56,1.67-1.15,3.38-2.26,5.07-3.38.11-.08.66.08.56-.56,3.05-1.82,7.03-5.07,10.13-6.19.29-.1.64.03.56-.56l45.04-29.84Z"/>
          <path class="cls-55" d="M732.56,33.78c-.14.85.2,2.09,0,2.82-.01.04-.25-.21-.56.56-.01.04-.18-.13-.56.56-1.42,2.52-2.83,3.65-4.79,5.63l-76.85,67.56c.57-.66,3.53-3.65,3.38-4.22-.07-.26-3.85-2.38-3.94-3.66,5.91-4.91,11.87-9.91,17.45-15.2,22.08-17.87,43.86-36.1,65.87-54.05Z"/>
          <path class="cls-145" d="M649.8,110.91c-7.57,8.88-19.36,17.32-28.15,25.34l-6.19-5.07c11.27-9.36,22.51-18.79,33.78-28.15.1,1.28,3.87,3.4,3.94,3.66.15.57-2.81,3.56-3.38,4.22Z"/>
          <path class="cls-145" d="M592.94,162.15c-7.11,6.4-14.29,12.74-21.39,19.14-2.42.17-2.75-5.46-4.22-5.63-.3-.03-5.27,3.56-5.35,0,8.5-7.03,16.83-14.35,25.34-21.39,2.98,2.37,2.23,5.87,5.63,7.88Z"/>
          <path class="cls-145" d="M614.33,143.01c-7.08,6.44-14.29,12.74-21.39,19.14-3.4-2.01-2.65-5.52-5.63-7.88,5.43-4.5,10.9-9.01,16.33-13.51.94,5.2,9.31-2.27,10.7,2.25Z"/>
          <path class="cls-94" d="M571.54,181.29c-3.17,2.86-6.13,6.12-9.29,9.01-1.44,1.31-2.98,1.01-3.1,1.13-1.35.59-3.42-3.26-3.66-3.38-1.08-.52-5.08.24-6.47-1.69,4.31-3.55,8.65-7.14,12.95-10.7.08,3.56,5.04-.03,5.35,0,1.47.17,1.8,5.8,4.22,5.63Z"/>
          <path class="cls-33" d="M497.79,226.9c24.76.46,49.56.62,74.32,1.13,8.43.17,16.9.36,25.34.56v1.13c-5.08-.12-10.14-.45-15.2-.56-2.06-.05-4.14.05-6.19,0-7.49-.17-15.05-.41-22.52-.56-31.63-.64-81.69-5.08-111.2-1.69-1.87.21-1.74.15-.84,1.69-2.58-.19-6.27-.31-8.73.56.25-2.23,3.2-3.18,4.79-3.94l54.89.56c.47,1.82,3.46,1.09,5.35,1.13Z"/>
          <path class="cls-128" d="M621.65,136.25c-2.44,2.23-4.86,4.52-7.32,6.76-1.38-4.52-9.75,2.95-10.7-2.25,3.9-3.23,7.94-6.34,11.82-9.57l6.19,5.07Z"/>
          <path class="cls-69" d="M549.02,186.36c1.4,1.93,5.39,1.17,6.47,1.69.24.12,2.31,3.97,3.66,3.38-.52.48-4.02,4.57-5.63,6.19-1.12-2.42-4.35-3.5-7.04-3.94s-2.57,1.55-5.91-.56c2.36-2.77,5.7-4.5,8.45-6.76Z"/>
          <path class="cls-21" d="M553.53,197.62c-.27.27-.96,1.28-1.13,1.69-.85.62-1.29.52-2.25.56-5.05.24-12.05-1.03-16.33-.56l6.76-6.19c3.34,2.11,3.21.12,5.91.56s5.92,1.52,7.04,3.94Z"/>
          <path class="cls-78" d="M479.21,198.18c-4.21,3.97-7.93,8.28-9.29,14.08-.4.19-4.94-2.44-5.91-2.82-.42-.16-1.09-.05-1.69-.56,4.67-3.15,8.96-6.52,14.08-9.01.2-.1.65.06.56-.56.94-.56,1.16-.72,2.25-1.13Z"/>
          <path class="cls-33" d="M758.46,13.51c-8.42,7.64-17.81,15.31-25.9,23.08.2-.73-.14-1.96,0-2.82,8.55-6.97,18.04-13.43,25.9-20.27Z"/>
          <path class="cls-33" d="M766.35,6.19c-2.25,2.15-4.46,4.11-6.76,6.19.14-.23.47-1.78.56-2.25,2.08-1.37,4.06-2.65,6.19-3.94Z"/>
          <path class="cls-33" d="M457.25,212.26c-2.59,1.73-5.33,3.36-7.88,5.07,3.17-2.08,4.09-3.12,7.88-5.07Z"/>
          <path class="cls-33" d="M445.99,219.58c-1.53.99-2.98,1.86-4.5,2.82,1.99-1.71,2.8-1.72,4.5-2.82Z"/>
          <path class="cls-33" d="M462.32,208.88c.6.51,1.27.4,1.69.56-.51,1.15-2.44.33-3.38.56.56-.37,1.14-.76,1.69-1.13Z"/>
          <path class="cls-33" d="M445.99,229.15c-.74-.06-1.51.06-2.25,0,.61-.92,2.54-1.91,2.25,0Z"/>
          <path class="cls-33" d="M439.8,223.52c-.31,1.37-1.48,1.32-2.25,1.69.15-1.36,1.86-1.42,2.25-1.69Z"/>
          <path class="cls-33" d="M552.4,200.43c-.71-.01-2.12.36-2.25-.56.96-.05,1.4.05,2.25-.56-.09.23.05.77,0,1.13Z"/>
          <path class="cls-33" d="M536.63,160.46c-.11.62.38,1.63-.56,1.69-.31-.54-.7-.99-.56-1.69.35-.07.76.03,1.13,0Z"/>
          <path class="cls-33" d="M458.94,211.13c-.13.06-1.15.85-1.69,1.13.55-.36,1.15-.76,1.69-1.13Z"/>
          <path class="cls-33" d="M768.03,5.07c-.93.76-.87.63-1.69,1.13,1.07-1.02.88-.65,1.69-1.13Z"/>
          <path class="cls-33" d="M539.45,157.64c-.7.49-.41.52-1.69,1.13,1.04-1.34.9-.72,1.69-1.13Z"/>
          <path class="cls-33" d="M449.37,217.32c-.52.34-1.17.77-1.69,1.13.55-.36,1.14-.76,1.69-1.13Z"/>
          <path class="cls-33" d="M460.63,210.01c-.67.45-1.02.49-1.13.56.06-.02,0-.28,1.13-.56Z"/>
          <path class="cls-33" d="M476.39,199.87c-.09-.64.42-.48.56-.56.09.63-.36.46-.56.56Z"/>
          <path class="cls-33" d="M537.2,159.33c.38-.65.54-.53.56-.56-.04.02.09.66-.56.56Z"/>
          <path class="cls-33" d="M540.58,157.08c-.68.47-1.06.51-1.13.56.06-.03,0-.87,1.13-.56Z"/>
          <path class="cls-33" d="M545.64,153.7c-.09-.64.42-.48.56-.56.09.65-.45.49-.56.56Z"/>
          <path class="cls-33" d="M556.34,146.95l.56-.56c.08.59-.28.46-.56.56Z"/>
          <path class="cls-33" d="M603.07,116.54h-1.13l.56-.56c.64-.1.53.54.56.56Z"/>
          <path class="cls-33" d="M731.44,37.72c.39-.69.55-.53.56-.56-.03.03.07.67-.56.56Z"/>
          <path class="cls-33" d="M749.45,17.45h.56c-.37.49-.36,1.04-.56,0Z"/>
          <path class="cls-33" d="M758.46,13.51c.12-.11.39-.39.56-.56-.17.15-.34.36-.56.56Z"/>
          <path class="cls-33" d="M579.99,298.4s-.09-.66.56-.56c0,.04,1.17.8-.56.56Z"/>
          <path class="cls-33" d="M759.03,12.95c.15-.15.54-.53.56-.56-.17.15-.34.36-.56.56Z"/>
          <path class="cls-33" d="M768.03,5.07s-.08-.66.56-.56c.09.64-.42.48-.56.56Z"/>
          <polygon class="cls-33" points="768.6 4.5 768.88 3.94 769.16 4.22 768.88 4.5 768.6 4.5"/>
          <polygon class="cls-33" points="771.13 2.25 771.41 2.53 771.13 2.82 771.13 2.25"/>
          <path class="cls-33" d="M703.29,220.14c.13-.13.12-.24.56-.56-.19.19-.38.38-.56.56Z"/>
          <path class="cls-33" d="M702.72,220.7c.19-.2.38-.38.56-.56-.19.19-.38.38-.56.56Z"/>
          <path class="cls-33" d="M702.16,221.27c-.1-.64.54-.53.56-.56l-.56.56Z"/>
          <path class="cls-33" d="M440.92,222.95c.19-.18.31-.35.56-.56-.03.02.07.17-.56.56Z"/>
          <path class="cls-33" d="M440.36,223.52c-.1-.64.53-.53.56-.56-.03.02.06.17-.56.56Z"/>
          <path class="cls-33" d="M703.85,219.58s.05-.19.56-.56c-.19.19-.38.38-.56.56Z"/>
          <path class="cls-33" d="M447.12,219.01c-.67.44-.99.47-1.13.56.63-.41,1.03-.5,1.13-.56Z"/>
          <path class="cls-33" d="M732,37.16c.31-.77.55-.52.56-.56-.18.17-.37.37-.56.56Z"/>
          <path class="cls-33" d="M704.41,219.01s.07-.2.56-.56c-.19.19-.38.38-.56.56Z"/>
          <path class="cls-33" d="M431.35,487.57c.06-.09-.09-.66.56-.56-.36.52-.49.48-.56.56Z"/>
          <path class="cls-33" d="M430.79,488.14c.39-.63.54-.53.56-.56-.04.04.08.67-.56.56Z"/>
          <path class="cls-33" d="M429.66,489.82c.06-.09-.08-.66.56-.56-.37.63-.51.51-.56.56Z"/>
          <path class="cls-33" d="M429.1,490.39c.35-.45.54-.53.56-.56-.04.04.08.67-.56.56Z"/>
          <path class="cls-33" d="M447.12,219.01s-.02-.17.56-.56c-.03.02.01.18-.56.56Z"/>
          <path class="cls-33" d="M458.94,211.13s-.21-.27.56-.56c-.03.02.01.18-.56.56Z"/>
          <path class="cls-33" d="M415.02,508.97c.2-.23.4-.39.56-.56-.4.62-.54.53-.56.56Z"/>
          <path class="cls-33" d="M414.46,509.53c.37-.57.52-.52.56-.56-.09.15.08.65-.56.56Z"/>
          <path class="cls-33" d="M414.46,510.09h-.56c-.1-.65.54-.53.56-.56v.56Z"/>
          <polygon class="cls-33" points="413.9 510.09 413.62 510.66 413.33 510.37 413.62 510.09 413.9 510.09"/>
          <path class="cls-128" d="M531.57,202.12c4.85-.1,7.62,4.41,9.85,5.07,3.69,1.09,6.13-.67,11.26,2.25,3.95,2.25,5.48,7.37,7.32,8.45.72.42,5.19.89,7.32,2.25,1.74,1.12,5.92,5.58,4.79,7.88-24.76-.51-49.56-.66-74.32-1.13.11-2.2,3.63-.7,4.79-1.13,5.38-1.97-1.52-8.8-.28-12.1.2-.53,3.93-2.13,4.5-2.82,1.01-1.2,3.36-5.73,3.66-5.91,1.56-.97,12.15-.36,14.64-.56,2.32-.19,3.82-2.2,6.47-2.25Z"/>
          <path class="cls-9" d="M666.69,87.83c-5.58,5.29-11.54,10.29-17.45,15.2-11.28,9.36-22.51,18.79-33.78,28.15-3.89,3.23-7.93,6.34-11.82,9.57-5.43,4.51-10.89,9.01-16.33,13.51-8.5,7.05-16.84,14.37-25.34,21.39-4.3,3.56-8.64,7.15-12.95,10.7-2.74,2.26-6.09,3.98-8.45,6.76l-6.76,6.19c-.16.02-2.36,1.55-2.82,1.69-.18-.47-.1-.99-.56-1.69l57.43-47.29c6.38-3.98,15.26-11.79,21.11-16.89,1.47-1.28,3.76-3.11,4.22-5.07,1.53.1.9.24,2.53-.56,9.19-4.53,40.38-33.11,50.95-41.66Z"/>
        </g>
      </g>
      <polygon class="cls-59" points="363.7 30.27 138.56 230.4 304.81 235.97 0 543.74 212.44 270.73 20.78 259.54 363.7 30.27"/>
      <g id="Generative_Object-2" data-name="Generative Object">
        <path class="cls-33" d="M357.51,35.34c-.13.09-.43-.09-.56,0,.03-.03-.08-.67.56-.56v.56Z"/>
        <path class="cls-33" d="M356.39,35.9c.17-.15.35-.37.56-.56-.03.02.04.17-.56.56Z"/>
        <path class="cls-33" d="M7.32,534.73c.39-.64.54-.53.56-.56l-.56.56Z"/>
        <polygon class="cls-33" points="360.89 32.52 361.17 31.96 361.45 32.24 361.17 32.52 360.89 32.52"/>
        <path class="cls-33" d="M92.33,449.15l.56-.56c-.18.18-.35.36-.56.56Z"/>
        <path class="cls-33" d="M91.21,450.84c-1.07-.23-.39-.24,0-.56v.56Z"/>
        <polygon class="cls-33" points="360.89 32.52 360.61 33.09 360.33 32.8 360.61 32.52 360.89 32.52"/>
        <polygon class="cls-33" points="359.2 33.65 359.48 33.09 359.76 33.37 359.48 33.65 359.2 33.65"/>
        <path class="cls-33" d="M358.64,34.21s-.08-.66.56-.56l-.56.56Z"/>
        <g>
          <path class="cls-48" d="M265.74,116.41c-10.32,9.19-20.64,18.41-30.97,27.59-.28-.59-.74-1.17-1.13-1.69,1.6-1.76-.48-1.06-.56-1.13-.31-.24-2.06-1-2.25-1.41-.24-.5.03-2.09,0-2.53,0-.1,1.09-.82.56-1.97l-1.13.84c-.61-.96-1.48-2.31-2.82-2.25,11.64-8.42,23.25-16.92,34.91-25.34-1.17,2.97,2.17,5.17,3.38,7.88Z"/>
          <path class="cls-127" d="M311.91,65.18c2.05.77,3.25,3.04,2.82,5.07-8.75,5.66-16.85,13.07-25.34,19.14-.17.12-2.09.44-2.25.56l-7.32-3.94c10.64-7.04,21.43-13.84,32.09-20.83Z"/>
          <path class="cls-68" d="M355.82,36.46c-11.72,10.61-23.69,20.98-35.47,31.53-1.8.13-4.16,1.3-5.63,2.25.43-2.03-.77-4.29-2.82-5.07,9.19-6.02,18.38-12.02,27.59-18.02l.84,2.25.84-3.38c4.87-3.16,9.82-6.34,14.64-9.57Z"/>
          <path class="cls-73" d="M320.35,67.99c-9.79,8.76-19.45,17.72-29.28,26.46l-1.69-5.07c8.49-6.08,16.59-13.48,25.34-19.14,1.47-.95,3.83-2.12,5.63-2.25Z"/>
          <path class="cls-43" d="M289.39,89.39l1.69,5.07c-4.76,4.24-9.9,8.17-14.64,12.39-.35-3.31-.55-4.36-3.38-6.19,4.75-3.43,9.32-7.29,14.08-10.7.17-.12,2.09-.44,2.25-.56Z"/>
          <path class="cls-122" d="M276.44,106.84c-3.57,3.17-7.13,6.39-10.7,9.57-1.2-2.71-4.55-4.92-3.38-7.88,3.58-2.59,7.1-5.29,10.7-7.88,2.83,1.84,3.03,2.88,3.38,6.19Z"/>
          <path class="cls-33" d="M339.5,47.16c.55-.36,1.12-.76,1.69-1.13l-.84,3.38-.84-2.25Z"/>
          <path class="cls-68" d="M357.51,35.34v-.56c.11-.09.44.09.56,0-.03.02-.01.19-.56.56Z"/>
          <path class="cls-68" d="M358.08,34.77s.1-.22.56-.56c.1.65-.47.49-.56.56Z"/>
          <path class="cls-68" d="M355.82,36.46c.17-.15.34-.36.56-.56-.03.02.02.17-.56.56Z"/>
          <g>
            <path class="cls-136" d="M287.14,89.95c-4.76,3.41-9.32,7.27-14.08,10.7-3.6,2.59-7.12,5.3-10.7,7.88-11.65,8.41-23.27,16.91-34.91,25.34-44.92,32.5-89.98,64.82-134.84,97.4-.79.57-4.1,2.62-3.1,3.94-11.5,2.61-25.77,18.91-36.6,24.77-9.85-.57-19.77-.73-28.71-1.97l3.38-3.1c84.05-56.32,167.84-113.09,252.23-168.9l7.32,3.94Z"/>
            <path class="cls-109" d="M57.14,248.16c.85-.31,1.24.83.56,1.13-.82.36-1.24-.88-.56-1.13Z"/>
            <path class="cls-28" d="M135.97,187.35c.85-.31,1.24.83.56,1.13-.82.36-1.24-.88-.56-1.13Z"/>
          </g>
          <g>
            <path class="cls-11" d="M230.27,136.12c.2.32.47.74.56,1.13.03.44-.24,2.04,0,2.53.2.41,1.94,1.16,2.25,1.41-.34,1.08.5,1.04.56,1.13.39.52.85,1.1,1.13,1.69-31.84,28.3-62.98,57.42-95.71,84.73.16,1.18,21.64,1.89,23.65,1.97-.7,1.53-.33,1.47-1.97,1.69-3.72.5-16.1-.25-20.27-.56-3.01-.23-5.98-2.67-8.45-2.82-.26-.01-4.62,1.77-4.79,1.97-1.38,1.62,1.33,1.38,1.13,2.82-.33,2.36-8.57,3.48-7.32,7.04-.55-.1-1.2,1.15-1.41,1.13-2.32-.23-3.92-1.78-5.91-1.13-.16-.1-.35.14-1.13-.56,1.58-.95-1.49-1.69-1.69-2.53-.57-2.42,1.86-3.39-.56-4.22-.27-.09-.81.08-1.13,0-1.97-1.71-6.54-2.98-7.88,0-2.32.21-9.76,1.22-11.82,1.69-1-1.32,2.31-3.37,3.1-3.94,44.86-32.58,89.93-64.9,134.84-97.4,1.34-.06,2.21,1.29,2.82,2.25Z"/>
            <g>
              <path class="cls-82" d="M112.6,240.28c-2.62-2.35-3.2-3.17-2.25-6.76,2.42.83-.01,1.81.56,4.22.2.85,3.27,1.59,1.69,2.53Z"/>
              <g>
                <path class="cls-30" d="M109.22,233.52c-3.19-.83-4.9-.27-7.88,0,1.34-2.98,5.91-1.71,7.88,0Z"/>
                <path class="cls-58" d="M171.44,183.97c1.7.2.29,2.81.56,3.94-1.38.27-.92-3.37-.56-3.94Z"/>
                <path class="cls-44" d="M233.65,142.31c-.07-.09-.91-.04-.56-1.13.09.07,2.16-.63.56,1.13Z"/>
                <path class="cls-44" d="M230.83,137.24c-.09-.38-.36-.8-.56-1.13l1.13-.84c.53,1.15-.57,1.87-.56,1.97Z"/>
                <path class="cls-60" d="M186.07,177.78c.7,1.03.22,2.33-.56,1.13-.4-.61.22-.68.56-1.13Z"/>
                <polygon class="cls-65" points="213.1 152.45 213.94 152.73 213.66 153.57 213.38 153.29 213.1 152.45"/>
              </g>
            </g>
          </g>
        </g>
        <g>
          <path class="cls-56" d="M162.71,230.7c3.92.15,7.9-.13,11.82,0l-.56,2.25c-.82.09-1.7-.06-2.53,0,.31.67.18,4.57.28,4.79.09.19,3.18,2.47,3.38,2.53-2.97,2.07-7.01,4.23-9.85,6.19-.57.39-2.59,1.25-.56,1.69,2.85-.39,8.04-6.42,9.57-6.76,2.18-.49,5.71,1.17,9.57-1.13s3.03-6.29,3.94-6.76c2.37-1.22,8.02.37,8.73,3.66,1.59,7.37-.71,6.11-3.94,8.73-2.46,1.99-3.09,4.8-5.63,4.79-1.28,1.77-.88,8.92-1.13,9.57-.17.45-6.59,6.3-7.04,6.47-.8.32-14.78.08-16.89,0-.69-.02.69-1.1,0-1.13-3.21-.11-7.61.71-10.13.56-.43-.02-.13-1.1-.56-1.13-7.6-.42-15.48.03-23.08-.56-1.23-3.28,5.93-5.07,6.47-7.04.64-2.3-3.09-5.34,1.13-8.16.36-.06,4.32.32,3.66-1.13-9.93,2.32-6.77-1.31-10.7-4.5-.42-.34-6.8-2.67-7.6-2.82-1.25-3.56,6.99-4.67,7.32-7.04.2-1.44-2.51-1.19-1.13-2.82.17-.2,4.53-1.99,4.79-1.97,2.47.14,5.44,2.59,8.45,2.82,4.17.32,16.55,1.06,20.27.56,1.64-.22,1.27-.16,1.97-1.69Z"/>
          <path class="cls-100" d="M135.68,249.28c-4.22,2.83-.49,5.86-1.13,8.16-.54,1.97-7.7,3.76-6.47,7.04,7.61.6,15.49.14,23.08.56.43.02.13,1.1.56,1.13,2.53.14,6.92-.67,10.13-.56.69.02-.69,1.1,0,1.13,2.11.08,16.09.32,16.89,0,.44-.18,6.87-6.03,7.04-6.47.24-.65-.16-7.8,1.13-9.57,2.54.01,3.17-2.79,5.63-4.79-.81,3.42-5.61,7.16-6.19,10.42-.26,1.44,2.04,3.38.56,5.63-.66,1-6.74,2.86-7.32,5.35l-3.66,1.13-154.83-8.45-.56-1.13,7.04-3.94-3.38,3.1c8.95,1.24,18.87,1.4,28.71,1.97,9.21.53,17.67.78,26.18,1.13,4.37.18,15.75,2.08,19.14,1.13,1.87-.53,3.89-3.88,5.07-4.5.2-.11,3.83-.2,4.5-.56,5.68-3.04,2.16-4.14,3.1-8.16.24-1.04,5.79-5.22,3.94-7.6,5.55,2.24,5.05.32,9.29,1.13,5.17.99,6.63,7.61,7.32,7.88.2.08,3.08-.94,4.22-1.13Z"/>
          <path class="cls-40" d="M219.57,321.35c-7.07,6.98-11.24,12.04-19.14,17.45-1.16-1.47-5.01-11.94-5.07-13.23-.08-1.92,1.76-3.34,2.25-5.07.32-1.12-.35-3.52,0-4.5.4-1.12,8.18-6.5,8.73-6.47.22.01,2.34,2.23,3.38,2.82.08.04.94-1.08,1.69-.56,3.26,2.26,1.02,7.57,6.76,9.01.54-2.16-3.55-3.37-3.66-3.66-.32-.9,1.05-2.23.56-3.38-.21-.49-2.01-.04-2.82-3.1.94.22,1.32,1.48,2.25,1.69.44.1,1.45.49,1.69.28,1.84-3.91,2.5-6.81,3.38-10.98,2.65,3.21,1.24,8.51,1.69,11.54.03.18,2.41,1.56,2.25,2.82-.14,1.12-5.59,3.59-3.94,5.35Z"/>
          <path class="cls-104" d="M198.74,265.05c-.15.31-1.01,2.73-.84,2.82,2.08,1.08,13.95-.14,14.92,1.41l-.56.84h-2.25c-9.29,0-21.48-1.02-29.84-2.82,1.17-1.69,7.42-4.05,7.88-5.35.61-1.71-.76-4.66-.56-5.63.14-.69,4.81-7.94,5.63-9.01.87-1.14,3.58-1.71,3.94-2.25,1.07-1.62.09-3.64.56-5.07.11-.33,2.22-.83,2.25-1.13.03-.24-3.8-.87-1.97-3.1,1.86,2.67,8.39,1.44,9.01,1.69.92.38,4.88,10.75,2.25,11.82-.47.19-4.98-1.53-5.91.28s1.2,7.56.56,9.57-9.34,5.29-8.16,9.29l3.1-3.38Z"/>
          <path class="cls-110" d="M62.49,474.49c-.4.46-1.46,2.48-2.25,3.38-6.79,7.7-14.07,15.05-20.83,22.8l18.86-18.86,1.41,1.13c-12.8,12.92-25.36,26.03-38.29,38.85l-10.13,7.88c14.75-19.8,30.53-38.99,45.6-58.55,2.66,1.05,3.87,1.48,5.63,3.38Z"/>
          <path class="cls-74" d="M198.74,342.18c-14.86,16.08-30.84,31.12-46.17,46.73-1.63.53.47-2.44.56-2.53,1.82-1.88,12.57-10.99,12.95-12.39s-.72-2.21-.56-3.1c.34-1.88.78-3.77,1.13-5.63,4.3-3.36,6.47-8.82,10.13-12.67,5.73-6.01,13.55-8.03,14.36-18.86,1.71-.6,4.43,8.98,7.6,8.45Z"/>
          <path class="cls-33" d="M129.49,402.99c-.59.61-1.35,2.43-2.25,3.38-1.27,1.33-2.65,2.57-3.94,3.94-3.07,3.26-6.02,6.18-9.01,9.57-1.34,1.52-7.64,6.61-7.88,8.16-.45,2.97,2.35,1.88,1.13,5.35-.73,2.08-9.63,10.16-11.82,12.39-4.77-1.33-5.93.24-9.01,3.66l1.69,1.13-28.15,27.31c.79-.9,1.85-2.92,2.25-3.38,1.19-1.35,2.69-2.51,3.94-3.94,7.12-8.16,17.8-18.46,23.65-27.02,6.18-9.05.27-6.51,0-7.6-.04-.18,2.54-.31,2.82-2.25.09-.65-1.75-1.48.56-5.07,1.29-2,7.4-4.67,9.85-5.35,1.78-.49,3.89.93,5.07.56.28-.09,2.85-3.8,3.66-4.5,3.44-3.03,5.88-6.41,9.01-9.57,2.49-2.52,5.38-4.82,7.88-7.32l.56.56Z"/>
          <path class="cls-49" d="M90.08,443.52c-5.85,8.56-16.53,18.86-23.65,27.02-3.17.85-3.59-3.52-6.76-3.38,7.51-9.74,15.01-19.53,22.52-29.28,3.11-.79,1.4,2.77,2.53,2.82s.13-5.42,5.35,2.82Z"/>
          <path class="cls-115" d="M112.04,419.32c-.81.71-3.38,4.42-3.66,4.5-1.17.37-3.28-1.05-5.07-.56-2.46.68-8.56,3.35-9.85,5.35-2.31,3.59-.47,4.42-.56,5.07-.28,1.95-2.86,2.08-2.82,2.25.27,1.09,6.18-1.45,0,7.6-5.21-8.23-4.24-2.77-5.35-2.82s.57-3.6-2.53-2.82c6.69-8.68,13.53-17.26,20.27-25.9l9.57,7.32Z"/>
          <path class="cls-49" d="M95.71,445.78c-.95.96-1.84,1.87-2.82,2.82l-.56.56c-.4.37-.64.72-1.13,1.13-.39.33-1.07.34,0,.56-9.61,11.53-21,21.46-31.53,32.09l-1.41-1.13-18.86,18.86c6.76-7.75,14.04-15.1,20.83-22.8l28.15-27.31-1.69-1.13c3.07-3.42,4.24-4.99,9.01-3.66Z"/>
          <path class="cls-108" d="M231.96,232.39l1.97,1.69h17.17c.19,0,.38,0,.56,0-.3,2.88.97,4.55-1.13,5.91l-2.25,9.85c.81-2.87.75-9.88,1.97-13.51l-26.74.28c2.55,2.33.74,8.27,1.13,9.01.61,1.18,5.66,1.23,5.91,1.41,2.5,1.78.47,4.84,2.25,6.19.55.42,3.77.46,3.94.56,1.28.76,1.78,2.93,5.35,3.38,5.44.69,7.02-6.91,7.6-6.76,1.53,2.86-4.35,7.03-4.22,7.6.23.99,11.02,8.87,11.26,9.57,1.13,3.33-3.05,8.78-4.79,11.54.24-6.27,9.52-10.83-1.41-14.08-4.51-5.63-4.7-6.1-12.1-8.45l-.84,5.63c-.18-1.52.14-4.69-.56-5.91-1.31-2.29-4.73-1.55-5.35-1.97-1.52-1.02-.47-2.45-.84-3.38-.27-.66.31-1.5-.28-2.25-.22-.27-6.17-2.37-6.47-.84.02,1.03-.03,2.07,0,3.1v-10.98l-1.41-.84c-3.69,3.8-5.12,9.39-3.66,14.64-2.78-2.21-.27-18.21,3.94-19.99.16-2.21-15.8-1.32-18.3-1.41-1.15-.04-1.5,1.58-1.41-1.13,9.56.31,19.15.75,28.71,1.13Z"/>
          <path class="cls-7" d="M152.57,388.91c-3.62,3.69-7.05,7.56-10.7,11.26-6.92-4.2,1.53-3.96,0-9.01,1.36-1.36,2.57-3.16,3.94-4.5,2.52-2.46,11.36-12.54,12.95-13.51,1.82-1.12,4.88-.78,6.76-2.25-.16.88.94,1.74.56,3.1s-11.13,10.5-12.95,12.39c-.09.09-2.19,3.06-.56,2.53Z"/>
          <path class="cls-49" d="M121.05,409.74c-3.13,3.16-5.57,6.54-9.01,9.57l-9.57-7.32c1.09-1.39,2.29-3.68,3.38-5.07,1.2-1.54,2.72-2.95,3.94-4.5,3.84,2.47,6.44,5.33,11.26,7.32Z"/>
          <path class="cls-141" d="M170.59,323.6c-11.53,14.93-22.73,30.17-34.34,45.04-3.78,4.84-7.48,9.82-11.26,14.64-.41.53-2.05.92-1.69,2.25-.13-.05-.37.01-.56,0-.83-.05-1.05.27-1.69.56,15.7-21.86,32.53-42.9,48.98-64.18l.56,1.69Z"/>
          <path class="cls-144" d="M198.74,341.62s1.19.29,0,.56c-3.17.54-5.89-9.05-7.6-8.45-.81,10.83-8.63,12.85-14.36,18.86-3.66,3.85-5.84,9.31-10.13,12.67.33-1.8-.39-3.32.56-5.35,2.16-4.59,17.1-15.44,19.14-19.14.88-1.6.83-4.41,1.69-6.19,1.1-2.3,3.13-2.11,2.53-5.35,2.63-1.65,4.47,8.04,4.79,8.73.26.57,3.21,3.2,3.38,3.66Z"/>
          <path class="cls-15" d="M212.25,270.12c-13.03,16.82-25.86,33.83-38.85,50.67-.8,1.04-2.11,1.9-2.82,2.82l-.56-1.69c13.34-17.25,26.79-34.43,39.97-51.8h2.25Z"/>
          <path class="cls-86" d="M141.88,400.17c-3.35,3.4-6.8,6.73-10.13,10.13l-4.5-3.94c.9-.95,1.66-2.76,2.25-3.38,2.35-2.45,4.91-4.89,7.32-7.32.98-.99,3.46-2.91,5.07-4.5,1.53,5.05-6.92,4.8,0,9.01Z"/>
          <path class="cls-103" d="M126.68,415.37c-2.87,2.91-5.6,6.07-8.45,9.01l-3.94-4.5c2.99-3.39,5.94-6.31,9.01-9.57.15,2.09,1.88,4.18,3.38,5.07Z"/>
          <path class="cls-115" d="M118.23,424.38c-2.68,2.76-6.98,9-10.7,9.01,1.22-3.47-1.58-2.38-1.13-5.35.24-1.55,6.54-6.64,7.88-8.16l3.94,4.5Z"/>
          <path class="cls-28" d="M122.74,385.53c-4.1,5.78-8.57,11.32-12.95,16.89-1.22,1.55-2.74,2.96-3.94,4.5-1.12-.18-.29-2.06,0-2.53,1.23-2,14-17.75,15.2-18.3.64-.3.85-.62,1.69-.56Z"/>
          <path class="cls-135" d="M131.74,410.31c-1.68,1.71-3.39,3.37-5.07,5.07-1.5-.88-3.23-2.98-3.38-5.07,1.29-1.37,2.67-2.61,3.94-3.94l4.5,3.94Z"/>
          <path class="cls-23" d="M66.43,470.55c-1.25,1.43-2.75,2.59-3.94,3.94-1.76-1.9-2.97-2.33-5.63-3.38.98-1.27,1.86-2.7,2.82-3.94,3.16-.14,3.59,4.23,6.76,3.38Z"/>
          <path class="cls-112" d="M251.1,234.08h-17.17l-1.97-1.69c7.03.27,13.03,1.4,19.14,1.69Z"/>
          <path class="cls-134" d="M21.39,521.78c-5.03,4.99-9.74,10.35-14.92,15.2-.66-.9.45-1.59.84-2.25l.56-.56c1.04-1.51,2.27-3.02,3.38-4.5l10.13-7.88Z"/>
          <path class="cls-62" d="M109.22,233.52c.32.08.85-.09,1.13,0-.95,3.58-.37,4.41,2.25,6.76.78.7.97.46,1.13.56.57.37.5.31,1.13.56,1.85,2.38-3.7,6.57-3.94,7.6-.94,4.03,2.58,5.12-3.1,8.16-.67.36-4.3.46-4.5.56-1.18.62-3.2,3.98-5.07,4.5-3.4.96-14.77-.95-19.14-1.13-8.51-.35-16.97-.59-26.18-1.13,10.83-5.86,25.09-22.16,36.6-24.77,2.07-.47,9.5-1.48,11.82-1.69,2.98-.27,4.69-.83,7.88,0Z"/>
          <path class="cls-30" d="M121.05,240.84c.8.15,7.18,2.47,7.6,2.82,3.93,3.19.76,6.82,10.7,4.5.66,1.44-3.3,1.07-3.66,1.13-1.14.19-4.02,1.21-4.22,1.13-.69-.28-2.15-6.9-7.32-7.88-4.24-.81-3.74,1.12-9.29-1.13-.62-.25-.55-.2-1.13-.56,2-.65,3.59.9,5.91,1.13.21.02.85-1.23,1.41-1.13Z"/>
          <path class="cls-116" d="M173.97,232.96c1.59-.18,11.83.07,12.39.84.04,5.43-6.39,7.9-11.26,6.47-.2-.06-3.29-2.34-3.38-2.53-.1-.22.03-4.11-.28-4.79.83-.06,1.71.09,2.53,0Z"/>
          <path class="cls-104" d="M248.29,249.85c-1.12,3.97-2.95,5.13-6.19,7.32-3.57-.45-4.07-2.61-5.35-3.38-.17-.1-3.39-.14-3.94-.56-1.78-1.35.25-4.41-2.25-6.19-.25-.18-5.3-.23-5.91-1.41-.38-.74,1.42-6.68-1.13-9.01l26.74-.28c-1.22,3.63-1.16,10.64-1.97,13.51Z"/>
          <g>
            <path class="cls-100" d="M249.41,290.95c-2.18-2.14.85-4.84,1.13-6.47s-1.24-3.7-1.13-4.5c.46-3.13,6.22-9.33,5.07-11.82-.28-.6-2.58-1.4-3.94-3.1,10.93,3.24,1.65,7.8,1.41,14.08,1.74-2.76,5.92-8.21,4.79-11.54-.24-.7-11.03-8.58-11.26-9.57-.13-.57,5.75-4.74,4.22-7.6-.58-.15-2.16,7.44-7.6,6.76,3.24-2.19,5.08-3.34,6.19-7.32l2.25-9.85c2.09-1.36.82-3.03,1.13-5.91.09,0,1.14-1.14,1.41-1.13,17.14.84,34.34,2.57,51.52,3.1-18.15,18.53-36.89,36.51-55.18,54.89Z"/>
            <path class="cls-104" d="M255.89,236.33c2.35-.32,4.26,1.11,6.76,0,3.63,1.09-9.37,7.44-9.29.84.76.02,2.32-.81,2.53-.84Z"/>
            <path class="cls-84" d="M266.59,240.28c.14,0,1.73,1.67,2.25,1.69.8.03,4.73-3.04,6.47.28-4.15-2.06-6.1,2-6.47,1.97-.18-.02-1.29-2.54-2.25-2.82-.3-.09-4.37,1.74-5.91.28,1.4.1,5.6-1.39,5.91-1.41Z"/>
          </g>
          <path class="cls-132" d="M215.07,253.79c-4.13,4.88,4.91,7.71,5.63,9.85.28.85-.33,7.14-.56,8.45-.94,5.36-11.42,25.68-15.48,29-.47.38-4.19,1.42-4.5,1.69-7.27,6.27-10.06,17.01-20.83,18.02,3.83,2.25-4.58,2.55-5.91,0,12.99-16.85,25.82-33.86,38.85-50.67l.56-.84c-.97-1.55-12.84-.33-14.92-1.41-.16-.09.7-2.5.84-2.82,1.15-2.45,5.77-4.15,6.19-5.35.69-1.93-1.95-8.86.28-9.85,3.15-1.4,4.95,3.13,6.19-2.82-.22,3.53,1.64,4.23,3.66,6.76Z"/>
          <path class="cls-7" d="M146.38,374.84c-2.71,5.15-.5,7.87-2.25,12.1-.38.91-6.39,6.87-7.88,7.6-.77-.75-1.06-.51-1.13-.56-.72-2.94-2-5.23-5.35-4.5,3.87-2.08-5.24-2.32-4.79-6.19,3.78-4.82,7.48-9.8,11.26-14.64,6.56.75,4.34,3.44,10.13-.56-1.3,3,2.34,3.35,2.25,4.22-.02.17-1.26.65-2.25,2.53Z"/>
          <path class="cls-110" d="M135.12,393.98c.07.05.35-.19,1.13.56.08.08-.06.37,0,.56-2.83,2.02-4.89,4.9-7.32,7.32s-5.4,4.8-7.88,7.32c-4.82-1.99-7.42-4.85-11.26-7.32,4.38-5.57,8.85-11.11,12.95-16.89.2.01.44-.05.56,0,2.48.98,1.12,2.37,3.1,3.94.18.15,3.48,1.38,4.22,1.97.1.08.21,2.29.84,2.53,2.47.93-.27-3.07,3.66,0Z"/>
          <path class="cls-146" d="M224.08,250.97c.13,4.02,1.71,3.37,3.66,6.19,1.12-.04.26-.43.84-1.69l4.5,9.57c-1.16,1.32-1.06,2.41-1.13,3.94-.02.51.52.56.56,1.13l-1.41,2.25c-1.69-.74.77-3.94-1.41-1.97-.25,1.45.53,1.97.56,2.53.42,6.71-.56,3.81-1.69,6.47-2.4,5.64-8.7,12.7-9.57,16.89-.21.98.83,4.1.56,5.35-.88,4.17-1.54,7.07-3.38,10.98-.24.21-1.25-.18-1.69-.28l-2.25-2.82c.25-.83,2.7-3.12,2.82-3.66.85-3.95-.41-7.92,1.69-12.39,1.63-3.47,8.22-7.5,9.57-11.26.81-2.25,2.88-19.4,2.25-21.39-1.58-5-6.48-4.59-9.57-7.04-1.46-5.25-.03-10.84,3.66-14.64l1.41.84v10.98Z"/>
          <path class="cls-138" d="M212.82,291.51c-.73,2.87-.2,11.24-.56,12.1-.64,1.53-12.23,4.32-14.92,6.47-.46.37-6.24,8.18-7.04,9.29-.84,1.17-.11,3.11-.56,3.94-1.3,2.35-6.13.4-7.32,7.32-.38,2.24.56,6.67,0,8.45-.34,1.07-4.92,3.48-6.19,5.07-1.44,1.79-10.92,13.78-11.26,14.64-.97,2.42-.1,6-.56,8.16-2.64-1.22-1.4-3.08-1.69-5.63-.08-.71-1.12-1.18-1.13-1.41-.11-4.9,1.82-3.63,2.82-5.07,2.71-3.91,12.51-13.14,13.51-15.76.79-2.07.28-7.43,2.25-10.7s6.65-5.53,9.01-8.45c3.85-4.76,5.87-10.53,10.98-14.36,2.83-2.12,8.52-3.24,9.85-5.91,1.01-2.02.09-7.01,2.82-8.16Z"/>
          <path class="cls-18" d="M162.71,361.32c.29,2.55-.95,4.41,1.69,5.63-1.32,6.16-6.42,3.46-10.98,4.5-1.72.39-5.53,2.12-7.04,3.38.99-1.88,2.23-2.37,2.25-2.53.09-.88-3.55-1.23-2.25-4.22,2.54-1.75,7.46-8.79,10.42-5.07.47-4.99,2.41-3.77,5.91-1.69Z"/>
          <path class="cls-7" d="M145.26,385.53c.95-4.66-.42-8.64,4.22-11.26.37-.21,7.2-2.26,7.6-2.25l-11.82,13.51Z"/>
          <path class="cls-45" d="M158.77,373.15c-1.59.98-10.43,11.05-12.95,13.51-.7.02-.67-.61-.56-1.13l11.82-13.51c.72,0,.96,1.1,1.69,1.13Z"/>
          <path class="cls-91" d="M136.81,395.67c-2.41,2.42-4.97,4.87-7.32,7.32l-.56-.56c2.42-2.42,4.49-5.3,7.32-7.32.1.33,0,.64.56.56Z"/>
          <g>
            <path class="cls-33" d="M203.25,231.27c-.09,2.71.26,1.08,1.41,1.13,2.49.09,18.46-.8,18.3,1.41-4.21,1.77-6.73,17.78-3.94,19.99,3.09,2.45,8,2.03,9.57,7.04.63,2-1.45,19.15-2.25,21.39-1.35,3.76-7.94,7.79-9.57,11.26-2.09,4.46-.84,8.43-1.69,12.39-.12.54-2.56,2.83-2.82,3.66-.46,1.52-.2.38,0,1.13.8,3.06,2.61,2.61,2.82,3.1.49,1.15-.89,2.48-.56,3.38.11.29,4.2,1.49,3.66,3.66-5.74-1.44-3.49-6.75-6.76-9.01-.75-.52-1.61.61-1.69.56-1.04-.58-3.16-2.8-3.38-2.82-.54-.03-8.33,5.36-8.73,6.47-.35.98.32,3.39,0,4.5-.49,1.73-2.33,3.15-2.25,5.07.06,1.29,3.91,11.76,5.07,13.23-.25.17-1.1,2.29-1.69,2.82-.16-.46-3.12-3.09-3.38-3.66-.32-.68-2.16-10.37-4.79-8.73.6,3.24-1.43,3.04-2.53,5.35-.86,1.79-.81,4.6-1.69,6.19-2.04,3.7-16.98,14.56-19.14,19.14-.96,2.03-.23,3.55-.56,5.35s-.79,3.75-1.13,5.63c-1.88,1.48-4.93,1.13-6.76,2.25-.73-.03-.97-1.12-1.69-1.13-.4,0-7.23,2.04-7.6,2.25-4.65,2.62-3.28,6.6-4.22,11.26-.11.52-.14,1.15.56,1.13-1.37,1.34-2.58,3.15-3.94,4.5-1.6,1.6-4.09,3.52-5.07,4.5-.57.07-.47-.23-.56-.56-.06-.19.08-.49,0-.56,1.49-.73,7.5-6.69,7.88-7.6,1.75-4.24-.46-6.95,2.25-12.1,1.51-1.25,5.31-2.98,7.04-3.38,4.56-1.04,9.66,1.66,10.98-4.5.46-2.17-.4-5.74.56-8.16.34-.86,9.82-12.85,11.26-14.64,1.28-1.59,5.86-3.99,6.19-5.07.56-1.77-.38-6.21,0-8.45,1.19-6.92,6.02-4.97,7.32-7.32.46-.83-.27-2.77.56-3.94s6.58-8.92,7.04-9.29c2.69-2.15,14.28-4.95,14.92-6.47.36-.86-.17-9.24.56-12.1,1.5-5.86,7.77-7.02,9.57-11.54.51-1.27,1.66-9.72,1.69-11.26.19-10.07-3.21-7.66-9.01-14.92-2.02-2.52-3.88-3.23-3.66-6.76-1.24,5.95-3.04,1.41-6.19,2.82-2.23.99.41,7.92-.28,9.85-.43,1.2-5.05,2.9-6.19,5.35l-3.1,3.38c-1.17-4,7.56-7.38,8.16-9.29.63-2.01-1.52-7.73-.56-9.57s5.44-.09,5.91-.28c2.63-1.07-1.33-11.45-2.25-11.82-.61-.25-7.15.98-9.01-1.69-1.83,2.23,2,2.85,1.97,3.1-.04.3-2.14.79-2.25,1.13-.47,1.43.5,3.45-.56,5.07-.36.54-3.07,1.11-3.94,2.25-.82,1.07-5.49,8.32-5.63,9.01-.2.97,1.17,3.92.56,5.63-.46,1.29-6.71,3.66-7.88,5.35h-.56c.58-2.49,6.66-4.35,7.32-5.35,1.47-2.25-.82-4.19-.56-5.63.58-3.26,5.39-6.99,6.19-10.42,3.23-2.61,5.53-1.35,3.94-8.73-.71-3.29-6.35-4.88-8.73-3.66-.91.47-.13,4.49-3.94,6.76s-7.39.64-9.57,1.13c-1.53.34-6.72,6.37-9.57,6.76-2.03-.44,0-1.3.56-1.69,2.84-1.96,6.88-4.12,9.85-6.19,4.87,1.42,11.3-1.04,11.26-6.47-.56-.78-10.79-1.02-12.39-.84l.56-2.25c9.55.31,19.17.25,28.71.56Z"/>
            <path class="cls-44" d="M214.51,312.34c-.94-.21-1.31-1.47-2.25-1.69-.2-.75-.46.4,0-1.13l2.25,2.82Z"/>
            <path class="cls-131" d="M209.72,309.53c1.33.16.35,2.52-.56,1.13-.37-.56.5-1.13.56-1.13Z"/>
          </g>
          <path class="cls-104" d="M230.83,250.97c.37.93-.68,2.36.84,3.38.62.42,4.04-.32,5.35,1.97.7,1.22.38,4.39.56,5.91.02.18-.04.39,0,.56.08.31-.04.77,0,1.13-.37-.01-.76-.04-1.13,0-.25.03-.22-2.47-3.38,1.13l-4.5-9.57c.74-1.6,1.01-4.64,2.25-4.5Z"/>
          <path class="cls-108" d="M236.46,263.92l-4.5,5.07c.06-1.53-.04-2.62,1.13-3.94,3.16-3.59,3.13-1.1,3.38-1.13Z"/>
          <g>
            <path class="cls-100" d="M250.54,265.05c1.36,1.7,3.66,2.49,3.94,3.1,1.15,2.49-4.61,8.69-5.07,11.82-.12.81,1.41,2.83,1.13,4.5s-3.31,4.34-1.13,6.47c-10.01,10.07-19.71,20.41-29.84,30.4-1.65-1.76,3.8-4.23,3.94-5.35.16-1.26-2.23-2.64-2.25-2.82-.45-3.03.96-8.33-1.69-11.54.26-1.25-.77-4.37-.56-5.35.88-4.19,7.17-11.25,9.57-16.89,1.13-2.66,2.11.24,1.69-6.47.74,1.27,2.76,7.13,2.82,8.16.15,2.66-2.27,4.09-1.13,6.19.61-1,2.87-6.63,2.82-7.32-.21-2.86-2.1-3.32-2.25-4.5-.21-1.69.14-3.62,0-5.35-.05-.57-.58-.62-.56-1.13l4.5-5.07c.36-.04.76-.01,1.13,0,.42.01.85.16,1.13-.28l-1.13-.84c-.04-.17.02-.38,0-.56l.84-5.63c7.41,2.35,7.6,2.82,12.1,8.45Z"/>
            <path class="cls-114" d="M232.52,270.12c.14,1.73-.21,3.66,0,5.35.15,1.19,2.04,1.64,2.25,4.5.05.69-2.21,6.32-2.82,7.32-1.15-2.1,1.27-3.53,1.13-6.19-.06-1.03-2.07-6.9-2.82-8.16-.04-.56-.81-1.09-.56-2.53,2.17-1.97-.28,1.23,1.41,1.97l1.41-2.25Z"/>
            <path class="cls-108" d="M237.59,263.92c-.04-.36.08-.82,0-1.13l1.13.84c-.28.45-.71.3-1.13.28Z"/>
            <path class="cls-30" d="M231.68,290.95c.27-.02.38.49.28.84-.32,2.09-1-.8-.28-.84Z"/>
          </g>
          <path class="cls-116" d="M230.83,250.97c-1.24-.14-1.51,2.91-2.25,4.5-.59,1.26.28,1.65-.84,1.69-1.95-2.82-3.53-2.17-3.66-6.19-.03-1.03.02-2.07,0-3.1.3-1.53,6.26.57,6.47.84.59.75.02,1.59.28,2.25Z"/>
          <path class="cls-86" d="M135.12,393.98c-3.93-3.07-1.19.93-3.66,0-.64-.24-.74-2.45-.84-2.53-.74-.59-4.04-1.83-4.22-1.97-1.97-1.58-.62-2.96-3.1-3.94-.36-1.34,1.27-1.72,1.69-2.25-.45,3.88,8.66,4.11,4.79,6.19,3.35-.73,4.63,1.57,5.35,4.5Z"/>
          <g>
            <path class="cls-40" d="M212.82,291.51c-2.73,1.15-1.81,6.15-2.82,8.16-1.33,2.67-7.03,3.79-9.85,5.91-5.11,3.83-7.13,9.6-10.98,14.36-2.36,2.91-7.04,5.2-9.01,8.45s-1.46,8.62-2.25,10.7c-1,2.63-10.8,11.85-13.51,15.76-.99,1.43-2.93.17-2.82,5.07,0,.23,1.05.7,1.13,1.41-3.51-2.08-5.45-3.3-5.91,1.69-2.96-3.72-7.88,3.31-10.42,5.07-5.8,4-3.58,1.31-10.13.56,11.62-14.87,22.81-30.11,34.34-45.04.71-.92,2.01-1.78,2.82-2.82,1.33,2.55,9.74,2.25,5.91,0,10.78-1.01,13.56-11.74,20.83-18.02.31-.27,4.04-1.31,4.5-1.69,4.06-3.31,14.55-23.63,15.48-29,.23-1.31.85-7.6.56-8.45-.72-2.14-9.76-4.97-5.63-9.85,5.8,7.26,9.2,4.85,9.01,14.92-.03,1.54-1.18,9.99-1.69,11.26-1.8,4.52-8.07,5.68-9.57,11.54Z"/>
            <path class="cls-115" d="M169.75,335.99c.7,1.03.22,2.33-.56,1.13-.4-.61.22-.68.56-1.13Z"/>
          </g>
        </g>
      </g>
      <path class="cls-59" d="M324.85,308.69c10.84-10.54,33.67-20.18,48.15-12.22,4.67,2.57,5.82,5.28,6.56,10.43,3.62,25.06-29.28,72.97-55.99,76.21-43.96,5.33-14.93-58.68,1.27-74.43ZM324.59,358.61c10.06,1.18,17.77-10.38,22.28-17.88,3.18-5.3,14.93-27.18.37-24.35-11.3,2.19-28.35,30.99-22.65,42.23Z"/>
      <path class="cls-59" d="M779.38,346.43c3.49,10.17,7.82,20.09,13.86,29.12l-19.45,7.72c-5.42-6.81-7.43-15.94-11.46-23.09-.73-1.29.06-1.9-2.56-1.43l-7.2,18.8-20.52,3.6c8.94-27.81,22.37-54.05,34.93-80.43,13.5-5.8,53.94-13.79,59.21,5.29,5.08,18.39-30.41,39.19-46.8,40.4ZM772.45,330.71c17.98-1.11,47.74-25.99,8.34-16.56l-8.34,16.56Z"/>
      <path class="cls-59" d="M412.2,347.55c3.49,10.17,7.82,20.09,13.86,29.12l-19.45,7.72c-5.42-6.81-7.43-15.94-11.46-23.09-.73-1.29.06-1.9-2.56-1.43l-7.2,18.8-20.52,3.6c8.94-27.81,22.37-54.05,34.93-80.43,13.5-5.8,53.94-13.79,59.21,5.29,5.08,18.39-30.41,39.19-46.8,40.4ZM405.27,331.84c17.98-1.11,47.74-25.99,8.34-16.56l-8.34,16.56Z"/>
      <path class="cls-59" d="M758.59,287.01c-14.9,28.1-25.47,58.1-37.57,87.4-2.37,2.67-24.18,9.43-25.93,7.88l12.69-25.23c-2.48-1.37-11.88.43-13.57,1.97-2.96,2.7-8.12,16.3-10.72,18.17-2.54,1.83-22.27,5.33-24.19,3.96,10.69-20.2,22.41-40.14,36.01-58.64,3.96-5.39,14.69-20.49,19.37-23.8,4.42-3.13,41.7-13.4,43.92-11.71ZM725.1,315.04l-4.6.57c-2.25,1.37-14.82,19.89-13.87,20.72,2.41-.12,8.32-.53,9.8-2.24.69-.8,9.46-18.35,8.66-19.05Z"/>
      <path class="cls-59" d="M600.41,383.41c7.94-18.54,15.06-37.57,24.04-55.68,3.43-6.91,12.87-26.46,17.49-31.22,6.49-6.68,27.35-8.55,36.07-5.82,14.39,4.5,12.32,14.84,7.67,25.87-9.52,22.57-28.59,30.12-51.77,34.94l-12.06,26.41-21.45,5.51ZM644.29,328.48c8.65,3.35,29.46-15.78,15.34-17.71-9.5-1.3-12.16,10.88-15.34,17.71Z"/>
      <path class="cls-59" d="M493.02,291.49v19.62l2.29,8.4,16.5-24.34c9.72-2.74,19.63-2.87,29.7-2.55-23.02,27.24-43.32,56.51-63.42,85.84-7.36,3.73-16.25,4.07-24.33,3.83l19.61-33.11-4.42-46.79c1.76-6,18.22-10.3,24.06-10.91Z"/>
      <path class="cls-59" d="M324.45,290.38l-10.57,21.11c-5.16.4-11.2.52-16.24,1.62-1.44.31-3.5.47-4.68,1.06-2.95,1.45-15.34,25.98-17.83,30.9-2.61,5.15-12.52,29.43-14.5,31.33-2.79,2.69-22,9.2-25.09,7.02l31.15-63.37c.8-2.66-3.37-1.74-5.04-1.52-5.87.76-12.1,3.45-18.02,4.36,2.35-7.02,7.2-20.9,14.95-23.04,20.14-5.54,45.09-5.87,65.87-9.46Z"/>
      <g id="Generative_Object-3" data-name="Generative Object">
        <g>
          <g>
            <path class="cls-27" d="M862.69,304.34c-.58.36-2.19.15-2.41.3-2.44,1.68-10.7,18.08-12.63,21.95-2.07,4.16-3.9,9.28-5.41,12.63-3.23,7.15-7.31,14.84-10.22,21.95-.47,1.14-.87,1.56,0,2.71-.37.48-.58.57-.6.6-1.62,2.16-1.75.53-1.8.6.82-2.85,1.94-5.66,3.01-8.42,1.77-4.56,3.48-9.34,5.41-13.83,2-4.64,5.46-10.12,7.82-14.73-5.36-1.07-11.56-.4-15.03-5.71.04-.37.07-.85,0-1.2,1.62-2.7,3.49-5.94,4.21-9.02,3.13-4.77,4.21-10.49,7.82-15.03,4.9-.19,9.34-3.02,14.13-3.61,2.53-.31,6,1.39,6.61,1.2.56-.17,2.89-4.89,5.11-6.01,1.45-.73,3.43-2,3.01.9-.13.85-7.79,12.61-9.02,14.73Z"/>
            <path class="cls-3" d="M853.07,340.42c-.08.33-.02.83,0,1.2.18,3.19,8.25,16.3,7.82,17.14-8.17-1.84-12.89,3.62-16.84,9.92-.86-1.88-2.1-7.21-4.21-5.41-.14-.29-3.33-5.09-3.61-5.41-.11-.12.25-1.03-.3-1.2-.51.25-.68.91-.9,1.2-1.25,1.65-1.4,3.9-3.01,6.01-.87-1.15-.47-1.57,0-2.71,2.91-7.11,7-14.8,10.22-21.95h9.32c.47.36.86,1.18,1.5,1.2Z"/>
            <path class="cls-143" d="M832.63,356.66c-1.07,2.76-2.19,5.57-3.01,8.42-3.37,4.43-1.61,10.16-5.71,12.03-1.27.58-12.96,1.41-13.53.3l1.2-11.73c1.41-3.02,3.51-10.38,5.41-12.63,2.9-3.44,12.23-2.63,15.93-.6,1.02.56-1.74,3.49-.3,4.21Z"/>
            <path class="cls-142" d="M862.69,304.34c-2.4,4.16-7.44,11.09-9.02,15.03-.02.06-1.29.21-.3,1.2l.9-.6c3.78-1.63,7.2-4.11,10.82-6.01-1.8,5.65,8.76,3.29,12.33,4.81,1.82.78,4.08,4.38,6.31,5.41-1.78.93-12.1,7.28-12.93,7.22-.96-.08-1.52-2.07-3.01-2.41-7.04-1.57-12.83-2.76-20.14-2.41,1.92-3.86,10.18-20.27,12.63-21.95.21-.15,1.83.06,2.41-.3Z"/>
            <path class="cls-143" d="M868.1,372.89c-14.63,4.84-16.36,12.56-24.05-4.21,3.95-6.31,8.66-11.77,16.84-9.92.44-.83-7.64-13.95-7.82-17.14l15.03,31.27Z"/>
            <path class="cls-38" d="M888.55,322.98c-5.57,3.22-30.47,17.53-34.88,17.44-.04-.83-.41-.8-.6,0-.64-.03-1.03-.84-1.5-1.2h-9.32c1.51-3.34,3.34-8.46,5.41-12.63,7.31-.35,13.1.83,20.14,2.41,1.48.33,2.05,2.33,3.01,2.41.83.07,11.14-6.28,12.93-7.22,1.03-.54,4.43-2.44,4.81-1.2Z"/>
            <path class="cls-140" d="M899.97,304.34c.46,1.8.52,2.34.6,4.21-2.73,4.16-9.55,11.02-14.73,9.62-1.05-.28-3.16-2.77-3.61-3.01-.97-.5-1.35,2.78-3.31-.9-1.51-2.84-1.13-4.45,0-6.91,3.65-1.94,9.5-4.29,12.63-6.61,3.19,1.11,5.02,4.71,8.42,3.61Z"/>
            <path class="cls-129" d="M878.93,307.35c-1.13,2.47-1.51,4.08,0,6.91,1.95,3.68,2.34.4,3.31.9.45.23,2.56,2.72,3.61,3.01,5.18,1.39,12.01-5.46,14.73-9.62.52,11.35-4.19,9.9-12.03,14.43-.38-1.24-3.78.66-4.81,1.2-2.24-1.03-4.49-4.64-6.31-5.41-3.57-1.52-14.12.83-12.33-4.81,4.48-2.35,9.41-4.27,13.83-6.61Z"/>
            <path class="cls-3" d="M838.04,342.83c-1.93,4.49-3.64,9.27-5.41,13.83-1.44-.72,1.32-3.65.3-4.21-3.7-2.03-13.04-2.83-15.93.6.05-.38-.1-.95,0-1.2,1.34-3.44,4.33-8.34,6.01-12.03,5.41,1.65,9.09,3.8,15.03,3.01Z"/>
            <path class="cls-130" d="M811.58,365.68l-1.2,11.73c.57,1.11,12.25.28,13.53-.3,4.11-1.87,2.34-7.59,5.71-12.03.06-.08.18,1.56,1.8-.6-.16,2.84-3.6,11.96-5.71,13.23-1.58.95-20.8,5.44-21.35,3.91,2.03-5.49,4.75-10.65,7.22-15.93Z"/>
            <path class="cls-33" d="M868.7,288.71c-2.22,1.12-4.55,5.84-5.11,6.01-.62.19-4.08-1.51-6.61-1.2-4.79.59-9.23,3.42-14.13,3.61,5.05-6.35,17.73-7.44,25.86-8.42Z"/>
            <path class="cls-130" d="M844.05,368.68c7.69,16.77,9.42,9.05,24.05,4.21l-20.14,10.22c-1.29-.51-6.96-17.48-8.12-19.84,2.11-1.8,3.35,3.54,4.21,5.41Z"/>
            <path class="cls-33" d="M899.97,304.34c-3.4,1.1-5.23-2.5-8.42-3.61,1.46-1.08,1.9-2.7,2.71-4.21,4.71,1.94,4.54,3.23,5.71,7.82Z"/>
            <path class="cls-92" d="M838.04,342.83c-5.95.8-9.62-1.36-15.03-3.01,1.32-2.89,7.62-15.61,7.82-17.44,3.47,5.31,9.67,4.65,15.03,5.71-2.36,4.61-5.82,10.09-7.82,14.73Z"/>
          </g>
          <g>
            <g>
              <path class="cls-97" d="M651.64,314.57c-3.19,3.81-7.07,12.87-8.42,16.84.78,1.16-9.57,15.13-6.91,16.24,8.92.16,16.77-2.33,24.95-5.41-5.19,2.7-7.4,3.88-13.23,5.41-2.98.79-13.23,1.6-14.43,2.71-3.14,2.89-8.18,24.42-12.93,27.36-1.13.7-18.38,4.68-19.24,4.21,4.94-14.38,11.52-28.24,17.74-42.09l1.8,2.1c1.74-5.01,21.78-29.26,24.95-29.76,1.82-.29,3.81,2.61,5.71,2.41Z"/>
              <path class="cls-137" d="M685.31,318.77c-.8,1.3-.33,5.15-3.61,5.11l1.2.6c-1.85,2.69-4.34,4.65-6.61,6.91-.17-3.29-2.96-2.69-5.41-3.01,1.21-1.37,0-3.54-1.2-4.81,6.63-.68,2.11-3.37,1.2-5.11-.24-.45.24-1.95,0-2.41-.2-.39-2.92-1.84-3.61-3.01-1.81-3.07,1.11-7.43-7.82-8.42-.38-1.26,7.18-2.52,7.82-3.61-9.05-2.61-21.6,4.69-28.26,11.12l-4.81-4.81c1.77-3.62,3.8-9.6,6.01-12.63,5.67-6.96,49.15-7.95,46.9,2.1-.17.77-8.86,9.15-9.02,12.63-.02.44,1.22.16,1.2.6-.05,1.52-.66,4.95,0,6.01,1.41,2.29,4.65.52,6.01,2.71Z"/>
              <path class="cls-36" d="M669.67,323.58c-.12-.13-1.57.48-3.01-.9-1.35-1.29.98-4.29-4.21-3.31.51-1.04,1.18-3.03,1.2-4.21,1.88.4,1.3-4.83,1.2-5.11-1.39-3.96-10.58-1.19-11.42,2.1-.28.19-1.42,1.94-1.8,2.41-1.91.2-3.89-2.7-5.71-2.41-3.17.51-23.21,24.76-24.95,29.76l-1.8-2.1c1.06-2.35,3.64-5.4,4.21-6.61.17-.36.41-.78.6-1.2,4.94-6.18,9.39-14.38,15.03-19.84,6.66-6.44,19.21-13.74,28.26-11.12-.64,1.09-8.2,2.35-7.82,3.61,8.92.99,6.01,5.34,7.82,8.42.69,1.17,3.4,2.62,3.61,3.01.24.45-.24,1.95,0,2.41.91,1.74,5.43,4.43-1.2,5.11Z"/>
              <path class="cls-22" d="M686.51,318.17c-.98-.19-.81-.03-1.2.6-1.37-2.19-4.6-.42-6.01-2.71-.66-1.06-.05-4.5,0-6.01.02-.44-1.22-.16-1.2-.6.16-3.48,8.85-11.86,9.02-12.63,2.25-10.05-41.24-9.07-46.9-2.1,7.1-9.7,42.22-10.77,48.71.3,4.26,7.27-.03,15.85-2.41,23.15Z"/>
              <path class="cls-36" d="M639.01,312.16c-5.64,5.46-10.09,13.67-15.03,19.84,3.5-7.52,6.34-16.72,10.22-24.65l4.81,4.81Z"/>
              <path class="cls-8" d="M657.65,324.79c3.91,4.58,8.3,2.96,13.23,3.61,2.45.32,5.24-.28,5.41,3.01-3.53,3.51-8.34,7.77-12.63,10.22-.33.19-2.03.41-2.41.6-8.18,3.08-16.03,5.58-24.95,5.41-2.65-1.11,7.7-15.08,6.91-16.24,4.13-2.41,10.66-3.72,14.43-6.61Z"/>
              <path class="cls-10" d="M669.67,323.58c1.21,1.27,2.42,3.44,1.2,4.81-4.93-.65-9.31.97-13.23-3.61.51-.39,4.57-4.91,4.81-5.41,5.19-.98,2.86,2.02,4.21,3.31,1.44,1.38,2.88.77,3.01.9Z"/>
              <path class="cls-16" d="M663.66,315.17c.11-6.59-5.9-5.97-10.22-3.01.85-3.3,10.04-6.07,11.42-2.1.1.28.68,5.51-1.2,5.11Z"/>
            </g>
            <g>
              <g>
                <path class="cls-8" d="M715.37,336.21h.6c-.05.36.03,3.36.9,3.61l18.34-1.8c-.44.98-.77,2.62-1.2,3.61-2.53,5.77-4.72,11.68-7.22,17.44-1.18,2.72-6.23,16.1-7.22,17.14-2.78,2.93-17.93,4.19-22.55,5.71-1.69-.61,3.56-12.73,4.51-15.03.39-.94,5.3-8.89,3.91-9.62-10.24,2.09-9.79-.09-14.73,8.42-1.32,2.27-4.93,11.04-6.31,12.03-1.05.75-24.16,5.5-25.25,4.81l-.3-1.5c-.05-1.06,6.23-9.99,7.22-11.73,1.97,1.92-6.32,11.07-4.51,12.03l21.65-4.21c1.67-.97,15.75-29.67,18.34-33.97.17-.28,2.87-2.35,4.21-4.51l9.62-2.41Z"/>
                <path class="cls-8" d="M709.36,331.4c-1.53,2.38-2.45,5.35-3.61,7.22-1.34,2.16-4.04,4.23-4.21,4.51-2.59,4.3-16.67,33.01-18.34,33.97l-21.65,4.21c-1.81-.95,6.48-10.1,4.51-12.03,2.62-4.59,5.06-9.31,7.82-13.83,1.81-2.97,3.58-6.08,5.41-9.02,3.53-5.66,7.78-11.19,11.42-16.84,6.55,2.52,12.15.29,18.64,1.8Z"/>
                <path class="cls-111" d="M756.86,291.11c-1.29,3.44-2.61,6.92-4.21,10.22-.82-.1-1.72-1.88-3.31-1.8-1.88.09-9.84,3.75-12.63,4.21-8.23,1.36-17.76,1.11-25.25,4.21l-.3-2.41c2.6-3.46,2.44-7.49,3.31-8.42,3.25-3.51,40.3-11.83,41.79-9.92l.6,3.91Z"/>
                <path class="cls-51" d="M756.86,291.11l-.6-3.91c-1.49-1.91-38.54,6.41-41.79,9.92-.86.93-.71,4.96-3.31,8.42-1.48,1.97-5.85,6.05-8.42,5.41,1.46-2.29,3.96-5.16,4.21-7.82,2.4-2.88,3.52-5.57,6.91-7.82,4.51-2.98,40.86-12.17,43.89-10.82,3.64,1.62-.22,4.8-.9,6.61Z"/>
                <path class="cls-10" d="M746.64,313.36c-.89,3.08-2.26,6.13-3.61,9.02-.66,1.41-1.18,2.88-1.8,4.21-1.78,3.81-4.3,7.56-6.01,11.42l-18.34,1.8c-.87-.24-.95-3.25-.9-3.61.15-1.08,8.26-19.06,9.02-19.84.97-.99,10.03-2.84,11.73-3.01,2.89-.29,7.53,2.51,9.92,0Z"/>
                <path class="cls-36" d="M724.39,315.77c-7.81.99-9.72,7.76-13.23,13.23-.36.56-1.21,1.49-1.8,2.41-6.49-1.52-12.09.72-18.64-1.8.98-1.52,2.17-2.92,3.01-4.21.42,1.59,5.42-1.76,5.71-1.8,1.64-.24,2.27,1.83,4.81,1.2l13.83-9.62c1.84,2.77,3.9-1.17,6.61-.6.67.42-.31.57-.3,1.2Z"/>
                <path class="cls-107" d="M752.65,301.34c-1.26,2.6-4.51,10.44-6.01,12.03-2.39,2.51-7.03-.29-9.92,0-1.69.17-10.76,2.02-11.73,3.01.11-.7-.6-.56-.6-.6-.01-.64.97-.78.3-1.2-2.72-.57-4.77,3.37-6.61.6l-13.83,9.62c-2.54.63-3.17-1.44-4.81-1.2-.3.04-5.29,3.39-5.71,1.8,3.08-4.75,5.98-9.66,9.02-14.43,2.57.63,6.94-3.45,8.42-5.41l.3,2.41c7.5-3.1,17.03-2.85,25.25-4.21,2.79-.46,10.74-4.12,12.63-4.21,1.58-.08,2.48,1.71,3.31,1.8Z"/>
              </g>
              <g>
                <path class="cls-47" d="M802.56,313.36c3.1.87,9.29-2.21,12.33-2.41,4.28-.27,8.26.79,12.33,1.8-.1.82-1.93,5.71-2.41,6.61-7.06,13.47-31.91,22.55-45.7,26.76-.55,1.33,9.51,20.11,10.82,23.15.88,2.04,4.16,6.1,2.1,7.82-.74.62-17.73,5.74-18.64,5.41l-12.03-25.25c-1.13.11-6.46,16.47-8.42,18.04-2.66,2.13-15.87,3.71-19.84,4.81l7.52-20.44c1.11,5.04-4.81,13.01-6.01,18.34.36,1.4,15.85-2.71,17.14-3.91,5.54-5.14,9.27-26,14.13-33.07l7.82-12.63c5.52,1.74,30.34-6.38,25.86-14.13-2.6-4.49-14.97-.92-18.64,1.5,3.81-4.64,12.42-5.97,18.34-4.81.4.08,1.35,1.86,3.31,2.41Z"/>
                <path class="cls-8" d="M765.88,341.02c-4.86,7.07-8.59,27.93-14.13,33.07-1.29,1.2-16.78,5.3-17.14,3.91,1.2-5.33,7.13-13.29,6.01-18.34-.12-.55.07-1.23,0-1.8,2.98-1.92,8.73-17.51,10.22-21.65,2.07-3.09,3.16-6.34,4.81-9.62.74,3.97,13.08,2.27,13.83,3.31l-3.61,11.12Z"/>
                <path class="cls-22" d="M835.03,312.16c-.72,3.08-2.59,6.32-4.21,9.02-.64-3.36-3.37-2.79-6.01-1.8.47-.9,2.3-5.8,2.41-6.61.59-4.71-.09-6.82-1.8-10.82-4.45-10.4-31.1-8.76-41.79-7.22-5.31.76-14.24,2.68-17.14,7.22-1.03,1.62-2.05,5.27-3.01,7.22-.32.66-1.06,1.51-1.2,1.8-.25-2.54.68-6.2,1.8-8.42,2.86-5.64,6.32-6.24,12.33-7.82,11.37-2.98,43.88-6.5,50.81,5.71,3.4,6-1.73,8.27,9.02,7.22-.94,1.29-.86,3.04-1.2,4.51Z"/>
                <path class="cls-107" d="M825.41,301.94c1.72,4.01,2.4,6.12,1.8,10.82-4.07-1.01-8.05-2.07-12.33-1.8-3.04.19-9.23,3.27-12.33,2.41-1.33-8.56-16.12-6.29-23.15-6.61-1.44-.07-6.85-1.86-7.22-1.8-.5.07-5.68,6.04-8.72,4.21.96-1.95,1.97-5.59,3.01-7.22,17.33-5.94,43.19-11.14,58.93,0Z"/>
                <path class="cls-95" d="M802.56,313.36c-1.96-.55-2.91-2.33-3.31-2.41-5.92-1.16-14.53.17-18.34,4.81-3.1,3.77-4.41,8.68-7.22,12.63l-7.82,12.63,3.61-11.12c-.75-1.04-13.09.66-13.83-3.31,2.52-5.02,4.2-10.62,6.61-15.63.14-.29.88-1.14,1.2-1.8,3.04,1.83,8.22-4.14,8.72-4.21.37-.05,5.78,1.74,7.22,1.8,7.03.32,21.82-1.95,23.15,6.61Z"/>
                <path class="cls-126" d="M825.41,301.94c-15.74-11.14-41.59-5.94-58.93,0,2.89-4.53,11.83-6.45,17.14-7.22,10.69-1.54,37.34-3.18,41.79,7.22Z"/>
              </g>
            </g>
          </g>
        </g>
        <g>
          <g>
            <g>
              <path class="cls-77" d="M538.59,294.72l-61.63,85.38-22.55,3.31c-1.49-1.82,14.74-26.11,16.84-29.76-.72,4.7,12.61,5.55,15.33,4.81,1.32-.36,13.65-19.46,15.93-22.25,1.78-2.17,2.84-.41,4.21-2.1,10.24-12.66,18.68-26.81,29.76-38.78.46-.5,1.62-2.06,2.1-.6Z"/>
              <path class="cls-81" d="M495.3,291.11c-2.53-.11-1.82-.41-2.41,1.5-2.6,8.49-1.27,21.52-.6,30.37-.85,1.16-1.58,2.48-2.41,3.61-2.38,3.27-5.46,6.37-7.82,9.62-6.79-1.85-3.23-3.75-4.81-7.52-.41-.99-1.6.65-1.8,0-1.43-4.45-.52-9.41-1.2-13.83-.18-1.18-1.76-3.41-1.8-3.61-.19-.99.89-7.54-1.8-5.71-.05-.59.04-1.21,0-1.8,2.92.39.9-8.02-.6-7.82,1.34-2.53,21.12-7.15,23.75-6.61.38.08,1.26,1.35,1.5,1.8Z"/>
              <path class="cls-81" d="M538.59,294.72c-.49-1.46-1.64.1-2.1.6-11.08,11.98-19.52,26.12-29.76,38.78-1.37,1.7-2.43-.06-4.21,2.1-5.84-2.78-19.36.47-12.63-9.62.82-1.13,1.55-2.45,2.41-3.61,1.61-2.19,3.18-4.43,4.81-6.61.9-1.21,1.77-2.72,3.01-3.61-.71,1.41-1.96,3.82-2.1,5.41,1.47-2.26,4.28-.68,6.01-1.2,5.92-1.8,3.61-2.89,12.63-3.01.45,0-.07,1.39,1.2,1.2,1.16-.17,11.8-16.14,14.13-18.64,1.09-1.17,4.8-1.86,4.21-4.81,1.75.35,4.18.99,2.41,3.01Z"/>
              <path class="cls-118" d="M502.51,336.21c-2.28,2.79-14.61,21.89-15.93,22.25-2.73.74-16.06-.11-15.33-4.81,1.62-2.82,4.27-4.52,3.01-7.82,3.87-.7,5.76-6.79,7.82-9.62,2.36-3.25,5.44-6.35,7.82-9.62-6.73,10.09,6.79,6.84,12.63,9.62Z"/>
              <path class="cls-6" d="M531.98,296.53c-2.33,2.5-12.97,18.47-14.13,18.64-1.27.19-.76-1.21-1.2-1.2-9.02.12-6.71,1.21-12.63,3.01-1.73.52-4.55-1.06-6.01,1.2.15-1.59,1.39-4.01,2.1-5.41,2.01-3.99,4.53-7.31,7.22-10.82,3.55,1.01,6.33-5.87,9.32-6.61s12.6-.3,15.33,1.2Z"/>
              <path class="cls-81" d="M482.07,336.21c-2.05,2.83-3.95,8.92-7.82,9.62v-.6c.8-6.37-1.8-24.81-2.41-32.47-.17-2.14-1.03-5.08-1.2-7.22,2.69-1.83,1.61,4.73,1.8,5.71.04.2,1.62,2.43,1.8,3.61.68,4.42-.22,9.38,1.2,13.83.21.65,1.39-.99,1.8,0,1.58,3.77-1.98,5.66,4.81,7.52Z"/>
              <path class="cls-71" d="M495.3,291.11c3.03,5.73-.31,18.81,1.8,25.25-1.63,2.18-3.2,4.42-4.81,6.61-.67-8.84-2-21.88.6-30.37.59-1.91-.12-1.61,2.41-1.5Z"/>
              <path class="cls-6" d="M536.19,291.72c.59,2.95-3.12,3.64-4.21,4.81-2.74-1.5-12.48-1.91-15.33-1.2-2.99.74-5.77,7.62-9.32,6.61,1.67-2.18,6.37-9.62,8.72-10.22,1.36-.34,18.52-.32,20.14,0Z"/>
              <path class="cls-6" d="M470.65,303.74c-.17-2.26-1.66-5.83-.6-7.82,1.51-.21,3.53,8.21.6,7.82Z"/>
            </g>
            <g>
              <path class="cls-77" d="M453.21,325.99c-2.05,2.04-5.59,5.67-7.82,7.22-9.7,6.74-21.45,10.83-32.77,13.83l-.9.9c.25.39,1.17,1.99,1.2,2.1,2.31,8.89,9.62,18.21,13.23,26.76-.12,2.27-17.14,6.8-20.14,7.52l-12.03-25.25c-1.7.17-6.83,17.02-9.02,18.64-2.84,2.11-16.44,2.72-20.44,4.81-1.5-.98,5.94-15.85,6.91-18.04,1.25-2.8,6.44-13.02,6.61-15.03,1.34-2.26,2.53-4.82,3.61-7.22l13.83.6c-.6,3.76-1.88,7.55-1.5,11.42,1.3-1.5,4.66-11.56,5.41-12.03.85-.53,16.59-2.16,19.84-3.01,14.51-3.79,31.31-10.72,39.38-24.05-.87,4.49-3.14,7.1-5.41,10.82Z"/>
              <path class="cls-6" d="M453.81,300.13c.11.3-.03.69.6.6.06.04.52,1.13.6,1.2-3.43,2.07-9.46-.39-12.93.6-1.2.34-4.75,5.94-6.61,6.01-.54.02-4.73-2.78-6.61-3.01-3.07-.37-10.93-.26-13.83.6-9.74,2.89-9.44,21.47-23.75,14.43,2.35-4.96,5.96-15.49,9.02-19.24,13.61-3.04,41.14-7.99,53.52-1.2Z"/>
              <path class="cls-33" d="M453.81,300.13c-12.37-6.79-39.9-1.84-53.52,1.2,4.64-5.68,30.72-9.12,38.18-8.42,4.01.38,13.85,3.16,15.33,7.22Z"/>
              <path class="cls-118" d="M395.48,342.83l-13.83-.6c1.98-4.41,4.04-8.82,6.01-13.23,1.73,2.67,3.25-.26,5.11,0,7.51,1.06,3.44,9.19,2.71,13.83Z"/>
              <g>
                <path class="cls-81" d="M458.62,315.17c-8.08,13.34-24.87,20.26-39.38,24.05-3.25.85-18.99,2.48-19.84,3.01-.75.46-4.11,10.53-5.41,12.03-.38-3.87.91-7.66,1.5-11.42.74-4.64,4.81-12.77-2.71-13.83-1.86-.26-3.38,2.67-5.11,0,1.24-2.77,2.3-5.66,3.61-8.42,14.31,7.03,14.01-11.54,23.75-14.43,2.9-.86,10.76-.97,13.83-.6,1.89.22,6.08,3.03,6.61,3.01,1.86-.08,5.42-5.67,6.61-6.01,3.47-1,9.5,1.47,12.93-.6,5.03,4.49,4.99,6.13,3.61,13.23Z"/>
                <path class="cls-117" d="M411.72,321.18c1.99.2,2.4-.34.6-1.2,7.2-9.01,28.94-7.81,16.54,2.41-5.16,4.25-15.9,7.04-22.25,9.02l5.11-10.22Z"/>
                <path class="cls-125" d="M411.72,321.18c.08-.32.44-1,.6-1.2,1.8.86,1.39,1.4-.6,1.2Z"/>
              </g>
            </g>
          </g>
          <g>
            <g>
              <path class="cls-118" d="M285.45,327.19c-1.2,2.4-2.52,4.76-3.61,7.22-1.31.69-2.35,2.39-3.01,3.61l-2.41-.9c-5.82,9.18-13.75,16.8-20.44,25.25-2.18,2.75-13.01,19.64-14.13,20.14-7.59,3.42-.77-4.84-1.5-7.82,8.43-19.13,19.72-37.89,26.76-57.12l-21.65,2.41c-.11-2.38.57-4.71,2.71-6.01l64.04-8.42,11.12-12.63c-.16,1.17-7.89,16.38-8.72,16.84-3.49,1.91-18,1.28-21.65,3.01-1.83.87-6.27,11.94-7.52,14.43Z"/>
              <path class="cls-6" d="M322.12,291.11c.59.18,1.19.66,1.8.9.37.87-.59.85-.6.9l-11.12,12.63-64.04,8.42c.85-2.89,5.2-11.7,7.22-13.23.6.08.5-.24.6-.6,7.12-3.7,25.17-2.12,33.37-5.41,2.28.26-.2,2.19-1.5,2.1,1.95,2.12,5.02-1.48,6.91-2.71l24.95-3.01c.2.02.4-.02.6,0,.58.07,1.36-.14,1.8,0Z"/>
              <path class="cls-77" d="M278.83,338.02c-3.24,6.05-16.45,38.38-19.54,40.29-.98.6-21.35,6.74-22.25,6.01-.93-3.18,1.98-6.61,3.31-9.62.73,2.98-6.09,11.24,1.5,7.82,1.12-.51,11.95-17.39,14.13-20.14,6.69-8.46,14.63-16.08,20.44-25.25l2.41.9Z"/>
              <path class="cls-33" d="M319.72,291.11l-24.95,3.01c-1.89,1.23-4.97,4.83-6.91,2.71,1.31.08,3.78-1.85,1.5-2.1-8.2,3.29-26.26,1.71-33.37,5.41,1.65-5.75,24.3-4.77,29.76-5.41,11.29-1.33,22.42-4.59,33.97-3.61Z"/>
            </g>
            <g>
              <path class="cls-76" d="M372.03,334.41c-1.21,3.28-5.79,10.9-6.01,13.23-.02.18-.02.42,0,.6-.85,1.4-2.78,2.42-3.61,3.61-3.35-5.93-3.42.45-4.21,1.5-1.33,1.78-7.27,6.95-2.41,8.12-.05.19.03.41,0,.6-20.47,25.67-65.57,34.92-52.31-13.83.79-2.91,3.51-7.8,4.81-10.82-.46,8.39-3.13,15.9-1.2,24.65,2.11,9.54,10.75,14.41,20.14,12.03,3.15-.8,4.4-3.03,7.52-4.81,11.81-6.75,18.64-14.21,27.06-24.65.04-.05.32,1.42,1.2.3,2.72-3.46,4.3-8.69,6.91-12.33l2.1,1.8Z"/>
              <path class="cls-71" d="M355.2,292.32c4.17-.19,11.84.13,15.63,1.8.04.02-.1.18.6.6.04.02.42.43.6.6.03.03-.08.71.6.6,3.52,4.53,4.45,8.11,4.81,13.83.07,1.18.02,2.43,0,3.61-.06,3.2-.52,7.12-1.2,10.22-.72,3.28-3.01,7.58-4.21,10.82l-2.1-1.8c-2.61,3.64-4.2,8.87-6.91,12.33-.88,1.12-1.16-.35-1.2-.3,25.03-35.19.68-71.35-34.27-32.77-.95,1.05-9.86,15.58-11.42,12.63l.6-2.71c.59-.89,1.38-3.02,1.8-3.61,5.84-7.99,18.34-19.44,27.66-22.85.3-.11.69.03.6-.6.38-.06.82.05,1.2,0,.45-.06.67-.08.6-.6.19-.04.42.05.6,0,1.13-.31,1.14-.58,1.2-.6.38-.14,1.24.33,1.2-.6.19-.04.41.04.6,0,1.02-.2,1.71-.59,1.8-.6.39-.04.81.02,1.2,0Z"/>
              <path class="cls-102" d="M376.84,323.58c-2.14,7.28-4.63,13.84-8.42,20.44-.7,1.23-.96,2.91-2.41,3.61.23-2.33,4.8-9.95,6.01-13.23s3.49-7.54,4.21-10.82h.6Z"/>
              <path class="cls-33" d="M370.83,294.12c-3.79-1.68-11.47-1.99-15.63-1.8,6.13-2.21,10.49-1.91,15.63,1.8Z"/>
              <path class="cls-33" d="M377.44,313.36c.02-1.18.07-2.43,0-3.61v3.61Z"/>
              <path class="cls-33" d="M322.12,291.11c-.45-.14-1.23.07-1.8,0h1.8Z"/>
              <path class="cls-33" d="M353.99,292.32c-.09,0-.79.4-1.8.6l1.8-.6Z"/>
              <path class="cls-33" d="M351.59,292.92c.03.93-.83.46-1.2.6.06-.03-.07-.32,1.2-.6Z"/>
              <path class="cls-33" d="M350.39,293.52c-.06.02-.07.29-1.2.6-.04-.94.86-.46,1.2-.6Z"/>
              <path class="cls-33" d="M347.98,294.72c-.07-.57.2-.51.6-.6.06.53-.15.54-.6.6Z"/>
              <path class="cls-33" d="M371.43,294.72c-.7-.42-.56-.58-.6-.6.51.37.55.56.6.6Z"/>
              <path class="cls-33" d="M853.67,340.42c-.2,0-.4,0-.6,0,.19-.8.56-.83.6,0Z"/>
              <path class="cls-33" d="M346.18,295.32c-.07-.54.16-.53.6-.6.08.63-.3.49-.6.6Z"/>
              <path class="cls-33" d="M372.03,295.32c-.18-.17-.56-.58-.6-.6.27.23.37.36.6.6Z"/>
              <path class="cls-33" d="M372.63,295.93c-.68.11-.57-.57-.6-.6.1.11.26.17.6.6Z"/>
              <path class="cls-33" d="M836.23,357.86h-1.2c.22-.29.4-.95.9-1.2.55.17.19,1.08.3,1.2Z"/>
              <path class="cls-33" d="M854.27,319.98l-.9.6c-.99-1,.28-1.15.3-1.2l.6.6Z"/>
              <path class="cls-33" d="M623.37,333.21c-.37-1.15.5-1.07.6-1.2-.2.42-.44.85-.6,1.2Z"/>
              <path class="cls-33" d="M454.41,300.74c-.63.08-.49-.3-.6-.6.74.41.57.58.6.6Z"/>
              <path class="cls-33" d="M255.38,300.74s-.16-.21.6-.6c-.1.36,0,.68-.6.6Z"/>
              <path class="cls-118" d="M334.75,369.28c-3.11,1.78-4.37,4.01-7.52,4.81-9.39,2.39-18.04-2.48-20.14-12.03,3.31-1.99.08-4.49,5.11-4.81,1.4,10.83,6.49,14.65,17.44,13.23,1.19-.15,3.86-2.74,5.11-1.2Z"/>
              <path class="cls-41" d="M362.41,351.85c-.24.35-.58,2.15-1.2,3.01-.86,1.17-5.28,6.06-5.41,6.61-4.86-1.17,1.07-6.33,2.41-8.12.79-1.06.86-7.44,4.21-1.5Z"/>
              <g>
                <path class="cls-61" d="M361.81,344.63c-8.41,10.44-15.25,17.91-27.06,24.65-1.26-1.53-3.92,1.05-5.11,1.2-10.95,1.42-16.03-2.4-17.44-13.23-5.04.32-1.8,2.82-5.11,4.81-1.93-8.75.74-16.26,1.2-24.65,2.57-5.97,4.82-10.22,8.42-15.63l-.6,2.71c1.57,2.95,10.47-11.58,11.42-12.63,34.96-38.58,59.31-2.42,34.27,32.77Z"/>
                <g>
                  <path class="cls-26" d="M341.97,347.04c-.09.31.04.82,0,1.2-2,2.27-2.21,4.08-5.41,5.41-5.17,2.15-3.6-3.53-9.92-1.2l.3-.9c-3.3-1.61-1.44,2.34-3.61,3.91,0-4.86-.07-6.8,1.2-11.42.02-.06.28-.27.6-1.2.02-.06.33-.51.6-1.2,5.83.98,12.29.84,16.24,5.41Z"/>
                  <path class="cls-51" d="M336.56,353.65c-3.52,3.76-9.27,7.14-13.23,3.01v-1.2c2.17-1.57.31-5.51,3.61-3.91l-.3.9c6.32-2.33,4.75,3.36,9.92,1.2Z"/>
                  <g>
                    <path class="cls-63" d="M352.79,315.17l-.6.6c-8.3-2.04-21.35,15.74-24.65,22.25-.59,1.17-1.33,2.39-1.8,3.61-.27.69-.58,1.14-.6,1.2l-.6-.9v2.1c-1.28,4.62-1.2,6.57-1.2,11.42v1.2c-8.73-9.11,8.89-35.07,17.74-40.29,4.46-2.63,7.98-3.67,11.73-1.2Z"/>
                    <path class="cls-102" d="M341.97,348.24c.04-.39-.09-.89,0-1.2.48-1.71,6.83-9.81,8.42-13.23s7.76-16.57,1.8-18.04l.6-.6c8.67,5.71-5.74,27.31-10.82,33.07Z"/>
                    <path class="cls-102" d="M325.13,342.83c-.32.93-.58,1.14-.6,1.2v-2.1l.6.9Z"/>
                  </g>
                  <path class="cls-14" d="M352.19,315.77c5.96,1.47-.27,14.73-1.8,18.04-2.48-1.66-5.08-4.39-7.52-3.61-.69.22-7.31,7.3-9.02,7.82-1.45.44-4.59-.32-6.31,0,3.3-6.5,16.35-24.29,24.65-22.25Z"/>
                  <g>
                    <path class="cls-117" d="M350.39,333.81c-1.59,3.42-7.94,11.52-8.42,13.23-3.95-4.57-10.41-4.44-16.24-5.41.48-1.21,1.21-2.44,1.8-3.61,1.72-.32,4.86.44,6.31,0,1.71-.52,8.33-7.6,9.02-7.82,2.43-.78,5.04,1.95,7.52,3.61Z"/>
                    <path class="cls-105" d="M342.27,335.01c.5-.29,1.51.78,1.5.9-.11,1.4-3.4.19-1.5-.9Z"/>
                  </g>
                </g>
              </g>
            </g>
          </g>
        </g>
      </g>
      <g id="Generative_Object-4" data-name="Generative Object">
        <g>
          <path class="cls-106" d="M248.77,311.56c16.49-6.34,33.71-10.55,51.41-12.03,2.79-.23,16.98.76,17.74.3.34-.21,2.54-6.44,3.61-7.22-22.46-1.42-45.07,5.66-67.35,9.32,22.59-8.03,46.75-10.58,70.65-12.03.99.58-9.04,20.01-9.92,20.74-2.54,2.11-17.62.14-21.95,2.1-3.36,1.53-28.43,55.51-33.37,63.44-.36.57.64,1.15.6,1.2-2.68,3.77-17.96,5.17-22.55,6.91l30.97-66.44c-.31-2.63-22.47,5.31-24.95,6.31-2.62-.41,4.74-11.94,5.11-12.63Z"/>
          <path class="cls-50" d="M526.57,310.36c-9.17,12.48-18.35,24.9-27.66,37.28-.8-.26-3.85,2.59-4.21,3.01-6.59-1.71-14.92,3.3-20.44-1.8.12-.48-.05-1.22,0-1.8.99,1.01,1.93-.83,2.41-1.5,2.96-4.16,5.5-9.22,8.42-13.53,2.48-3.66,5.18-7.26,7.82-10.82,2.39-1.24,8.18,6.01,8.72,6.01.84,0,11.09-10.99,11.73-12.03,1.19-.03,5.37,1.59,6.31,1.2,2.3-.94,4.15-7.68,6.91-6.01Z"/>
          <path class="cls-121" d="M526.57,310.36c-2.77-1.66-4.61,5.08-6.91,6.01-.94.38-5.12-1.24-6.31-1.2.57-.91,1.81-1.71.9-3.01-2.35-.67-8.13-5.73-10.22-5.41-1.38.21-9.11,11.35-10.52,13.23-.38-1.85,1.05-6.14-1.2-6.01,2.1-2.32,1.09-6.79,1.2-10.22.13-3.81-.28-7.65,0-11.42.12.02,1.21-1.59,2.41.3l-.6,19.24,2.1.3,12.03-20.44,30.67-.6c2.07.76-12.6,17.97-13.53,19.24Z"/>
          <path class="cls-87" d="M248.77,311.56c1.4-2.63,1.87-8.88,5.41-9.62,22.27-3.66,44.88-10.74,67.35-9.32-1.06.78-3.26,7.01-3.61,7.22-.76.46-14.95-.53-17.74-.3-17.7,1.47-34.92,5.69-51.41,12.03Z"/>
          <path class="cls-70" d="M498.91,347.64c-3.5,4.66-20.05,29.71-22.55,31.27-2.11,1.32-21.02,5.15-22.85,4.21-.86-1.08,1.18-2.28,1.5-3.01,6.15-1.48,10.7-16.83,14.13-18.64,2.57-1.36,10.9,1.63,12.63,3.61,1.31-1.45,5.16-3.26,6.31-4.51,1.08-1.17,4.55-7.53,6.61-9.92.36-.42,3.41-3.27,4.21-3.01Z"/>
          <path class="cls-88" d="M490.49,292.32c-2.76,4.19-3.15,9.7-4.21,14.43-.55,2.47-1.23,4.79-1.8,7.22-4.48.67-8.7,1.83-13.23.6-.06-.79.05-1.61,0-2.41-.33-5.31-.94-10.58-.6-15.93.59-2.1,16.85-3.86,19.84-3.91Z"/>
          <path class="cls-79" d="M494.7,350.64c-2.06,2.39-5.54,8.75-6.61,9.92-1.16,1.25-5,3.05-6.31,4.51-1.72-1.98-10.06-4.96-12.63-3.61-3.43,1.81-7.98,17.16-14.13,18.64,2.15-4.81,5.11-9.92,7.82-14.43,1.76-2.93,10.94-14.95,11.42-16.84,5.53,5.11,13.86.09,20.44,1.8Z"/>
          <g>
            <path class="cls-98" d="M378.65,319.98c-4.82,23.51-30.72,60.4-56.22,62.53-23.93,2-23.9-15.07-19.54-33.07,6.49,1.58,8.48-1.37,12.93-3.61.9-.45,2.02,1.01,3.01.6.9-.37,6.24-14.1,8.72-17.44,4.8-6.45,14.52-14.92,22.85-13.23-24.39.37-43.15,72.43-7.22,29.76,4.65-5.52,18.54-24.2,9.02-29.16,1.45-2.54,5.95,1.81,6.31,1.8.19,0,1.55-2.13,3.01-2.41,4.88-.91,7.88-.7,12.63-3.01.51-.25-.25-2.65,3.01-1.8l-.9,11.73,2.41-2.71Z"/>
            <path class="cls-54" d="M379.85,308.55c.3,4.28-.37,7.36-1.2,11.42l-2.41,2.71.9-11.73c-3.26-.84-2.5,1.56-3.01,1.8-4.75,2.3-7.74,2.09-12.63,3.01-1.45.27-2.81,2.4-3.01,2.41-.36.01-4.86-4.35-6.31-1.8-.76-.4-.98-.43-1.8-.6-8.33-1.69-18.04,6.78-22.85,13.23-3.68-1.9-8.55,11.39-9.32,11.42-2.91-.63,2.28-6.04.6-6.61l-3.61,7.22c-2.82-3.51-5.66-2.08-7.52-5.41,4.09-8.92,9.17-16.17,15.63-23.45,2.46.64,6.36-2,8.12-2.41.17-.04,1.59,1.81,1.8,1.8.46-.02,6.06-4.17,7.82-4.81,3.35-1.23,7.37-2.9,10.82-3.61,5.08-1.04,18.83-.2,20.74-3.91.06-.12-2.53-2.28-.3-2.71,1.5-.29,4.02,4.59,4.51,5.71.77,1.77-.11,7.66,3.01,6.31Z"/>
            <path class="cls-99" d="M379.85,308.55c-3.12,1.35-2.23-4.54-3.01-6.31-.49-1.12-3.01-6-4.51-5.71-2.23.43.36,2.58.3,2.71-1.92,3.7-15.67,2.87-20.74,3.91-3.45.71-7.47,2.38-10.82,3.61-1.76.64-7.36,4.79-7.82,4.81-.22,0-1.63-1.84-1.8-1.8-1.76.41-5.66,3.05-8.12,2.41,10.55-11.88,23.08-21.65,39.99-20.44,5.51.39,12.34,3.43,14.73,8.72.73,1.61,1.68,6.28,1.8,8.12Z"/>
            <path class="cls-123" d="M327.54,329c-2.48,3.33-7.82,17.06-8.72,17.44-.99.41-2.11-1.05-3.01-.6-4.45,2.23-6.44,5.19-12.93,3.61,1.21-4.99,2.68-9.19,4.81-13.83,1.86,3.33,4.69,1.9,7.52,5.41l3.61-7.22c1.68.57-3.51,5.98-.6,6.61.77-.04,5.64-13.33,9.32-11.42Z"/>
          </g>
          <path class="cls-88" d="M493.49,292.32c-.28,3.78.13,7.62,0,11.42l-7.22,3.01c1.06-4.73,1.45-10.24,4.21-14.43,1.2-.02.84-.41,3.01,0Z"/>
          <path class="cls-1" d="M350.39,315.77c.83.17,1.04.2,1.8.6,9.52,4.96-4.37,23.64-9.02,29.16-35.94,42.66-17.17-29.39,7.22-29.76Z"/>
          <path class="cls-17" d="M492.29,313.96c2.26-.12.82,4.16,1.2,6.01-.59.78-.56,1.15-.6,1.2-2.63,3.56-5.34,7.16-7.82,10.82l-7.52-3.01-5.11,1.2c-.14-1.98.1-4.03,0-6.01,1.07-.06,9.85-4.51,11.42-5.41,1.18-.67,8.09-4.45,8.42-4.81Z"/>
          <path class="cls-46" d="M485.08,332c-2.92,4.31-5.46,9.37-8.42,13.53-.48.67-1.42,2.52-2.41,1.5.39-4.22-1.47-12.15-1.8-16.84l5.11-1.2,7.52,3.01Z"/>
          <path class="cls-121" d="M484.48,313.96c-.38,1.62-.87,3.08-.6,4.81-1.58.9-10.35,5.36-11.42,5.41-.2.01-.41.01-.6,0,.31-3.25-.37-6.41-.6-9.62,4.53,1.23,8.75.07,13.23-.6Z"/>
          <path class="cls-121" d="M513.34,315.17c-.64,1.03-10.89,12.03-11.73,12.03-.54,0-6.33-7.25-8.72-6.01.04-.05.01-.42.6-1.2,1.41-1.88,9.14-13.02,10.52-13.23,2.09-.32,7.87,4.75,10.22,5.41.91,1.3-.34,2.09-.9,3.01Z"/>
          <path class="cls-121" d="M493.49,303.74c-.12,3.43.9,7.9-1.2,10.22-.33.36-7.24,4.14-8.42,4.81-.27-1.73.22-3.19.6-4.81.57-2.42,1.25-4.75,1.8-7.22l7.22-3.01Z"/>
          <g>
            <path class="cls-70" d="M409.31,352.45c4.83,7.89,7.45,17.26,13.23,24.65-5.31,2.38-10.64,4.78-15.93,7.22-1.12-.14-3.32-5.43-3.91-6.61-3.12-6.24-4.84-13.45-9.02-19.24,2-.98.96-1.07-.6-1.8.12-.15.44-2.8,1.5-3.61.64-.5,12.57-4.42,13.23-4.21-.34,2.1.64,2.2,1.5,3.61Z"/>
            <path class="cls-70" d="M393.08,356.66c1.56.74,2.6.83.6,1.8-2.42,2.08-7,12.72-7.22,16.24-3.58,5.83-14.55,4.52-20.74,7.22l-.6-1.2c1.28-3.2,2.71-6.4,3.91-9.62,2.42-6.5,5.09-12.87,7.82-19.24,6.39-1.14,11.51,1.75,14.13,7.22.48-.91,1.6-1.78,2.1-2.41Z"/>
            <path class="cls-88" d="M428.55,294.12c6.51-.39,10.74-.73,15.93,1.2.49.18,3.8.18,4.21.6.6.62-1.01,1.34-.9,1.5,1.37,2.12,3.51.47,6.31,2.1,1.69.98,4.66,5.61,5.11,7.52l-.6,8.72c-.14-1.09-1.28-.24-1.8-.9-.45-.57,1.02-1.13.3-1.5-1.8-.93-4.77.01-6.31-1.2,2.4-5.96-.62-2.62-1.5-3.61-.19-.22-2.13-4.56-2.71-5.11s-9.33-7.32-9.92-7.52c-1.31-.45-6.24.56-7.52.6-9.27.26-17.13,1.99-26.16,3.61-.64.31-1.13,1.42-1.5,1.8l-1.8-1.2c3.16-3.62,4.82-1.98,8.72-3.01,6.7-1.77,12.84-3.17,20.14-3.61Z"/>
            <path class="cls-139" d="M413.52,351.85c2.73,6.96,8.5,14.81,11.42,21.95.47,1.14.87,1.56,0,2.71-.48.22-1.92.38-2.41.6-5.78-7.4-8.4-16.77-13.23-24.65l4.21-.6Z"/>
            <path class="cls-85" d="M403.9,330.8c1.98-.14,4.62.64,9.02-.6.26,5.45,6.12,10.35,4.81,15.63-1.64.65-3.96.81-5.41,1.8-.54.57.84,3.28,1.2,4.21l-4.21.6c-.86-1.41-1.85-1.5-1.5-3.61-.66-.22-12.58,3.71-13.23,4.21-1.06.81-1.38,3.46-1.5,3.61-.5.63-1.62,1.49-2.1,2.41-2.62-5.47-7.74-8.36-14.13-7.22,3.3-7.71,6.56-14.2,10.22-21.65-.43,1.63,4.05,1.81,4.51,1.8,3.91-.01,8.38-.93,12.33-1.2Z"/>
            <path class="cls-75" d="M429.16,296.53c-.04,4.67,3.04,3.68,6.01,6.91.47.52,2.88,5.37,4.21,6.61.33.31,3.03.45,4.51,1.5,1.26.9.69,2.24,3.91,4.21-.15,2.25-12.8,13.2-13.53,12.63s-.03-2.42-.3-2.71c-1.31-1.38-2.64-.63-3.01-1.2-.99-1.55,1.95-4.36,0-4.51,6.46-7.39,2.54-7.89-5.71-7.22-14.04,1.14-14.71,7.71-21.35,18.04-3.95.27-8.42,1.19-12.33,1.2-.46,0-4.94-.18-4.51-1.8.41-.83.79-2.79,1.2-3.61,2.35-4.63,10.58-21.99,13.23-24.65.38-.38.86-1.5,1.5-1.8,9.03-1.62,16.89-3.34,26.16-3.61Z"/>
            <path class="cls-121" d="M450.8,312.16c-.36.9-2.21,2.26-2.41,3.61-.14-.09-.46.09-.6,0-3.22-1.97-2.65-3.31-3.91-4.21-1.48-1.06-4.18-1.2-4.51-1.5-1.32-1.24-3.74-6.1-4.21-6.61-2.97-3.24-6.05-2.24-6.01-6.91,1.28-.04,6.21-1.05,7.52-.6.59.2,9.37,6.99,9.92,7.52.58.55,2.51,4.9,2.71,5.11.89.99,3.9-2.36,1.5,3.61Z"/>
            <path class="cls-121" d="M458.62,315.77c.19,1.44-1.27,3.07-1.8,4.21-1.97.22-5.37-4.03-5.71-4.21-.48-.25-2.31.25-2.71,0,.2-1.34,2.04-2.71,2.41-3.61,1.55,1.21,4.52.27,6.31,1.2.72.37-.75.93-.3,1.5.53.67,1.66-.19,1.8.9Z"/>
            <path class="cls-50" d="M456.82,319.98c-6.49,14.01-25.81,20.6-39.08,25.86,1.31-5.28-4.55-10.18-4.81-15.63,5.27-1.49,14.46-6.13,18.04-10.22,1.95.15-.99,2.96,0,4.51.36.57,1.7-.18,3.01,1.2.27.28-.41,2.15.3,2.71s13.38-10.37,13.53-12.63c.15.09.46-.09.6,0,.4.25,2.23-.25,2.71,0,.34.18,3.75,4.42,5.71,4.21Z"/>
            <path class="cls-89" d="M430.96,319.98c-3.58,4.1-12.77,8.73-18.04,10.22-4.4,1.24-7.04.47-9.02.6,6.64-10.33,7.31-16.9,21.35-18.04,8.26-.67,12.17-.17,5.71,7.22Z"/>
          </g>
        </g>
        <g>
          <g>
            <path class="cls-101" d="M824.21,318.17c-5.77,14.3-30.09,24.7-44.2,28.26-.98,1.04.29,1.14.3,1.2.14,1.45,1.15,2.23,1.2,3.61-1.44-1.25-3.6-1.79-5.41-.6-.36-.46-.2-2.28-2.1-2.41-3.49,2.24-15.44,2.94-13.53,9.02-3.34,2.69-6.09,17.4-8.12,19.24-2.21,2.02-15.8,2.9-19.24,4.81-1.64-.06-.5-3.41-.3-4.21,1.51-5.99,6.78-13.33,7.82-19.84,5.39-10.81,9.92-22.13,15.03-33.07.74-1.59,1.64-3.17,2.41-4.81.02-.04.23.2.6-.6l17.44,1.2c-.54.77-5.86,10.93-5.11,11.42,7.82-1.38,19.69-5.35,25.56-10.82,2.27-.3,1.04,3.47,1.5,3.61.88.25,4.76-4.04,4.81,2.41,3.44-.5,11.79-12.33,12.63-12.63,2.07-.74,7.42,2.38,8.72,4.21Z"/>
            <path class="cls-13" d="M717.18,333.81c-.17.37,0,1.09-.6,2.41-.5-.39-2.33,2.54-2.41,2.71-1.67,3.44-4.36,12.32-6.01,14.73-3.26,4.75-9.45,1.25-14.13,3.61-2.43,1.23-7.18,13.95-9.32,16.84-.59.79-1.15,1.92-1.8,2.41-13.3-.52-.41-15.9-.6-17.14-.17-1.08-5.01-5.87-7.22-5.11,3.61-6.07,6.97-12.09,10.82-18.04,6.58.77,12.99-.52,19.24-1.2.59-.06,1.22.08,1.8,0,3.39-.44,6.86-.54,10.22-1.2Z"/>
            <path class="cls-83" d="M776.1,350.64c5.44,6.93,8.08,18.72,13.83,25.86-4.82,3.04-10.86,4.59-15.93,7.22l-13.53-26.46c-1.91-6.08,10.04-6.78,13.53-9.02,1.9.13,1.74,1.95,2.1,2.41Z"/>
            <path class="cls-5" d="M682.9,376.5c-2.36,1.74-8.98,2.27-12.03,3.01-1.55-5.1-4.62-.83-7.82-4.81,2.65-5.05,5.58-10.09,8.42-15.03,1.1-1.91,2.55-3.64,3.61-5.41,2.21-.76,7.05,4.03,7.22,5.11.19,1.24-12.7,16.61.6,17.14Z"/>
            <path class="cls-54" d="M781.52,351.24c.98.85,3.89,6.72,4.81,8.42s6.6,13.35,6.61,14.13c.04,2.72-1.79,1.94-3.01,2.71-5.75-7.14-8.39-18.93-13.83-25.86,1.82-1.19,3.97-.65,5.41.6Z"/>
            <path class="cls-121" d="M670.88,379.51c-3.67.88-7.22,2.8-11.12,3.01l-.6-1.2c1.4-2.12,2.73-4.37,3.91-6.61,3.2,3.98,6.26-.28,7.82,4.81Z"/>
            <path class="cls-39" d="M784.52,294.12c.25.65,3.41.89.3,1.8s-8.45,1.8-11.73,2.41c2.87-2.38,7.64-3.33,11.42-4.21Z"/>
            <path class="cls-34" d="M796.55,320.58c-5.87,5.47-17.73,9.44-25.56,10.82-.74-.49,4.57-10.66,5.11-11.42s2.25-3.45,2.41-3.61c5.47-5.58,32.78-9.53,18.04,4.21Z"/>
            <path class="cls-80" d="M778.51,316.37c-.15.15-1.86,2.84-2.41,3.61l-17.44-1.2c1.26-2.68,3.03-5.09,4.21-7.82,2.27-1.19,5.96,2.32,6.31,2.41,3.58.87,6.72-1.45,9.32,3.01Z"/>
            <g>
              <path class="cls-2" d="M823.01,296.53c4.88,6.46,4.09,14.49,1.2,21.65-1.3-1.83-6.64-4.95-8.72-4.21-.84.3-9.19,12.13-12.63,12.63-.05-6.44-3.93-2.15-4.81-2.41-.46-.13.76-3.91-1.5-3.61,14.74-13.74-12.57-9.78-18.04-4.21-2.6-4.46-5.74-2.14-9.32-3.01-.35-.08-4.04-3.6-6.31-2.41.46-1.07.41-1.91.6-2.41,3.91-3.29,2.84-8.66,8.42-9.62.44-.07.67-.06.6-.6.19-.04.41.04.6,0,3.27-.6,8.73-1.53,11.73-2.41s-.05-1.15-.3-1.8c1.16-.27,1.58-.47,3.01-.6.69-.06,1.75.37,1.8-.6.8-.02,1.61.02,2.41,0,.69-.02,1.76.33,1.8-.6,9.82-.24,20.91-1.65,29.46,4.21Z"/>
              <path class="cls-39" d="M793.54,292.32c-.05.93-1.11.58-1.8.6.05-.93,1.11-.58,1.8-.6Z"/>
              <path class="cls-39" d="M789.33,292.92c-.06.97-1.11.54-1.8.6.05-.93,1.11-.58,1.8-.6Z"/>
              <path class="cls-72" d="M796.85,294.12c3.22-2.25,7.93,4.08,9.92,6.31-3.45,4.29-13.98-3.48-9.92-6.31Z"/>
            </g>
            <path class="cls-24" d="M746.64,311.56c-5.09,11.69-10.24,23.36-15.03,35.18-1.76,4.35-8.08,25.16-9.62,27.06-1.35,1.67-22.15,6.36-22.85,5.41,2.87-8.62,6.16-17.17,9.62-25.56,2.38-5.77,5.19-11.75,7.82-17.44.61-1.32.43-2.03.6-2.41.06-.14,1.28-1.3,1.8-2.41,1.68-3.56,5.18-14.03,7.22-16.24,3.49-3.79,7.4-2.12,11.12-4.81l9.32,1.2Z"/>
            <path class="cls-52" d="M746.64,311.56l-9.32-1.2c-3.73,2.69-7.63,1.02-11.12,4.81-2.57-1.15-5.84.26-7.82,1.8-6.12-1.43-12.7,1.07-18.04-1.8,2.76-3.81,8.86-14.48,12.33-16.24,14.61-3.88,28.68-9.7,43.89-10.82,1.06.73-8.78,20.83-9.92,23.45Z"/>
            <path class="cls-35" d="M718.38,316.97c-4.12,3.21-8.87,14.07-13.23,18.04-6.25.68-12.66,1.97-19.24,1.2,4.59-7.09,9.48-14.21,14.43-21.05,5.34,2.87,11.92.38,18.04,1.8Z"/>
            <path class="cls-66" d="M716.58,336.21c-2.63,5.69-5.44,11.67-7.82,17.44h-.6c1.66-2.41,4.34-11.29,6.01-14.73.08-.16,1.91-3.09,2.41-2.71Z"/>
            <path class="cls-93" d="M718.98,331.4c-.52,1.11-1.74,2.27-1.8,2.41-3.37.66-6.83.76-10.22,1.2.11-1.64,16.51-25.05,17.44-18.34-1.43,4.73-5.42,10-5.41,14.73Z"/>
            <path class="cls-32" d="M726.2,315.17c-2.04,2.21-5.54,12.68-7.22,16.24-.01-4.73,3.99-10,5.41-14.73-.93-6.71-17.33,16.7-17.44,18.34-.58.08-1.22-.06-1.8,0,4.36-3.96,9.11-14.83,13.23-18.04,1.98-1.54,5.25-2.96,7.82-1.8Z"/>
          </g>
          <g>
            <path class="cls-83" d="M846.46,334.41c1.3.84-.2,2.41,3.61.6,3.35,2.64,1.54,7.3,6.61,6.01-.84-.04-1.57,1.65-1.8,1.8-.72.47-3.35,1.95-4.21,2.41-6.79,3.56-10.05,3.83-14.43,11.42-2.03,3.51-8.36,20.55-9.92,21.65-.88.62-20,5.09-21.05,4.81-1.05-1.13.47-4.35.9-5.71,2.01-6.34,6.24-15.01,9.02-21.35.42-.95,1.41-2.13,1.8-3.01,1.73,2.77,6.29,1.31,9.32,2.41l7.22,3.61,12.03-25.86c.49.17.84,1.16.9,1.2Z"/>
            <path class="cls-123" d="M856.08,317.57c-.37.66-.83,1.14-1.2,1.8-2.8,4.99-4.88,10.46-8.42,15.03-.06-.04-.42-1.03-.9-1.2l-12.03,25.86-7.22-3.61c-3.03-1.09-7.59.37-9.32-2.41,2.02-4.59,3.88-9.29,6.01-13.83,1.31-2.8,2.89-5.57,4.21-8.42,1.08,1.35,1.07,1.5,2.71.6,2.32-1.27,9.03-10.46,11.73-11.42,4.59-1.64,7.26,3.64,10.82-1.2l3.61-1.2Z"/>
            <path class="cls-120" d="M850.67,345.23c.69,3.11,2.96,5.63,4.21,8.42,2.43,5.42,5.82,12.91,7.82,18.34.5,1.35.46,1.5,0,2.71-2,.94-16.97,7.17-17.74,6.61l-8.72-24.65c4.39-7.59,7.64-7.86,14.43-11.42Z"/>
            <path class="cls-119" d="M871.11,289.91c.66,2.63-6.39,11.84-7.82,14.43.55-2.01-2.26-.74-3.01,0-6.92-4.4-13.42,11.26-18.64,15.03l-6.01-7.22c2.26-4.18,4.8-11.73,7.22-15.03,3.03-1.2,19.5-5.37,21.05-3.31.81,1.08-1.77,4.08.3,4.51,2.03-2.81,3.27-7.3,6.91-8.42Z"/>
            <path class="cls-42" d="M883.14,326.59c-7.34,3.02-19.4,12.64-26.46,14.43-5.08,1.29-3.26-3.37-6.61-6.01,5.49-2.61,13.81-9.12,19.24-12.63,1.2-.77,3.07-1.22,4.81-2.41,5.36,1.77,3.9,7.89,9.02,6.61Z"/>
            <path class="cls-54" d="M869.31,322.38c-5.44,3.51-13.75,10.02-19.24,12.63-3.81,1.81-2.3.23-3.61-.6,3.54-4.57,5.62-10.04,8.42-15.03.27,1.28.55.03.6,0,.99-.65,1.12-.96,2.41-1.2,3.48-.65,6.61.04,9.92-2.41,2.1,2.27,2.27,3.73,1.5,6.61Z"/>
            <path class="cls-119" d="M896.97,304.34c.02.99.02,2.01,0,3.01-3.09,1.44-2.34-2.89-5.71-1.8-.44.14-4.76,5.34-6.31,6.61-4.17,1.04-2.03-3.79-5.11-4.21-1.48-.2-7.46,4.35-9.02,5.41l-2.1-2.41c7.96-4.87,14.48-8.76,23.45-12.03.3-.11.69.03.6-.6.16-.04.44-.02.6,0,.63.09.7.72,1.5.6.43-.06,1.3-2.02,2.1-1.5.03,2.3-.05,4.62,0,6.91Z"/>
            <path class="cls-99" d="M884.94,312.16c-.54.44-1.18,1.32-1.8,1.8-2.93,2.26-5.97,3.95-9.02,6.01-1.74,1.18-3.61,1.63-4.81,2.41.77-2.88.6-4.34-1.5-6.61-3.31,2.45-6.44,1.75-9.92,2.41,2.9-3.4,7.14-4.96,10.82-7.22l2.1,2.41c1.56-1.06,7.54-5.61,9.02-5.41,3.08.41.95,5.25,5.11,4.21Z"/>
            <path class="cls-119" d="M896.97,307.35c-.08,3.39-1.2,7.1,0,10.22-.25.49,1.16.31-.3,1.8-1.32,1.35-5.13,2.61-6.91,3.61-5.45-1.25-1.25-8-6.61-9.02.62-.48,1.26-1.36,1.8-1.8,1.56-1.27,5.88-6.47,6.31-6.61,3.37-1.09,2.62,3.25,5.71,1.8Z"/>
            <path class="cls-54" d="M859.08,352.45c1.11,2.54,8.51,18.48,8.42,19.54-.22,2.6-3.52,2.1-4.81,2.71.46-1.2.5-1.35,0-2.71-2-5.43-5.39-12.92-7.82-18.34l4.21-1.2Z"/>
            <path class="cls-4" d="M889.75,322.98c-2.18,1.22-4.1,2.98-6.61,3.61-5.12,1.28-3.66-4.84-9.02-6.61,3.04-2.06,6.09-3.75,9.02-6.01,5.37,1.02,1.16,7.77,6.61,9.02Z"/>
            <path class="cls-54" d="M841.65,319.38v.6c-2.7.96-9.41,10.15-11.73,11.42-1.63.9-1.62.75-2.71-.6,1.71-3.71,3.78-7.44,4.81-11.42.73-1.39,1.66-2.79,2.41-4.21.37-.7.67-2.02,1.2-3.01l6.01,7.22Z"/>
            <path class="cls-33" d="M871.11,289.91c-3.65,1.11-4.88,5.61-6.91,8.42-2.07-.43.51-3.43-.3-4.51-1.55-2.07-18.01,2.11-21.05,3.31,4.5-6.16,20.34-7.21,27.96-8.42.54.28.2.81.3,1.2Z"/>
            <path class="cls-119" d="M854.87,342.83c1.43,3.19,2.81,6.42,4.21,9.62l-4.21,1.2c-1.25-2.79-3.52-5.3-4.21-8.42.86-.45,3.49-1.93,4.21-2.41Z"/>
            <path class="cls-80" d="M863.29,304.34c-2.42,4.4-4.74,8.85-7.22,13.23l-3.61,1.2c2.27-3.09,5.59-12.22,7.82-14.43.75-.74,3.56-2.01,3.01,0Z"/>
            <path class="cls-29" d="M898.77,303.74l-1.8.6c-.05-2.3.03-4.61,0-6.91-.81-.51-1.67,1.44-2.1,1.5-.8.12-.87-.51-1.5-.6l6.61-3.31c-.52,2.58-1.12,6.16-1.2,8.72Z"/>
            <path class="cls-33" d="M896.97,317.57c-1.2-3.12-.08-6.83,0-10.22.02-.99.02-2.01,0-3.01l1.8-.6c-.2,6.04.95,8.32-1.8,13.83Z"/>
            <path class="cls-29" d="M892.15,298.93c-.07-.58.2-.51.6-.6.08.63-.3.49-.6.6Z"/>
            <path class="cls-33" d="M771.9,298.93c-.07-.57.19-.51.6-.6.07.54-.17.53-.6.6Z"/>
            <path class="cls-33" d="M854.87,319.38h.6c-.05.03-.33,1.28-.6,0Z"/>
            <path class="cls-37" d="M827.21,330.8c-1.32,2.85-2.9,5.62-4.21,8.42v-1.8c3.11-5.93,5.89-12.08,9.02-18.04-1.03,3.98-3.1,7.72-4.81,11.42Z"/>
            <path class="cls-2" d="M860.29,304.34c-2.23,2.21-5.54,11.34-7.82,14.43-3.56,4.84-6.23-.43-10.82,1.2v-.6c5.22-3.77,11.72-19.44,18.64-15.03Z"/>
          </g>
          <g>
            <path class="cls-35" d="M688.92,303.74c.85,23.19-20.85,37.16-39.69,43.29-3.57-9.37-8.85-2.8-12.03,3.01-2.31.88-2.96.48-4.81,2.71-4.3,5.19-6.77,20-9.62,24.05-1.1,1.57-2.78,1.1-3.61,1.5l10.82-26.76-12.03-10.52c5.05-11.28,10.62-23,16.84-33.67,6.4,2.09,11.49.25,15.03,6.61-2.32,2.7-4.97,11.37-7.22,14.73,7.89,3.14,23.15-7.46,21.65-15.93l6.01-2.1c.06,4.63-1.22,9.02-3.01,13.23,2.82-1.83,4.31-.09,5.11-.3.7-.18,6.6-10.74,7.52-12.33,2.19-3.78,4.18-14.42,9.02-7.52Z"/>
            <path class="cls-12" d="M688.92,303.74c-4.84-6.91-6.83,3.74-9.02,7.52-.92,1.58-6.82,12.14-7.52,12.33-.8.21-2.29-1.53-5.11.3,1.79-4.21,3.06-8.6,3.01-13.23l-6.01,2.1c-.84-4.73-12.32-1.24-14.43,1.2-3.54-6.37-8.64-4.53-15.03-6.61,1.61-2.77,5.13-10.6,7.52-12.03,2.33-1.4,19.06-5.16,22.25-5.41,11.59-.9,23.82-.74,24.35,13.83Z"/>
            <path class="cls-25" d="M619.17,378.3c-2.26,1.11-16.2,5.63-17.44,3.91,4.77-14.01,10.19-27.7,16.24-41.19l12.03,10.52-10.82,26.76Z"/>
            <path class="cls-5" d="M649.23,347.04c-3.89,1.27-8.62,1.71-12.03,3.01,3.17-5.81,8.46-12.37,12.03-3.01Z"/>
            <path class="cls-34" d="M664.26,312.76c1.5,8.47-13.76,19.08-21.65,15.93,2.25-3.37,4.89-12.03,7.22-14.73,2.11-2.45,13.59-5.93,14.43-1.2Z"/>
          </g>
        </g>
      </g>
      <path class="cls-33" d="M325.78,359.69c-5.7-11.25,11.35-40.04,22.65-42.23,14.56-2.83,2.81,19.05-.37,24.35-4.51,7.5-12.22,19.07-22.28,17.88Z"/>
      <path class="cls-33" d="M772.45,330.71l8.34-16.56c39.4-9.43,9.64,15.44-8.34,16.56Z"/>
      <path class="cls-33" d="M405.27,331.84l8.34-16.56c39.4-9.43,9.64,15.44-8.34,16.56Z"/>
      <path class="cls-33" d="M725.1,315.04c.8.69-7.97,18.25-8.66,19.05-1.48,1.71-7.39,2.12-9.8,2.24-.95-.83,11.62-19.35,13.87-20.72l4.6-.57Z"/>
      <path class="cls-33" d="M644.29,328.48c3.19-6.83,5.84-19,15.34-17.71,14.11,1.93-6.69,21.05-15.34,17.71Z"/>
    </g>
  </g>
</svg>