<?xml version="1.0" encoding="UTF-8"?>
<svg id="Layer_1" xmlns="http://www.w3.org/2000/svg" version="1.1" xmlns:xlink="http://www.w3.org/1999/xlink" viewBox="0 0 1000 800">
  <!-- Generator: Adobe Illustrator 29.8.1, SVG Export Plug-In . SVG Version: 2.1.1 Build 2)  -->
  <defs>
    <linearGradient id="linear-gradient" x1="216.03" y1="299.81" x2="96.55" y2="395.61" gradientUnits="userSpaceOnUse">
      <stop offset="0" stop-color="#3562ae"/>
      <stop offset="1" stop-color="#151a42"/>
    </linearGradient>
    <linearGradient id="linear-gradient1" x1="284.14" y1="293.86" x2="165.69" y2="364.55" gradientUnits="userSpaceOnUse">
      <stop offset="0" stop-color="#416eb5"/>
      <stop offset="1" stop-color="#272e68"/>
    </linearGradient>
    <linearGradient id="linear-gradient2" x1="222.97" y1="369.42" x2="188.24" y2="393.43" gradientUnits="userSpaceOnUse">
      <stop offset="0" stop-color="#2a4492"/>
      <stop offset="1" stop-color="#293170"/>
    </linearGradient>
    <linearGradient id="linear-gradient3" x1="333.7" y1="441.12" x2="314.02" y2="490.24" gradientUnits="userSpaceOnUse">
      <stop offset="0" stop-color="#4d4da0"/>
      <stop offset="1" stop-color="#322f88"/>
    </linearGradient>
    <linearGradient id="linear-gradient4" x1="405.54" y1="448.04" x2="367.49" y2="511.46" gradientUnits="userSpaceOnUse">
      <stop offset="0" stop-color="#7e2f92"/>
      <stop offset="1" stop-color="#542871"/>
    </linearGradient>
    <linearGradient id="linear-gradient5" x1="477.17" y1="440.62" x2="453.82" y2="465.71" gradientUnits="userSpaceOnUse">
      <stop offset="0" stop-color="#f89a3d"/>
      <stop offset="1" stop-color="#f38233"/>
    </linearGradient>
    <linearGradient id="linear-gradient6" x1="831.05" y1="469.19" x2="803.5" y2="512.95" gradientUnits="userSpaceOnUse">
      <stop offset="0" stop-color="#942889"/>
      <stop offset="1" stop-color="#64266f"/>
    </linearGradient>
    <linearGradient id="linear-gradient7" x1="783.48" y1="451.11" x2="762.8" y2="505.01" gradientUnits="userSpaceOnUse">
      <stop offset="0" stop-color="#d64173"/>
      <stop offset="1" stop-color="#9e2461"/>
    </linearGradient>
  </defs>
  <path d="M947.72,453.96l-43.67,22.65c-1.74,2.25,11.98,25.19,12.52,28.8.75,4.94-15.04,10.11-19.37,11.44l-12.78-24.6-7.21,19.92c-7.81,2.59-15.34,6.78-23.98,5.85,9.47-20.62,17.49-42.02,27.51-62.41,2.06-4.19,9.35-19.96,11.81-22.17,2.72-2.44,26.71-10.21,28.8-8.46l-14.03,22.8-1.54,5.23,40.96-21.91,2.33,2.84" display="none" fill="#108040"/>
  <polygon points="825.46 134.73 600.31 334.85 766.56 340.43 461.76 648.2 674.19 375.18 482.53 363.99 825.46 134.73" display="none" fill="#108040"/>
  <g id="Generative_Object">
    <path d="M599.84,334.45c.13.92,1.54.55,2.25.56,45.95.65,95.25-.26,140.75,3.38-6.59,4.56-38.01,43.12-41.94,43.92-.96.19-1.49-.48-2.53-.56-9.02-.72-8.62-5.62-14.92-7.88-2.1-.75-4.35-.32-6.47-.84.39-.03,6.3-8.31,5.91-8.73-11.89-.76-23.85-.84-35.75-1.13-8.44-.21-16.9-.39-25.34-.56,1.14-2.3-3.04-6.77-4.79-7.88-2.13-1.36-6.6-1.83-7.32-2.25-1.84-1.08-3.37-6.19-7.32-8.45-5.13-2.92-7.57-1.17-11.26-2.25-2.23-.66-5-5.16-9.85-5.07-.05-.45-.38-.65-.56-1.13.45-.14,2.65-1.67,2.82-1.69,4.27-.47,11.28.8,16.33.56Z" fill="#f7d337"/>
    <path d="M603.22,363.16c-.98,1.73,2.67,7.44-1.13,7.32-35.85-2.02-70.81-3.62-106.41-6.76.29-1.91-1.64-.92-2.25,0-1.15-.09-2.14-.55-2.25-.56-.89-1.54-1.02-1.47.84-1.69,29.5-3.39,79.56,1.05,111.2,1.69Z" fill="#dec380"/>
    <path d="M674.72,373.86c-.85-.27-1.08.48-1.69.56-5.36.74-13.49-.3-19.14-.56-.51-3.51.06-6.05.56-9.57,8.72.26,17.44.7,26.18.56,1.55.88-5.19,7.98-5.91,9.01Z" fill="#926eb0"/>
    <path d="M647.13,364.29c2.43.06,4.89-.07,7.32,0-.51,3.52-1.07,6.06-.56,9.57-7.48-.35-15.03-.72-22.52-1.13,2.19-2.88-1.54-5.95.56-9.01,5.06.11,10.12.44,15.2.56Z" fill="#c0a4b5"/>
    <path d="M625.74,363.73c.74,3.51-.99,7.86-4.5,8.45-6.36-.35-12.81-1.33-19.14-1.69,3.8.12.15-5.59,1.13-7.32,7.48.15,15.03.4,22.52.56Z" fill="#d1b39d"/>
    <path d="M631.93,363.73c-2.11,3.05,1.62,6.13-.56,9.01-3.36-.18-6.76-.38-10.13-.56,3.51-.59,5.24-4.94,4.5-8.45,2.06.05,4.14-.05,6.19,0Z" fill="#c5a6a6"/>
    <g>
      <path d="M765.37,341.2c-3.02,4.27-7.02,8.12-10.7,11.82-.5.36-.53.54-.56.56-.52.37-.53.54-.56.56-.44.33-.43.43-.56.56-.19.19-.37.37-.56.56-.03.03-.67-.07-.56.56-9.84,9.84-19.97,19.46-29.84,29.28-4.48-2.86-8.66-7.2-14.64-5.63l36.03-41.1c7.56.62,14.2,1.13,21.96,2.82Z" fill="#c0a4b5"/>
      <path d="M698.37,381.74c-.41,1.09,1.13,1.31.84,2.25-.83,2.74-11.53,11.25-13.79,13.79-.22.25,1.5.11.84.84-4.23,4.72-8.95,8.92-13.23,13.51-6.67-3.67-11.56-10.9-14.08-18.02,1.34-1.56,3.13-3.05,4.5-4.5.13-.13,1.13.29,1.69-.28.07-.07-.77-1.2,0-1.97.3-.29.6.83,1.13.28.18-.19,3.6-4.71,2.25-4.79,1.81-2.32,3.36-4.94,5.07-7.32.44-.61.78-1.2,1.13-1.69.72-1.03,7.46-8.12,5.91-9.01-8.74.14-17.46-.3-26.18-.56-2.43-.07-4.89.06-7.32,0v-1.13c11.9.29,23.87.36,35.75,1.13.39.42-5.52,8.7-5.91,8.73,2.12.52,4.37.09,6.47.84,6.3,2.26,5.9,7.16,14.92,7.88Z" fill="#faf1c4"/>
      <path d="M617.29,471.82c-5.86,6.39-42.85,48.75-46.17,49.55-2.75.66-4.84-2.23-7.32-3.94,4.59-5.88,8.92-12.08,13.51-18.02,2.39.31,4.17-3.01,3.94-5.07,3.21-4.1,5.95-8.59,9.57-12.39.41-.43,1.47-.49,1.13-1.69.03-.02.13-.22.56-.56.58-.46,2.16,1.09,1.13-1.69,3.98-4.49,8.6-10.42,12.39-15.2,4.34,2.04,9.06,4.43,11.26,9.01Z" fill="#f9f3da"/>
      <path d="M620.11,486.46c-20.09,20.43-40.16,40.93-60.24,61.37-2.27-3.7-3.89-2.17-7.32-2.82,1.59-1.71,11.2-13.56,12.1-13.51.56.03,1.02,2.87,3.1,1.41-1.65-2.67-2.62-1.2-1.13-3.94,4.91-9.04,37.51-40.4,46.73-49.83,2.73,1.93,5.59,4.15,6.76,7.32Z" fill="#ebdcc2"/>
      <path d="M673.03,412.14c-2.26,2.43-16.44,19.43-17.74,19.71-.89.19-3.03-2.72-4.22-3.38-2.86-1.57-5.7-2.18-7.88-3.38-.36-1.54-1.55-4.26-1.69-5.63-.11-1.03-.75-1.6-.56-2.53.28-1.42,15.8-20.23,18.02-22.8,2.52,7.12,7.4,14.35,14.08,18.02Z" fill="#f7d337"/>
      <path d="M640.94,419.46c.8,2.4.16,4.48,2.25,5.63s5.02,1.81,7.88,3.38c5.69,5.81-5.34,11.2-9.01,15.48-2.09,2.44-4.01,5.66-6.76,8.73-4.13-5.41-6.44.43-8.73-.56-.24-.1-2.25-3.61-3.38-3.94-1.31-.39-4.41,1.35-5.91,0,2.74-3.51,8.98-13.35,12.39-15.2,1.73.24.55-.52.56-.56.56-2.89,8.32-12.99,10.7-12.95Z" fill="#faf1c4"/>
      <path d="M559.87,547.83c-13.62,13.86-39.77,45.53-54.05,55.18-2.48,1.68-4.7,4.11-7.88,2.25,17.92-20.32,36.17-40.4,54.61-60.24,3.43.65,5.05-.88,7.32,2.82Z" fill="#d7ba96"/>
      <path d="M707.38,379.49c-3.94,1.03-3.35,2.99-5.07,4.5-7.7,6.81-13.81,14.6-20.83,21.96-8.03,8.41-15.77,16.84-23.65,25.34-5.45,5.87-11.06,11.37-16.33,17.45-1.07,1.23-3.74,2.81-4.5,4.22-.47.86,1.25.95,1.13,1.13-.49.67-2.14.02-2.53.28-.5.32-8.13,8.13-8.16,8.73-.21,3.29,5.45-.37,6.19,2.53-6.4-.81-7.71,0-12.39,4.22-.16.14-1.01,1.61-1.97,2.53-2.19,2.12-3.88,4.68-5.91,6.76-9.22,9.43-41.82,40.79-46.73,49.83-1.49,2.74-.52,1.28,1.13,3.94-2.08,1.46-2.54-1.38-3.1-1.41-.91-.05-10.52,11.81-12.1,13.51-18.44,19.84-36.7,39.93-54.61,60.24-2.19,2.48-4.59,4.84-6.76,7.32,16.78-20.59,35-40.49,52.92-60.24,7.98-8.79,16.19-17.42,24.21-26.18.19-.2,4.46-4.57,2.82-4.79,3.31-.79,40.3-43.15,46.17-49.55,2.84-3.1,6.14-5.86,9.01-9.01,3.05-3.34,6-6.77,9.01-10.13,2.74-3.07,4.66-6.28,6.76-8.73,3.67-4.29,14.7-9.67,9.01-15.48,1.2.66,3.34,3.57,4.22,3.38,1.3-.27,15.47-17.28,17.74-19.71,4.28-4.59,9-8.79,13.23-13.51.66-.73-1.07-.59-.84-.84,2.27-2.54,12.96-11.06,13.79-13.79.29-.94-1.25-1.16-.84-2.25,1.05.08,1.57.76,2.53.56,3.94-.8,35.35-39.36,41.94-43.92.19.01.38-.02.56,0l-36.03,41.1Z" fill="#fff"/>
      <path d="M694.43,412.14c-8.93,8.97-16.86,19.29-27.02,27.02.31-1.13-.53-1.07-.56-1.13-2.25-4.25-3.96-6.06-9.01-6.76,7.88-8.49,15.62-16.93,23.65-25.34,2.96,3.72,8.42,6.48,12.95,6.19Z" fill="#d7ba96"/>
      <path d="M702.31,383.99c4.59,3.44,7.28,7.09,7.32,12.95-5.07,5.05-10.15,10.13-15.2,15.2-4.53.29-9.99-2.47-12.95-6.19,7.02-7.36,13.14-15.15,20.83-21.96Z" fill="#e3d3d4"/>
      <path d="M544.1,552.34c-17.92,19.75-36.15,39.66-52.92,60.24-4.09,4.68-8.36,9.35-12.39,14.08l-.56-.56c.14-.17.42-.94.56-1.13.64.1.53-.52.56-.56.05-.06.19.07.56-.56.19-.33.37-.8.56-1.13.64.1.53-.52.56-.56.08-.08.21-.05.56-.56,16.87-24.4,37.85-48.57,56.3-72.07,2.25,1.05,4.81.72,6.19,2.82Z" fill="#f7e47e"/>
      <path d="M563.81,517.43c2.48,1.71,4.57,4.6,7.32,3.94,1.65.21-2.63,4.58-2.82,4.79-8.02,8.76-16.23,17.39-24.21,26.18-1.38-2.1-3.94-1.76-6.19-2.82,8.48-10.8,17.47-21.3,25.9-32.09Z" fill="#faf1c4"/>
      <path d="M666.84,438.04c-1.45.45,0,1.07,0,1.13-.19,2.32-15.57,15.25-18.02,18.02.64-3.58-5.75-5.36-7.32-8.45,5.27-6.08,10.88-11.58,16.33-17.45,5.05.69,6.75,2.51,9.01,6.76Z" fill="#e3d3d4"/>
      <path d="M633.62,465.63c1.72.22,3.58,1.62,5.63,1.69-6.22,6.61-12.8,12.69-19.14,19.14-1.16-3.17-4.02-5.39-6.76-7.32,2.03-2.08,3.73-4.64,5.91-6.76.96-.93,1.81-2.39,1.97-2.53,4.67-4.22,5.99-5.03,12.39-4.22Z" fill="#f0e5e0"/>
      <path d="M648.82,457.19c-.42,2.37-7.62,8.06-9.57,10.13-2.05-.07-3.92-1.47-5.63-1.69-.75-2.91-6.41.76-6.19-2.53.04-.6,7.66-8.4,8.16-8.73.4-.26,2.05.39,2.53-.28.13-.17-1.59-.26-1.13-1.13.76-1.41,3.44-2.99,4.5-4.22,1.57,3.09,7.96,4.87,7.32,8.45Z" fill="#e3d3d4"/>
      <path d="M626.3,462.82c-2.87,3.15-6.17,5.91-9.01,9.01-2.2-4.58-6.92-6.97-11.26-9.01,2.47-3.12,4.85-6.42,7.32-9.57,5.32,3.48,12.49,2.58,12.95,9.57Z" fill="#f7e47e"/>
      <path d="M722.02,385.12c-4.05,4.03-8.39,7.84-12.39,11.82-.04-5.86-2.73-9.51-7.32-12.95,1.71-1.51,1.13-3.47,5.07-4.5,5.98-1.57,10.16,2.77,14.64,5.63Z" fill="#d9c6d6"/>
      <path d="M635.31,452.68c-3.01,3.37-5.96,6.79-9.01,10.13-.45-6.99-7.63-6.09-12.95-9.57,1.31-1.68,2.63-3.39,3.94-5.07,1.51,1.35,4.6-.39,5.91,0,1.13.33,3.14,3.84,3.38,3.94,2.28.99,4.6-4.84,8.73.56Z" fill="#faf1c4"/>
      <path d="M505.82,603.01l-41.66,41.66v-.56c.64.09.48-.41.56-.56.02-.03.17.06.56-.56.74-.8,1.5-1.34,2.25-2.25.3-.36.54-.53.56-.56,3.63-4.41,6.99-9.17,10.7-13.51,4.02-4.72,8.29-9.39,12.39-14.08,2.17-2.48,4.57-4.84,6.76-7.32,3.18,1.85,5.4-.58,7.88-2.25Z" fill="#c0a4b5"/>
      <path d="M754.67,353.03c3.68-3.7,7.67-7.55,10.7-11.82,6.12,1.33-7.8,9.7-10.7,11.82Z" fill="#fff"/>
      <path d="M478.79,626.65c-3.7,4.34-7.07,9.1-10.7,13.51l-.56-.56c3.43-4.66,7.12-8.99,10.7-13.51l.56.56Z" fill="#fff"/>
      <path d="M577.32,499.41c1.32-1.7,2.62-3.38,3.94-5.07.22,2.06-1.55,5.37-3.94,5.07Z" fill="#fff"/>
      <path d="M665.15,387.37c1.16-1.41,2.24-3.04,3.38-4.5,1.35.08-2.07,4.59-2.25,4.79-.53.55-.83-.58-1.13-.28Z" fill="#fff"/>
      <path d="M643.19,425.09c-2.09-1.15-1.45-3.23-2.25-5.63h.56c.14,1.37,1.33,4.09,1.69,5.63Z" fill="#fff"/>
      <path d="M663.46,389.62c-.34-1.34,1.24-1.7,1.69-2.25-.77.77.07,1.9,0,1.97-.56.57-1.56.15-1.69.28Z" fill="#fff"/>
      <path d="M467.53,640.73c-.75.91-1.51,1.46-2.25,2.25.76-1.2,1.13-1.46,1.69-2.25h.56Z" fill="#fff"/>
      <path d="M674.72,373.86c-.34.49-.69,1.08-1.13,1.69l-.56-1.13c.61-.08.84-.84,1.69-.56Z" fill="#fff"/>
      <path d="M592.52,479.71c-.37-1.2.77-1.28,1.13-1.69,1.03,2.78-.55,1.23-1.13,1.69Z" fill="#fff"/>
      <path d="M667.4,439.17h-.56c0-.06-1.45-.68,0-1.13.03.06.88,0,.56,1.13Z" fill="#fff"/>
      <path d="M590.83,481.96c-.23-1.08.4-1.23,1.13-1.69.35,1.2-.71,1.25-1.13,1.69Z" fill="#fff"/>
      <path d="M468.1,640.17s-.27.2-.56.56h-.56c.05-.07.03-.4.56-1.13l.56.56Z" fill="#e0e7b8"/>
    </g>
    <g>
      <path d="M809.28,146.96s-.42.42-.56.56c-.18.17-.44.45-.56.56-7.86,6.84-17.35,13.3-25.9,20.27-22.02,17.94-43.79,36.18-65.87,54.05-10.57,8.56-41.76,37.13-50.95,41.66-1.63.8-1,.66-2.53.56-6.77-.42-4.3-4.2-6.19-8.16-.85-1.78-2.45-3.99-3.94-5.35-.03-.03.08-.66-.56-.56,48.52-33.48,97.45-66.57,146.95-98.53.2,1.04.2.49.56,0,2.04-2.72,6.77-5.11,10.13-7.32-.09.47-.42,2.02-.56,2.25Z" fill="#f7d337"/>
      <path d="M580.14,333.89c.47.7.38,1.21.56,1.69s.52.68.56,1.13c-2.65.05-4.16,2.06-6.47,2.25-2.49.2-13.08-.4-14.64.56-.3.18-2.65,4.72-3.66,5.91-.58.69-4.31,2.29-4.5,2.82-1.24,3.31,5.67,10.14.28,12.1-1.16.42-4.67-1.08-4.79,1.13-1.88-.04-4.88.7-5.35-1.13l-54.89-.56c.77-.37,1.95-.32,2.25-1.69.13-.09.43.09.56,0,.63-.4.53-.54.56-.56.64-.39.53-.54.56-.56,1.53-.96,2.97-1.82,4.5-2.82.14-.09.46-.12,1.13-.56.57-.39.53-.54.56-.56.52-.35,1.17-.78,1.69-1.13,2.55-1.71,5.29-3.34,7.88-5.07.54-.28,1.56-1.07,1.69-1.13.58-.39.53-.54.56-.56.1-.07.46-.11,1.13-.56.94-.23,2.87.58,3.38-.56.97.38,5.51,3.01,5.91,2.82,1.35-5.8,5.08-10.11,9.29-14.08,3.93-1.46,7.3-1.28,11.54-1.13.21,0,3.09,1.84,3.94,1.69.56-.1,3.97-4.39,5.07-5.07,10.85-6.7,23.21-5.57,30.68,5.63Z" fill="#faf1c4"/>
      <path d="M637.56,286.59l-57.43,47.29c-7.48-11.2-19.83-12.33-30.68-5.63-1.1.68-4.51,4.97-5.07,5.07-.85.15-3.73-1.68-3.94-1.69-4.24-.15-7.61-.34-11.54,1.13,4.27-4.03,52.98-37.06,56.3-37.72-.14.7.25,1.15.56,1.69,7.52,13.06,27.37,4.31,29.56-9.01,7.61,7.45,14.75,3.55,22.24-1.13Z" fill="#f7d337"/>
      <path d="M651.64,251.12h1.13c1.5,1.36,3.09,3.56,3.94,5.35,1.89,3.96-.58,7.74,6.19,8.16-.46,1.96-2.75,3.78-4.22,5.07-5.86,5.1-14.73,12.91-21.11,16.89-7.49,4.68-14.63,8.57-22.24,1.13-2.19,13.32-22.04,22.07-29.56,9.01.94-.06.45-1.07.56-1.69.21-1.19.43-.89.56-1.13.65.1.53-.55.56-.56,1.28-.6.99-.63,1.69-1.13.07-.05.44-.09,1.13-.56,1.67-1.15,3.38-2.26,5.07-3.38.11-.08.66.08.56-.56,3.05-1.82,7.03-5.07,10.13-6.19.29-.1.64.03.56-.56l45.04-29.84Z" fill="#faf1c4"/>
      <path d="M782.26,168.36c-.14.85.2,2.09,0,2.82-.01.04-.25-.21-.56.56-.01.04-.18-.13-.56.56-1.42,2.52-2.83,3.65-4.79,5.63l-76.85,67.56c.57-.66,3.53-3.65,3.38-4.22-.07-.26-3.85-2.38-3.94-3.66,5.91-4.91,11.87-9.91,17.45-15.2,22.08-17.87,43.86-36.1,65.87-54.05Z" fill="#dec380"/>
      <path d="M699.49,245.49c-7.57,8.88-19.36,17.32-28.15,25.34l-6.19-5.07c11.27-9.36,22.51-18.79,33.78-28.15.1,1.28,3.87,3.4,3.94,3.66.15.57-2.81,3.56-3.38,4.22Z" fill="#e5c052"/>
      <path d="M642.63,296.73c-7.11,6.4-14.29,12.74-21.39,19.14-2.42.17-2.75-5.46-4.22-5.63-.3-.03-5.27,3.56-5.35,0,8.5-7.03,16.83-14.35,25.34-21.39,2.98,2.37,2.23,5.87,5.63,7.88Z" fill="#e5c052"/>
      <path d="M664.02,277.58c-7.08,6.44-14.29,12.74-21.39,19.14-3.4-2.01-2.65-5.52-5.63-7.88,5.43-4.5,10.9-9.01,16.33-13.51.94,5.2,9.31-2.27,10.7,2.25Z" fill="#e5c052"/>
      <path d="M621.24,315.87c-3.17,2.86-6.13,6.12-9.29,9.01-1.44,1.31-2.98,1.01-3.1,1.13-1.35.59-3.42-3.26-3.66-3.38-1.08-.52-5.08.24-6.47-1.69,4.31-3.55,8.65-7.14,12.95-10.7.08,3.56,5.04-.03,5.35,0,1.47.17,1.8,5.8,4.22,5.63Z" fill="#ce953a"/>
      <path d="M547.48,361.47c24.76.46,49.56.62,74.32,1.13,8.43.17,16.9.36,25.34.56v1.13c-5.08-.12-10.14-.45-15.2-.56-2.06-.05-4.14.05-6.19,0-7.49-.17-15.05-.41-22.52-.56-31.63-.64-81.69-5.08-111.2-1.69-1.87.21-1.74.15-.84,1.69-2.58-.19-6.27-.31-8.73.56.25-2.23,3.2-3.18,4.79-3.94l54.89.56c.47,1.82,3.46,1.09,5.35,1.13Z" fill="#fff"/>
      <path d="M671.34,270.83c-2.44,2.23-4.86,4.52-7.32,6.76-1.38-4.52-9.75,2.95-10.7-2.25,3.9-3.23,7.94-6.34,11.82-9.57l6.19,5.07Z" fill="#f5e4a3"/>
      <path d="M598.72,320.94c1.4,1.93,5.39,1.17,6.47,1.69.24.12,2.31,3.97,3.66,3.38-.52.48-4.02,4.57-5.63,6.19-1.12-2.42-4.35-3.5-7.04-3.94s-2.57,1.55-5.91-.56c2.36-2.77,5.7-4.5,8.45-6.76Z" fill="#b97b39"/>
      <path d="M603.22,332.2c-.27.27-.96,1.28-1.13,1.69-.85.62-1.29.52-2.25.56-5.05.24-12.05-1.03-16.33-.56l6.76-6.19c3.34,2.11,3.21.12,5.91.56s5.92,1.52,7.04,3.94Z" fill="#9b5a3b"/>
      <path d="M528.9,332.76c-4.21,3.97-7.93,8.28-9.29,14.08-.4.19-4.94-2.44-5.91-2.82-.42-.16-1.09-.05-1.69-.56,4.67-3.15,8.96-6.52,14.08-9.01.2-.1.65.06.56-.56.94-.56,1.16-.72,2.25-1.13Z" fill="#f7d337"/>
      <path d="M808.16,148.09c-8.42,7.64-17.81,15.31-25.9,23.08.2-.73-.14-1.96,0-2.82,8.55-6.97,18.04-13.43,25.9-20.27Z" fill="#fff"/>
      <path d="M816.04,140.77c-2.25,2.15-4.46,4.11-6.76,6.19.14-.23.47-1.78.56-2.25,2.08-1.37,4.06-2.65,6.19-3.94Z" fill="#fff"/>
      <path d="M506.94,346.83c-2.59,1.73-5.33,3.36-7.88,5.07,3.17-2.08,4.09-3.12,7.88-5.07Z" fill="#fff"/>
      <path d="M495.68,354.15c-1.53.99-2.98,1.86-4.5,2.82,1.99-1.71,2.8-1.72,4.5-2.82Z" fill="#fff"/>
      <path d="M512.01,343.46c.6.51,1.27.4,1.69.56-.51,1.15-2.44.33-3.38.56.56-.37,1.14-.76,1.69-1.13Z" fill="#fff"/>
      <path d="M495.68,363.73c-.74-.06-1.51.06-2.25,0,.61-.92,2.54-1.91,2.25,0Z" fill="#fff"/>
      <path d="M489.49,358.09c-.31,1.37-1.48,1.32-2.25,1.69.15-1.36,1.86-1.42,2.25-1.69Z" fill="#fff"/>
      <path d="M602.09,335.01c-.71-.01-2.12.36-2.25-.56.96-.05,1.4.05,2.25-.56-.09.23.05.77,0,1.13Z" fill="#fff"/>
      <path d="M586.33,295.04c-.11.62.38,1.63-.56,1.69-.31-.54-.7-.99-.56-1.69.35-.07.76.03,1.13,0Z" fill="#fff"/>
      <path d="M508.63,345.71c-.13.06-1.15.85-1.69,1.13.55-.36,1.15-.76,1.69-1.13Z" fill="#fff"/>
      <path d="M817.73,139.64c-.93.76-.87.63-1.69,1.13,1.07-1.02.88-.65,1.69-1.13Z" fill="#fff"/>
      <path d="M589.14,292.22c-.7.49-.41.52-1.69,1.13,1.04-1.34.9-.72,1.69-1.13Z" fill="#fff"/>
      <path d="M499.06,351.9c-.52.34-1.17.77-1.69,1.13.55-.36,1.14-.76,1.69-1.13Z" fill="#fff"/>
      <path d="M510.32,344.58c-.67.45-1.02.49-1.13.56.06-.02,0-.28,1.13-.56Z" fill="#fff"/>
      <path d="M526.09,334.45c-.09-.64.42-.48.56-.56.09.63-.36.46-.56.56Z" fill="#fff"/>
      <path d="M586.89,293.91c.38-.65.54-.53.56-.56-.04.02.09.66-.56.56Z" fill="#fff"/>
      <path d="M590.27,291.66c-.68.47-1.06.51-1.13.56.06-.03,0-.87,1.13-.56Z" fill="#fff"/>
      <path d="M595.34,288.28c-.09-.64.42-.48.56-.56.09.65-.45.49-.56.56Z" fill="#fff"/>
      <path d="M606.03,281.52l.56-.56c.08.59-.28.46-.56.56Z" fill="#fff"/>
      <path d="M652.76,251.12h-1.13l.56-.56c.64-.1.53.54.56.56Z" fill="#fff"/>
      <path d="M781.13,172.3c.39-.69.55-.53.56-.56-.03.03.07.67-.56.56Z" fill="#fff"/>
      <path d="M799.15,152.03h.56c-.37.49-.36,1.04-.56,0Z" fill="#fff"/>
      <path d="M808.16,148.09c.12-.11.39-.39.56-.56-.17.15-.34.36-.56.56Z" fill="#fff"/>
      <path d="M629.68,432.98s-.09-.66.56-.56c0,.04,1.17.8-.56.56Z" fill="#fff"/>
      <path d="M808.72,147.53c.15-.15.54-.53.56-.56-.17.15-.34.36-.56.56Z" fill="#fff"/>
      <path d="M817.73,139.64s-.08-.66.56-.56c.09.64-.42.48-.56.56Z" fill="#fff"/>
      <polygon points="818.29 139.08 818.57 138.52 818.85 138.8 818.57 139.08 818.29 139.08" fill="#fff"/>
      <polygon points="820.82 136.83 821.11 137.11 820.82 137.39 820.82 136.83" fill="#fff"/>
      <path d="M752.98,354.72c.13-.13.12-.24.56-.56-.19.19-.38.38-.56.56Z" fill="#fff"/>
      <path d="M752.42,355.28c.19-.2.38-.38.56-.56-.19.19-.38.38-.56.56Z" fill="#fff"/>
      <path d="M751.86,355.84c-.1-.64.54-.53.56-.56l-.56.56Z" fill="#fff"/>
      <path d="M490.62,357.53c.19-.18.31-.35.56-.56-.03.02.07.17-.56.56Z" fill="#fff"/>
      <path d="M490.05,358.09c-.1-.64.53-.53.56-.56-.03.02.06.17-.56.56Z" fill="#fff"/>
      <path d="M753.54,354.15s.05-.19.56-.56c-.19.19-.38.38-.56.56Z" fill="#fff"/>
      <path d="M496.81,353.59c-.67.44-.99.47-1.13.56.63-.41,1.03-.5,1.13-.56Z" fill="#fff"/>
      <path d="M781.7,171.74c.31-.77.55-.52.56-.56-.18.17-.37.37-.56.56Z" fill="#fff"/>
      <path d="M754.11,353.59s.07-.2.56-.56c-.19.19-.38.38-.56.56Z" fill="#fff"/>
      <path d="M481.04,622.15c.06-.09-.09-.66.56-.56-.36.52-.49.48-.56.56Z" fill="#fff"/>
      <path d="M480.48,622.71c.39-.63.54-.53.56-.56-.04.04.08.67-.56.56Z" fill="#fff"/>
      <path d="M479.36,624.4c.06-.09-.08-.66.56-.56-.37.63-.51.51-.56.56Z" fill="#fff"/>
      <path d="M478.79,624.96c.35-.45.54-.53.56-.56-.04.04.08.67-.56.56Z" fill="#fff"/>
      <path d="M496.81,353.59s-.02-.17.56-.56c-.03.02.01.18-.56.56Z" fill="#fff"/>
      <path d="M508.63,345.71s-.21-.27.56-.56c-.03.02.01.18-.56.56Z" fill="#fff"/>
      <path d="M464.72,643.54c.2-.23.4-.39.56-.56-.4.62-.54.53-.56.56Z" fill="#fff"/>
      <path d="M464.15,644.11c.37-.57.52-.52.56-.56-.09.15.08.65-.56.56Z" fill="#fff"/>
      <path d="M464.15,644.67h-.56c-.1-.65.54-.53.56-.56v.56Z" fill="#fff"/>
      <polygon points="463.59 644.67 463.31 645.23 463.03 644.95 463.31 644.67 463.59 644.67" fill="#fff"/>
      <path d="M581.26,336.7c4.85-.1,7.62,4.41,9.85,5.07,3.69,1.09,6.13-.67,11.26,2.25,3.95,2.25,5.48,7.37,7.32,8.45.72.42,5.19.89,7.32,2.25,1.74,1.12,5.92,5.58,4.79,7.88-24.76-.51-49.56-.66-74.32-1.13.11-2.2,3.63-.7,4.79-1.13,5.38-1.97-1.52-8.8-.28-12.1.2-.53,3.93-2.13,4.5-2.82,1.01-1.2,3.36-5.73,3.66-5.91,1.56-.97,12.15-.36,14.64-.56,2.32-.19,3.82-2.2,6.47-2.25Z" fill="#f5e4a3"/>
      <path d="M716.39,222.41c-5.58,5.29-11.54,10.29-17.45,15.2-11.28,9.36-22.51,18.79-33.78,28.15-3.89,3.23-7.93,6.34-11.82,9.57-5.43,4.51-10.89,9.01-16.33,13.51-8.5,7.05-16.84,14.37-25.34,21.39-4.3,3.56-8.64,7.15-12.95,10.7-2.74,2.26-6.09,3.98-8.45,6.76l-6.76,6.19c-.16.02-2.36,1.55-2.82,1.69-.18-.47-.1-.99-.56-1.69l57.43-47.29c6.38-3.98,15.26-11.79,21.11-16.89,1.47-1.28,3.76-3.11,4.22-5.07,1.53.1.9.24,2.53-.56,9.19-4.53,40.38-33.11,50.95-41.66Z" fill="#faf1c4"/>
    </g>
  </g>
  <polygon points="413.4 164.85 188.25 364.98 354.5 370.55 49.69 678.32 262.13 405.31 70.47 394.12 413.4 164.85" display="none" fill="#108040"/>
  <g id="Generative_Object1" data-name="Generative_Object">
    <path d="M407.21,169.92c-.13.09-.43-.09-.56,0,.03-.03-.08-.67.56-.56v.56Z" fill="#fff"/>
    <path d="M406.08,170.48c.17-.15.35-.37.56-.56-.03.02.04.17-.56.56Z" fill="#fff"/>
    <path d="M57.01,669.31c.39-.64.54-.53.56-.56l-.56.56Z" fill="#fff"/>
    <polygon points="410.58 167.1 410.87 166.54 411.15 166.82 410.87 167.1 410.58 167.1" fill="#fff"/>
    <path d="M142.03,583.73l.56-.56c-.18.18-.35.36-.56.56Z" fill="#fff"/>
    <path d="M140.9,585.42c-1.07-.23-.39-.24,0-.56v.56Z" fill="#fff"/>
    <polygon points="410.58 167.1 410.3 167.66 410.02 167.38 410.3 167.1 410.58 167.1" fill="#fff"/>
    <polygon points="408.9 168.23 409.18 167.66 409.46 167.94 409.18 168.23 408.9 168.23" fill="#fff"/>
    <path d="M408.33,168.79s-.08-.66.56-.56l-.56.56Z" fill="#fff"/>
    <g>
      <path d="M315.44,250.99c-10.32,9.19-20.64,18.41-30.97,27.59-.28-.59-.74-1.17-1.13-1.69,1.6-1.76-.48-1.06-.56-1.13-.31-.24-2.06-1-2.25-1.41-.24-.5.03-2.09,0-2.53,0-.1,1.09-.82.56-1.97l-1.13.84c-.61-.96-1.48-2.31-2.82-2.25,11.64-8.42,23.25-16.92,34.91-25.34-1.17,2.97,2.17,5.17,3.38,7.88Z" fill="#5489c7"/>
      <path d="M361.6,199.76c2.05.77,3.25,3.04,2.82,5.07-8.75,5.66-16.85,13.07-25.34,19.14-.17.12-2.09.44-2.25.56l-7.32-3.94c10.64-7.04,21.43-13.84,32.09-20.83Z" fill="#c2e7f0"/>
      <path d="M405.52,171.04c-11.72,10.61-23.69,20.98-35.47,31.53-1.8.13-4.16,1.3-5.63,2.25.43-2.03-.77-4.29-2.82-5.07,9.19-6.02,18.38-12.02,27.59-18.02l.84,2.25.84-3.38c4.87-3.16,9.82-6.34,14.64-9.57Z" fill="#e1f3f7"/>
      <path d="M370.05,202.57c-9.79,8.76-19.45,17.72-29.28,26.46l-1.69-5.07c8.49-6.08,16.59-13.48,25.34-19.14,1.47-.95,3.83-2.12,5.63-2.25Z" fill="#92d7e8"/>
      <path d="M339.08,223.96l1.69,5.07c-4.76,4.24-9.9,8.17-14.64,12.39-.35-3.31-.55-4.36-3.38-6.19,4.75-3.43,9.32-7.29,14.08-10.7.17-.12,2.09-.44,2.25-.56Z" fill="#69cef6"/>
      <path d="M326.13,241.42c-3.57,3.17-7.13,6.39-10.7,9.57-1.2-2.71-4.55-4.92-3.38-7.88,3.58-2.59,7.1-5.29,10.7-7.88,2.83,1.84,3.03,2.88,3.38,6.19Z" fill="#66b0e1"/>
      <path d="M389.19,181.74c.55-.36,1.12-.76,1.69-1.13l-.84,3.38-.84-2.25Z" fill="#fff"/>
      <path d="M407.21,169.92v-.56c.11-.09.44.09.56,0-.03.02-.01.19-.56.56Z" fill="#e1f3f7"/>
      <path d="M407.77,169.35s.1-.22.56-.56c.1.65-.47.49-.56.56Z" fill="#e1f3f7"/>
      <path d="M405.52,171.04c.17-.15.34-.36.56-.56-.03.02.02.17-.56.56Z" fill="#e1f3f7"/>
      <g>
        <path d="M336.83,224.53c-4.76,3.41-9.32,7.27-14.08,10.7-3.6,2.59-7.12,5.3-10.7,7.88-11.65,8.41-23.27,16.91-34.91,25.34-44.92,32.5-89.98,64.82-134.84,97.4-.79.57-4.1,2.62-3.1,3.94-11.5,2.61-25.77,18.91-36.6,24.77-9.85-.57-19.77-.73-28.71-1.97l3.38-3.1c84.05-56.32,167.84-113.09,252.23-168.9l7.32,3.94Z" fill="url(#linear-gradient)"/>
        <path d="M106.84,382.74c.85-.31,1.24.83.56,1.13-.82.36-1.24-.88-.56-1.13Z" fill="#8c616f"/>
        <path d="M185.66,321.93c.85-.31,1.24.83.56,1.13-.82.36-1.24-.88-.56-1.13Z" fill="#d4b4b0"/>
      </g>
      <g>
        <path d="M279.97,270.7c.2.32.47.74.56,1.13.03.44-.24,2.04,0,2.53.2.41,1.94,1.16,2.25,1.41-.34,1.08.5,1.04.56,1.13.39.52.85,1.1,1.13,1.69-31.84,28.3-62.98,57.42-95.71,84.73.16,1.18,21.64,1.89,23.65,1.97-.7,1.53-.33,1.47-1.97,1.69-3.72.5-16.1-.25-20.27-.56-3.01-.23-5.98-2.67-8.45-2.82-.26-.01-4.62,1.77-4.79,1.97-1.38,1.62,1.33,1.38,1.13,2.82-.33,2.36-8.57,3.48-7.32,7.04-.55-.1-1.2,1.15-1.41,1.13-2.32-.23-3.92-1.78-5.91-1.13-.16-.1-.35.14-1.13-.56,1.58-.95-1.49-1.69-1.69-2.53-.57-2.42,1.86-3.39-.56-4.22-.27-.09-.81.08-1.13,0-1.97-1.71-6.54-2.98-7.88,0-2.32.21-9.76,1.22-11.82,1.69-1-1.32,2.31-3.37,3.1-3.94,44.86-32.58,89.93-64.9,134.84-97.4,1.34-.06,2.21,1.29,2.82,2.25Z" fill="url(#linear-gradient1)"/>
        <g>
          <path d="M162.29,374.85c-2.62-2.35-3.2-3.17-2.25-6.76,2.42.83-.01,1.81.56,4.22.2.85,3.27,1.59,1.69,2.53Z" fill="#939ebd"/>
          <g>
            <path d="M158.92,368.1c-3.19-.83-4.9-.27-7.88,0,1.34-2.98,5.91-1.71,7.88,0Z" fill="#7e89b1"/>
            <path d="M221.13,318.55c1.7.2.29,2.81.56,3.94-1.38.27-.92-3.37-.56-3.94Z" fill="#a693b4"/>
            <path d="M283.34,276.89c-.07-.09-.91-.04-.56-1.13.09.07,2.16-.63.56,1.13Z" fill="#e2d1e6"/>
            <path d="M280.53,271.82c-.09-.38-.36-.8-.56-1.13l1.13-.84c.53,1.15-.57,1.87-.56,1.97Z" fill="#e2d1e6"/>
            <path d="M235.77,312.36c.7,1.03.22,2.33-.56,1.13-.4-.61.22-.68.56-1.13Z" fill="#f1d9ce"/>
            <polygon points="262.79 287.02 263.64 287.3 263.36 288.15 263.07 287.87 262.79 287.02" fill="#b59ac9"/>
          </g>
        </g>
      </g>
    </g>
    <g>
      <path d="M212.4,365.28c3.92.15,7.9-.13,11.82,0l-.56,2.25c-.82.09-1.7-.06-2.53,0,.31.67.18,4.57.28,4.79.09.19,3.18,2.47,3.38,2.53-2.97,2.07-7.01,4.23-9.85,6.19-.57.39-2.59,1.25-.56,1.69,2.85-.39,8.04-6.42,9.57-6.76,2.18-.49,5.71,1.17,9.57-1.13s3.03-6.29,3.94-6.76c2.37-1.22,8.02.37,8.73,3.66,1.59,7.37-.71,6.11-3.94,8.73-2.46,1.99-3.09,4.8-5.63,4.79-1.28,1.77-.88,8.92-1.13,9.57-.17.45-6.59,6.3-7.04,6.47-.8.32-14.78.08-16.89,0-.69-.02.69-1.1,0-1.13-3.21-.11-7.61.71-10.13.56-.43-.02-.13-1.1-.56-1.13-7.6-.42-15.48.03-23.08-.56-1.23-3.28,5.93-5.07,6.47-7.04.64-2.3-3.09-5.34,1.13-8.16.36-.06,4.32.32,3.66-1.13-9.93,2.32-6.77-1.31-10.7-4.5-.42-.34-6.8-2.67-7.6-2.82-1.25-3.56,6.99-4.67,7.32-7.04.2-1.44-2.51-1.19-1.13-2.82.17-.2,4.53-1.99,4.79-1.97,2.47.14,5.44,2.59,8.45,2.82,4.17.32,16.55,1.06,20.27.56,1.64-.22,1.27-.16,1.97-1.69Z" fill="url(#linear-gradient2)"/>
      <path d="M185.38,383.86c-4.22,2.83-.49,5.86-1.13,8.16-.54,1.97-7.7,3.76-6.47,7.04,7.61.6,15.49.14,23.08.56.43.02.13,1.1.56,1.13,2.53.14,6.92-.67,10.13-.56.69.02-.69,1.1,0,1.13,2.11.08,16.09.32,16.89,0,.44-.18,6.87-6.03,7.04-6.47.24-.65-.16-7.8,1.13-9.57,2.54.01,3.17-2.79,5.63-4.79-.81,3.42-5.61,7.16-6.19,10.42-.26,1.44,2.04,3.38.56,5.63-.66,1-6.74,2.86-7.32,5.35l-3.66,1.13-154.83-8.45-.56-1.13,7.04-3.94-3.38,3.1c8.95,1.24,18.87,1.4,28.71,1.97,9.21.53,17.67.78,26.18,1.13,4.37.18,15.75,2.08,19.14,1.13,1.87-.53,3.89-3.88,5.07-4.5.2-.11,3.83-.2,4.5-.56,5.68-3.04,2.16-4.14,3.1-8.16.24-1.04,5.79-5.22,3.94-7.6,5.55,2.24,5.05.32,9.29,1.13,5.17.99,6.63,7.61,7.32,7.88.2.08,3.08-.94,4.22-1.13Z" fill="#282b66"/>
      <path d="M269.27,455.93c-7.07,6.98-11.24,12.04-19.14,17.45-1.16-1.47-5.01-11.94-5.07-13.23-.08-1.92,1.76-3.34,2.25-5.07.32-1.12-.35-3.52,0-4.5.4-1.12,8.18-6.5,8.73-6.47.22.01,2.34,2.23,3.38,2.82.08.04.94-1.08,1.69-.56,3.26,2.26,1.02,7.57,6.76,9.01.54-2.16-3.55-3.37-3.66-3.66-.32-.9,1.05-2.23.56-3.38-.21-.49-2.01-.04-2.82-3.1.94.22,1.32,1.48,2.25,1.69.44.1,1.45.49,1.69.28,1.84-3.91,2.5-6.81,3.38-10.98,2.65,3.21,1.24,8.51,1.69,11.54.03.18,2.41,1.56,2.25,2.82-.14,1.12-5.59,3.59-3.94,5.35Z" fill="#673b97"/>
      <path d="M248.44,399.63c-.15.31-1.01,2.73-.84,2.82,2.08,1.08,13.95-.14,14.92,1.41l-.56.84h-2.25c-9.29,0-21.48-1.02-29.84-2.82,1.17-1.69,7.42-4.05,7.88-5.35.61-1.71-.76-4.66-.56-5.63.14-.69,4.81-7.94,5.63-9.01.87-1.14,3.58-1.71,3.94-2.25,1.07-1.62.09-3.64.56-5.07.11-.33,2.22-.83,2.25-1.13.03-.24-3.8-.87-1.97-3.1,1.86,2.67,8.39,1.44,9.01,1.69.92.38,4.88,10.75,2.25,11.82-.47.19-4.98-1.53-5.91.28s1.2,7.56.56,9.57-9.34,5.29-8.16,9.29l3.1-3.38Z" fill="#2c4390"/>
      <path d="M112.19,609.07c-.4.46-1.46,2.48-2.25,3.38-6.79,7.7-14.07,15.05-20.83,22.8l18.86-18.86,1.41,1.13c-12.8,12.92-25.36,26.03-38.29,38.85l-10.13,7.88c14.75-19.8,30.53-38.99,45.6-58.55,2.66,1.05,3.87,1.48,5.63,3.38Z" fill="#bf6678"/>
      <path d="M248.44,476.76c-14.86,16.08-30.84,31.12-46.17,46.73-1.63.53.47-2.44.56-2.53,1.82-1.88,12.57-10.99,12.95-12.39s-.72-2.21-.56-3.1c.34-1.88.78-3.77,1.13-5.63,4.3-3.36,6.47-8.82,10.13-12.67,5.73-6.01,13.55-8.03,14.36-18.86,1.71-.6,4.43,8.98,7.6,8.45Z" fill="#794592"/>
      <path d="M179.19,537.57c-.59.61-1.35,2.43-2.25,3.38-1.27,1.33-2.65,2.57-3.94,3.94-3.07,3.26-6.02,6.18-9.01,9.57-1.34,1.52-7.64,6.61-7.88,8.16-.45,2.97,2.35,1.88,1.13,5.35-.73,2.08-9.63,10.16-11.82,12.39-4.77-1.33-5.93.24-9.01,3.66l1.69,1.13-28.15,27.31c.79-.9,1.85-2.92,2.25-3.38,1.19-1.35,2.69-2.51,3.94-3.94,7.12-8.16,17.8-18.46,23.65-27.02,6.18-9.05.27-6.51,0-7.6-.04-.18,2.54-.31,2.82-2.25.09-.65-1.75-1.48.56-5.07,1.29-2,7.4-4.67,9.85-5.35,1.78-.49,3.89.93,5.07.56.28-.09,2.85-3.8,3.66-4.5,3.44-3.03,5.88-6.41,9.01-9.57,2.49-2.52,5.38-4.82,7.88-7.32l.56.56Z" fill="#fff"/>
      <path d="M139.77,578.1c-5.85,8.56-16.53,18.86-23.65,27.02-3.17.85-3.59-3.52-6.76-3.38,7.51-9.74,15.01-19.53,22.52-29.28,3.11-.79,1.4,2.77,2.53,2.82s.13-5.42,5.35,2.82Z" fill="#eea591"/>
      <path d="M161.73,553.89c-.81.71-3.38,4.42-3.66,4.5-1.17.37-3.28-1.05-5.07-.56-2.46.68-8.56,3.35-9.85,5.35-2.31,3.59-.47,4.42-.56,5.07-.28,1.95-2.86,2.08-2.82,2.25.27,1.09,6.18-1.45,0,7.6-5.21-8.23-4.24-2.77-5.35-2.82s.57-3.6-2.53-2.82c6.69-8.68,13.53-17.26,20.27-25.9l9.57,7.32Z" fill="#f8cab3"/>
      <path d="M145.4,580.35c-.95.96-1.84,1.87-2.82,2.82l-.56.56c-.4.37-.64.72-1.13,1.13-.39.33-1.07.34,0,.56-9.61,11.53-21,21.46-31.53,32.09l-1.41-1.13-18.86,18.86c6.76-7.75,14.04-15.1,20.83-22.8l28.15-27.31-1.69-1.13c3.07-3.42,4.24-4.99,9.01-3.66Z" fill="#eea591"/>
      <path d="M281.65,366.97l1.97,1.69h17.17c.19,0,.38,0,.56,0-.3,2.88.97,4.55-1.13,5.91l-2.25,9.85c.81-2.87.75-9.88,1.97-13.51l-26.74.28c2.55,2.33.74,8.27,1.13,9.01.61,1.18,5.66,1.23,5.91,1.41,2.5,1.78.47,4.84,2.25,6.19.55.42,3.77.46,3.94.56,1.28.76,1.78,2.93,5.35,3.38,5.44.69,7.02-6.91,7.6-6.76,1.53,2.86-4.35,7.03-4.22,7.6.23.99,11.02,8.87,11.26,9.57,1.13,3.33-3.05,8.78-4.79,11.54.24-6.27,9.52-10.83-1.41-14.08-4.51-5.63-4.7-6.1-12.1-8.45l-.84,5.63c-.18-1.52.14-4.69-.56-5.91-1.31-2.29-4.73-1.55-5.35-1.97-1.52-1.02-.47-2.45-.84-3.38-.27-.66.31-1.5-.28-2.25-.22-.27-6.17-2.37-6.47-.84.02,1.03-.03,2.07,0,3.1v-10.98l-1.41-.84c-3.69,3.8-5.12,9.39-3.66,14.64-2.78-2.21-.27-18.21,3.94-19.99.16-2.21-15.8-1.32-18.3-1.41-1.15-.04-1.5,1.58-1.41-1.13,9.56.31,19.15.75,28.71,1.13Z" fill="#dfe1ee"/>
      <path d="M202.27,523.49c-3.62,3.69-7.05,7.56-10.7,11.26-6.92-4.2,1.53-3.96,0-9.01,1.36-1.36,2.57-3.16,3.94-4.5,2.52-2.46,11.36-12.54,12.95-13.51,1.82-1.12,4.88-.78,6.76-2.25-.16.88.94,1.74.56,3.1s-11.13,10.5-12.95,12.39c-.09.09-2.19,3.06-.56,2.53Z" fill="#904d8e"/>
      <path d="M170.74,544.32c-3.13,3.16-5.57,6.54-9.01,9.57l-9.57-7.32c1.09-1.39,2.29-3.68,3.38-5.07,1.2-1.54,2.72-2.95,3.94-4.5,3.84,2.47,6.44,5.33,11.26,7.32Z" fill="#eea591"/>
      <path d="M220.29,458.18c-11.53,14.93-22.73,30.17-34.34,45.04-3.78,4.84-7.48,9.82-11.26,14.64-.41.53-2.05.92-1.69,2.25-.13-.05-.37.01-.56,0-.83-.05-1.05.27-1.69.56,15.7-21.86,32.53-42.9,48.98-64.18l.56,1.69Z" fill="#8c8394"/>
      <path d="M248.44,476.2s1.19.29,0,.56c-3.17.54-5.89-9.05-7.6-8.45-.81,10.83-8.63,12.85-14.36,18.86-3.66,3.85-5.84,9.31-10.13,12.67.33-1.8-.39-3.32.56-5.35,2.16-4.59,17.1-15.44,19.14-19.14.88-1.6.83-4.41,1.69-6.19,1.1-2.3,3.13-2.11,2.53-5.35,2.63-1.65,4.47,8.04,4.79,8.73.26.57,3.21,3.2,3.38,3.66Z" fill="#aa6eae"/>
      <path d="M261.95,404.69c-13.03,16.82-25.86,33.83-38.85,50.67-.8,1.04-2.11,1.9-2.82,2.82l-.56-1.69c13.34-17.25,26.79-34.43,39.97-51.8h2.25Z" fill="#949aa6"/>
      <path d="M191.57,534.75c-3.35,3.4-6.8,6.73-10.13,10.13l-4.5-3.94c.9-.95,1.66-2.76,2.25-3.38,2.35-2.45,4.91-4.89,7.32-7.32.98-.99,3.46-2.91,5.07-4.5,1.53,5.05-6.92,4.8,0,9.01Z" fill="#be6e8b"/>
      <path d="M176.37,549.95c-2.87,2.91-5.6,6.07-8.45,9.01l-3.94-4.5c2.99-3.39,5.94-6.31,9.01-9.57.15,2.09,1.88,4.18,3.38,5.07Z" fill="#e29d95"/>
      <path d="M167.92,558.96c-2.68,2.76-6.98,9-10.7,9.01,1.22-3.47-1.58-2.38-1.13-5.35.24-1.55,6.54-6.64,7.88-8.16l3.94,4.5Z" fill="#f8cab3"/>
      <path d="M172.43,520.11c-4.1,5.78-8.57,11.32-12.95,16.89-1.22,1.55-2.74,2.96-3.94,4.5-1.12-.18-.29-2.06,0-2.53,1.23-2,14-17.75,15.2-18.3.64-.3.85-.62,1.69-.56Z" fill="#d4b4b0"/>
      <path d="M181.44,544.88c-1.68,1.71-3.39,3.37-5.07,5.07-1.5-.88-3.23-2.98-3.38-5.07,1.29-1.37,2.67-2.61,3.94-3.94l4.5,3.94Z" fill="#d3868d"/>
      <path d="M116.13,605.13c-1.25,1.43-2.75,2.59-3.94,3.94-1.76-1.9-2.97-2.33-5.63-3.38.98-1.27,1.86-2.7,2.82-3.94,3.16-.14,3.59,4.23,6.76,3.38Z" fill="#de8681"/>
      <path d="M300.8,368.66h-17.17l-1.97-1.69c7.03.27,13.03,1.4,19.14,1.69Z" fill="#afaacb"/>
      <path d="M71.09,656.36c-5.03,4.99-9.74,10.35-14.92,15.2-.66-.9.45-1.59.84-2.25l.56-.56c1.04-1.51,2.27-3.02,3.38-4.5l10.13-7.88Z" fill="#784166"/>
      <path d="M158.92,368.1c.32.08.85-.09,1.13,0-.95,3.58-.37,4.41,2.25,6.76.78.7.97.46,1.13.56.57.37.5.31,1.13.56,1.85,2.38-3.7,6.57-3.94,7.6-.94,4.03,2.58,5.12-3.1,8.16-.67.36-4.3.46-4.5.56-1.18.62-3.2,3.98-5.07,4.5-3.4.96-14.77-.95-19.14-1.13-8.51-.35-16.97-.59-26.18-1.13,10.83-5.86,25.09-22.16,36.6-24.77,2.07-.47,9.5-1.48,11.82-1.69,2.98-.27,4.69-.83,7.88,0Z" fill="#141640"/>
      <path d="M170.74,375.42c.8.15,7.18,2.47,7.6,2.82,3.93,3.19.76,6.82,10.7,4.5.66,1.44-3.3,1.07-3.66,1.13-1.14.19-4.02,1.21-4.22,1.13-.69-.28-2.15-6.9-7.32-7.88-4.24-.81-3.74,1.12-9.29-1.13-.62-.25-.55-.2-1.13-.56,2-.65,3.59.9,5.91,1.13.21.02.85-1.23,1.41-1.13Z" fill="#7e89b1"/>
      <path d="M223.66,367.53c1.59-.18,11.83.07,12.39.84.04,5.43-6.39,7.9-11.26,6.47-.2-.06-3.29-2.34-3.38-2.53-.1-.22.03-4.11-.28-4.79.83-.06,1.71.09,2.53,0Z" fill="#3c54a5"/>
      <path d="M297.98,384.42c-1.12,3.97-2.95,5.13-6.19,7.32-3.57-.45-4.07-2.61-5.35-3.38-.17-.1-3.39-.14-3.94-.56-1.78-1.35.25-4.41-2.25-6.19-.25-.18-5.3-.23-5.91-1.41-.38-.74,1.42-6.68-1.13-9.01l26.74-.28c-1.22,3.63-1.16,10.64-1.97,13.51Z" fill="#2c4390"/>
      <g>
        <path d="M299.11,425.52c-2.18-2.14.85-4.84,1.13-6.47s-1.24-3.7-1.13-4.5c.46-3.13,6.22-9.33,5.07-11.82-.28-.6-2.58-1.4-3.94-3.1,10.93,3.24,1.65,7.8,1.41,14.08,1.74-2.76,5.92-8.21,4.79-11.54-.24-.7-11.03-8.58-11.26-9.57-.13-.57,5.75-4.74,4.22-7.6-.58-.15-2.16,7.44-7.6,6.76,3.24-2.19,5.08-3.34,6.19-7.32l2.25-9.85c2.09-1.36.82-3.03,1.13-5.91.09,0,1.14-1.14,1.41-1.13,17.14.84,34.34,2.57,51.52,3.1-18.15,18.53-36.89,36.51-55.18,54.89Z" fill="#282b66"/>
        <path d="M305.58,370.91c2.35-.32,4.26,1.11,6.76,0,3.63,1.09-9.37,7.44-9.29.84.76.02,2.32-.81,2.53-.84Z" fill="#2c4390"/>
        <path d="M316.28,374.85c.14,0,1.73,1.67,2.25,1.69.8.03,4.73-3.04,6.47.28-4.15-2.06-6.1,2-6.47,1.97-.18-.02-1.29-2.54-2.25-2.82-.3-.09-4.37,1.74-5.91.28,1.4.1,5.6-1.39,5.91-1.41Z" fill="#5f67a8"/>
      </g>
      <path d="M264.76,388.37c-4.13,4.88,4.91,7.71,5.63,9.85.28.85-.33,7.14-.56,8.45-.94,5.36-11.42,25.68-15.48,29-.47.38-4.19,1.42-4.5,1.69-7.27,6.27-10.06,17.01-20.83,18.02,3.83,2.25-4.58,2.55-5.91,0,12.99-16.85,25.82-33.86,38.85-50.67l.56-.84c-.97-1.55-12.84-.33-14.92-1.41-.16-.09.7-2.5.84-2.82,1.15-2.45,5.77-4.15,6.19-5.35.69-1.93-1.95-8.86.28-9.85,3.15-1.4,4.95,3.13,6.19-2.82-.22,3.53,1.64,4.23,3.66,6.76Z" fill="#433789"/>
      <path d="M196.08,509.41c-2.71,5.15-.5,7.87-2.25,12.1-.38.91-6.39,6.87-7.88,7.6-.77-.75-1.06-.51-1.13-.56-.72-2.94-2-5.23-5.35-4.5,3.87-2.08-5.24-2.32-4.79-6.19,3.78-4.82,7.48-9.8,11.26-14.64,6.56.75,4.34,3.44,10.13-.56-1.3,3,2.34,3.35,2.25,4.22-.02.17-1.26.65-2.25,2.53Z" fill="#904d8e"/>
      <path d="M184.82,528.56c.07.05.35-.19,1.13.56.08.08-.06.37,0,.56-2.83,2.02-4.89,4.9-7.32,7.32s-5.4,4.8-7.88,7.32c-4.82-1.99-7.42-4.85-11.26-7.32,4.38-5.57,8.85-11.11,12.95-16.89.2.01.44-.05.56,0,2.48.98,1.12,2.37,3.1,3.94.18.15,3.48,1.38,4.22,1.97.1.08.21,2.29.84,2.53,2.47.93-.27-3.07,3.66,0Z" fill="#bf6678"/>
      <path d="M273.77,385.55c.13,4.02,1.71,3.37,3.66,6.19,1.12-.04.26-.43.84-1.69l4.5,9.57c-1.16,1.32-1.06,2.41-1.13,3.94-.02.51.52.56.56,1.13l-1.41,2.25c-1.69-.74.77-3.94-1.41-1.97-.25,1.45.53,1.97.56,2.53.42,6.71-.56,3.81-1.69,6.47-2.4,5.64-8.7,12.7-9.57,16.89-.21.98.83,4.1.56,5.35-.88,4.17-1.54,7.07-3.38,10.98-.24.21-1.25-.18-1.69-.28l-2.25-2.82c.25-.83,2.7-3.12,2.82-3.66.85-3.95-.41-7.92,1.69-12.39,1.63-3.47,8.22-7.5,9.57-11.26.81-2.25,2.88-19.4,2.25-21.39-1.58-5-6.48-4.59-9.57-7.04-1.46-5.25-.03-10.84,3.66-14.64l1.41.84v10.98Z" fill="#724fa0"/>
      <path d="M262.51,426.09c-.73,2.87-.2,11.24-.56,12.1-.64,1.53-12.23,4.32-14.92,6.47-.46.37-6.24,8.18-7.04,9.29-.84,1.17-.11,3.11-.56,3.94-1.3,2.35-6.13.4-7.32,7.32-.38,2.24.56,6.67,0,8.45-.34,1.07-4.92,3.48-6.19,5.07-1.44,1.79-10.92,13.78-11.26,14.64-.97,2.42-.1,6-.56,8.16-2.64-1.22-1.4-3.08-1.69-5.63-.08-.71-1.12-1.18-1.13-1.41-.11-4.9,1.82-3.63,2.82-5.07,2.71-3.91,12.51-13.14,13.51-15.76.79-2.07.28-7.43,2.25-10.7s6.65-5.53,9.01-8.45c3.85-4.76,5.87-10.53,10.98-14.36,2.83-2.12,8.52-3.24,9.85-5.91,1.01-2.02.09-7.01,2.82-8.16Z" fill="#995fa7"/>
      <path d="M212.4,495.9c.29,2.55-.95,4.41,1.69,5.63-1.32,6.16-6.42,3.46-10.98,4.5-1.72.39-5.53,2.12-7.04,3.38.99-1.88,2.23-2.37,2.25-2.53.09-.88-3.55-1.23-2.25-4.22,2.54-1.75,7.46-8.79,10.42-5.07.47-4.99,2.41-3.77,5.91-1.69Z" fill="#904d9e"/>
      <path d="M194.95,520.11c.95-4.66-.42-8.64,4.22-11.26.37-.21,7.2-2.26,7.6-2.25l-11.82,13.51Z" fill="#904d8e"/>
      <path d="M208.46,507.73c-1.59.98-10.43,11.05-12.95,13.51-.7.02-.67-.61-.56-1.13l11.82-13.51c.72,0,.96,1.1,1.69,1.13Z" fill="#d978b0"/>
      <path d="M186.5,530.25c-2.41,2.42-4.97,4.87-7.32,7.32l-.56-.56c2.42-2.42,4.49-5.3,7.32-7.32.1.33,0,.64.56.56Z" fill="#f6bfc6"/>
      <g>
        <path d="M252.94,365.85c-.09,2.71.26,1.08,1.41,1.13,2.49.09,18.46-.8,18.3,1.41-4.21,1.77-6.73,17.78-3.94,19.99,3.09,2.45,8,2.03,9.57,7.04.63,2-1.45,19.15-2.25,21.39-1.35,3.76-7.94,7.79-9.57,11.26-2.09,4.46-.84,8.43-1.69,12.39-.12.54-2.56,2.83-2.82,3.66-.46,1.52-.2.38,0,1.13.8,3.06,2.61,2.61,2.82,3.1.49,1.15-.89,2.48-.56,3.38.11.29,4.2,1.49,3.66,3.66-5.74-1.44-3.49-6.75-6.76-9.01-.75-.52-1.61.61-1.69.56-1.04-.58-3.16-2.8-3.38-2.82-.54-.03-8.33,5.36-8.73,6.47-.35.98.32,3.39,0,4.5-.49,1.73-2.33,3.15-2.25,5.07.06,1.29,3.91,11.76,5.07,13.23-.25.17-1.1,2.29-1.69,2.82-.16-.46-3.12-3.09-3.38-3.66-.32-.68-2.16-10.37-4.79-8.73.6,3.24-1.43,3.04-2.53,5.35-.86,1.79-.81,4.6-1.69,6.19-2.04,3.7-16.98,14.56-19.14,19.14-.96,2.03-.23,3.55-.56,5.35s-.79,3.75-1.13,5.63c-1.88,1.48-4.93,1.13-6.76,2.25-.73-.03-.97-1.12-1.69-1.13-.4,0-7.23,2.04-7.6,2.25-4.65,2.62-3.28,6.6-4.22,11.26-.11.52-.14,1.15.56,1.13-1.37,1.34-2.58,3.15-3.94,4.5-1.6,1.6-4.09,3.52-5.07,4.5-.57.07-.47-.23-.56-.56-.06-.19.08-.49,0-.56,1.49-.73,7.5-6.69,7.88-7.6,1.75-4.24-.46-6.95,2.25-12.1,1.51-1.25,5.31-2.98,7.04-3.38,4.56-1.04,9.66,1.66,10.98-4.5.46-2.17-.4-5.74.56-8.16.34-.86,9.82-12.85,11.26-14.64,1.28-1.59,5.86-3.99,6.19-5.07.56-1.77-.38-6.21,0-8.45,1.19-6.92,6.02-4.97,7.32-7.32.46-.83-.27-2.77.56-3.94s6.58-8.92,7.04-9.29c2.69-2.15,14.28-4.95,14.92-6.47.36-.86-.17-9.24.56-12.1,1.5-5.86,7.77-7.02,9.57-11.54.51-1.27,1.66-9.72,1.69-11.26.19-10.07-3.21-7.66-9.01-14.92-2.02-2.52-3.88-3.23-3.66-6.76-1.24,5.95-3.04,1.41-6.19,2.82-2.23.99.41,7.92-.28,9.85-.43,1.2-5.05,2.9-6.19,5.35l-3.1,3.38c-1.17-4,7.56-7.38,8.16-9.29.63-2.01-1.52-7.73-.56-9.57s5.44-.09,5.91-.28c2.63-1.07-1.33-11.45-2.25-11.82-.61-.25-7.15.98-9.01-1.69-1.83,2.23,2,2.85,1.97,3.1-.04.3-2.14.79-2.25,1.13-.47,1.43.5,3.45-.56,5.07-.36.54-3.07,1.11-3.94,2.25-.82,1.07-5.49,8.32-5.63,9.01-.2.97,1.17,3.92.56,5.63-.46,1.29-6.71,3.66-7.88,5.35h-.56c.58-2.49,6.66-4.35,7.32-5.35,1.47-2.25-.82-4.19-.56-5.63.58-3.26,5.39-6.99,6.19-10.42,3.23-2.61,5.53-1.35,3.94-8.73-.71-3.29-6.35-4.88-8.73-3.66-.91.47-.13,4.49-3.94,6.76s-7.39.64-9.57,1.13c-1.53.34-6.72,6.37-9.57,6.76-2.03-.44,0-1.3.56-1.69,2.84-1.96,6.88-4.12,9.85-6.19,4.87,1.42,11.3-1.04,11.26-6.47-.56-.78-10.79-1.02-12.39-.84l.56-2.25c9.55.31,19.17.25,28.71.56Z" fill="#fff"/>
        <path d="M264.2,446.92c-.94-.21-1.31-1.47-2.25-1.69-.2-.75-.46.4,0-1.13l2.25,2.82Z" fill="#e2d1e6"/>
        <path d="M259.41,444.1c1.33.16.35,2.52-.56,1.13-.37-.56.5-1.13.56-1.13Z" fill="#8152a1"/>
      </g>
      <path d="M280.53,385.55c.37.93-.68,2.36.84,3.38.62.42,4.04-.32,5.35,1.97.7,1.22.38,4.39.56,5.91.02.18-.04.39,0,.56.08.31-.04.77,0,1.13-.37-.01-.76-.04-1.13,0-.25.03-.22-2.47-3.38,1.13l-4.5-9.57c.74-1.6,1.01-4.64,2.25-4.5Z" fill="#2c4390"/>
      <path d="M286.16,398.5l-4.5,5.07c.06-1.53-.04-2.62,1.13-3.94,3.16-3.59,3.13-1.1,3.38-1.13Z" fill="#dfe1ee"/>
      <g>
        <path d="M300.23,399.63c1.36,1.7,3.66,2.49,3.94,3.1,1.15,2.49-4.61,8.69-5.07,11.82-.12.81,1.41,2.83,1.13,4.5s-3.31,4.34-1.13,6.47c-10.01,10.07-19.71,20.41-29.84,30.4-1.65-1.76,3.8-4.23,3.94-5.35.16-1.26-2.23-2.64-2.25-2.82-.45-3.03.96-8.33-1.69-11.54.26-1.25-.77-4.37-.56-5.35.88-4.19,7.17-11.25,9.57-16.89,1.13-2.66,2.11.24,1.69-6.47.74,1.27,2.76,7.13,2.82,8.16.15,2.66-2.27,4.09-1.13,6.19.61-1,2.87-6.63,2.82-7.32-.21-2.86-2.1-3.32-2.25-4.5-.21-1.69.14-3.62,0-5.35-.05-.57-.58-.62-.56-1.13l4.5-5.07c.36-.04.76-.01,1.13,0,.42.01.85.16,1.13-.28l-1.13-.84c-.04-.17.02-.38,0-.56l.84-5.63c7.41,2.35,7.6,2.82,12.1,8.45Z" fill="#282b66"/>
        <path d="M282.22,404.69c.14,1.73-.21,3.66,0,5.35.15,1.19,2.04,1.64,2.25,4.5.05.69-2.21,6.32-2.82,7.32-1.15-2.1,1.27-3.53,1.13-6.19-.06-1.03-2.07-6.9-2.82-8.16-.04-.56-.81-1.09-.56-2.53,2.17-1.97-.28,1.23,1.41,1.97l1.41-2.25Z" fill="#d0cfe5"/>
        <path d="M287.28,398.5c-.04-.36.08-.82,0-1.13l1.13.84c-.28.45-.71.3-1.13.28Z" fill="#dfe1ee"/>
        <path d="M281.37,425.52c.27-.02.38.49.28.84-.32,2.09-1-.8-.28-.84Z" fill="#7e89b1"/>
      </g>
      <path d="M280.53,385.55c-1.24-.14-1.51,2.91-2.25,4.5-.59,1.26.28,1.65-.84,1.69-1.95-2.82-3.53-2.17-3.66-6.19-.03-1.03.02-2.07,0-3.1.3-1.53,6.26.57,6.47.84.59.75.02,1.59.28,2.25Z" fill="#3c54a5"/>
      <path d="M184.82,528.56c-3.93-3.07-1.19.93-3.66,0-.64-.24-.74-2.45-.84-2.53-.74-.59-4.04-1.83-4.22-1.97-1.97-1.58-.62-2.96-3.1-3.94-.36-1.34,1.27-1.72,1.69-2.25-.45,3.88,8.66,4.11,4.79,6.19,3.35-.73,4.63,1.57,5.35,4.5Z" fill="#be6e8b"/>
      <g>
        <path d="M262.51,426.09c-2.73,1.15-1.81,6.15-2.82,8.16-1.33,2.67-7.03,3.79-9.85,5.91-5.11,3.83-7.13,9.6-10.98,14.36-2.36,2.91-7.04,5.2-9.01,8.45s-1.46,8.62-2.25,10.7c-1,2.63-10.8,11.85-13.51,15.76-.99,1.43-2.93.17-2.82,5.07,0,.23,1.05.7,1.13,1.41-3.51-2.08-5.45-3.3-5.91,1.69-2.96-3.72-7.88,3.31-10.42,5.07-5.8,4-3.58,1.31-10.13.56,11.62-14.87,22.81-30.11,34.34-45.04.71-.92,2.01-1.78,2.82-2.82,1.33,2.55,9.74,2.25,5.91,0,10.78-1.01,13.56-11.74,20.83-18.02.31-.27,4.04-1.31,4.5-1.69,4.06-3.31,14.55-23.63,15.48-29,.23-1.31.85-7.6.56-8.45-.72-2.14-9.76-4.97-5.63-9.85,5.8,7.26,9.2,4.85,9.01,14.92-.03,1.54-1.18,9.99-1.69,11.26-1.8,4.52-8.07,5.68-9.57,11.54Z" fill="#673b97"/>
        <path d="M219.44,470.57c.7,1.03.22,2.33-.56,1.13-.4-.61.22-.68.56-1.13Z" fill="#f8cab3"/>
      </g>
    </g>
  </g>
  <path d="M829.07,481.01c3.49,10.17,7.82,20.09,13.86,29.12l-19.45,7.72c-5.42-6.81-7.43-15.94-11.46-23.09-.73-1.29.06-1.9-2.56-1.43l-7.2,18.8-20.52,3.6c8.94-27.81,22.37-54.05,34.93-80.43,13.5-5.8,53.94-13.79,59.21,5.29,5.08,18.39-30.41,39.19-46.8,40.4ZM822.15,465.29c17.98-1.11,47.74-25.99,8.34-16.56l-8.34,16.56Z" display="none" fill="#108040"/>
  <path d="M808.29,421.59c-14.9,28.1-25.47,58.1-37.57,87.4-2.37,2.67-24.18,9.43-25.93,7.88l12.69-25.23c-2.48-1.37-11.88.43-13.57,1.97-2.96,2.7-8.12,16.3-10.72,18.17-2.54,1.83-22.27,5.33-24.19,3.96,10.69-20.2,22.41-40.14,36.01-58.64,3.96-5.39,14.69-20.49,19.37-23.8,4.42-3.13,41.7-13.4,43.92-11.71ZM774.8,449.61l-4.6.57c-2.25,1.37-14.82,19.89-13.87,20.72,2.41-.12,8.32-.53,9.8-2.24.69-.8,9.46-18.35,8.66-19.05Z" display="none" fill="#108040"/>
  <path d="M650.1,517.99c7.94-18.54,15.06-37.57,24.04-55.68,3.43-6.91,12.87-26.46,17.49-31.22,6.49-6.68,27.35-8.55,36.07-5.82,14.39,4.5,12.32,14.84,7.67,25.87-9.52,22.57-28.59,30.12-51.77,34.94l-12.06,26.41-21.45,5.51ZM693.98,463.05c8.65,3.35,29.46-15.78,15.34-17.71-9.5-1.3-12.16,10.88-15.34,17.71Z" display="none" fill="#108040"/>
  <path d="M542.72,426.06v19.62l2.29,8.4,16.5-24.34c9.72-2.74,19.63-2.87,29.7-2.55-23.02,27.24-43.32,56.51-63.42,85.84-7.36,3.73-16.25,4.07-24.33,3.83l19.61-33.11-4.42-46.79c1.76-6,18.22-10.3,24.06-10.91Z" display="none" fill="#108040"/>
  <g id="Generative_Object2" data-name="Generative_Object">
    <g>
      <g>
        <path d="M912.39,438.92c-.58.36-2.19.15-2.41.3-2.44,1.68-10.7,18.08-12.63,21.95-2.07,4.16-3.9,9.28-5.41,12.63-3.23,7.15-7.31,14.84-10.22,21.95-.47,1.14-.87,1.56,0,2.71-.37.48-.58.57-.6.6-1.62,2.16-1.75.53-1.8.6.82-2.85,1.94-5.66,3.01-8.42,1.77-4.56,3.48-9.34,5.41-13.83,2-4.64,5.46-10.12,7.82-14.73-5.36-1.07-11.56-.4-15.03-5.71.04-.37.07-.85,0-1.2,1.62-2.7,3.49-5.94,4.21-9.02,3.13-4.77,4.21-10.49,7.82-15.03,4.9-.19,9.34-3.02,14.13-3.61,2.53-.31,6,1.39,6.61,1.2.56-.17,2.89-4.89,5.11-6.01,1.45-.73,3.43-2,3.01.9-.13.85-7.79,12.61-9.02,14.73Z" fill="#a6c5e8"/>
        <path d="M902.76,475c-.08.33-.02.83,0,1.2.18,3.19,8.25,16.3,7.82,17.14-8.17-1.84-12.89,3.62-16.84,9.92-.86-1.88-2.1-7.21-4.21-5.41-.14-.29-3.33-5.09-3.61-5.41-.11-.12.25-1.03-.3-1.2-.51.25-.68.91-.9,1.2-1.25,1.65-1.4,3.9-3.01,6.01-.87-1.15-.47-1.57,0-2.71,2.91-7.11,7-14.8,10.22-21.95h9.32c.47.36.86,1.18,1.5,1.2Z" fill="#4576bb"/>
        <path d="M882.32,491.23c-1.07,2.76-2.19,5.57-3.01,8.42-3.37,4.43-1.61,10.16-5.71,12.03-1.27.58-12.96,1.41-13.53.3l1.2-11.73c1.41-3.02,3.51-10.38,5.41-12.63,2.9-3.44,12.23-2.63,15.93-.6,1.02.56-1.74,3.49-.3,4.21Z" fill="#4861ad"/>
        <path d="M912.39,438.92c-2.4,4.16-7.44,11.09-9.02,15.03-.02.06-1.29.21-.3,1.2l.9-.6c3.78-1.63,7.2-4.11,10.82-6.01-1.8,5.65,8.76,3.29,12.33,4.81,1.82.78,4.08,4.38,6.31,5.41-1.78.93-12.1,7.28-12.93,7.22-.96-.08-1.52-2.07-3.01-2.41-7.04-1.57-12.83-2.76-20.14-2.41,1.92-3.86,10.18-20.27,12.63-21.95.21-.15,1.83.06,2.41-.3Z" fill="#6abbe9"/>
        <path d="M917.8,507.47c-14.63,4.84-16.36,12.56-24.05-4.21,3.95-6.31,8.66-11.77,16.84-9.92.44-.83-7.64-13.95-7.82-17.14l15.03,31.27Z" fill="#4861ad"/>
        <path d="M938.24,457.56c-5.57,3.22-30.47,17.53-34.88,17.44-.04-.83-.41-.8-.6,0-.64-.03-1.03-.84-1.5-1.2h-9.32c1.51-3.34,3.34-8.46,5.41-12.63,7.31-.35,13.1.83,20.14,2.41,1.48.33,2.05,2.33,3.01,2.41.83.07,11.14-6.28,12.93-7.22,1.03-.54,4.43-2.44,4.81-1.2Z" fill="#539dd5"/>
        <path d="M949.67,438.92c.46,1.8.52,2.34.6,4.21-2.73,4.16-9.55,11.02-14.73,9.62-1.05-.28-3.16-2.77-3.61-3.01-.97-.5-1.35,2.78-3.31-.9-1.51-2.84-1.13-4.45,0-6.91,3.65-1.94,9.5-4.29,12.63-6.61,3.19,1.11,5.02,4.71,8.42,3.61Z" fill="#d1ebf9"/>
        <path d="M928.62,441.93c-1.13,2.47-1.51,4.08,0,6.91,1.95,3.68,2.34.4,3.31.9.45.23,2.56,2.72,3.61,3.01,5.18,1.39,12.01-5.46,14.73-9.62.52,11.35-4.19,9.9-12.03,14.43-.38-1.24-3.78.66-4.81,1.2-2.24-1.03-4.49-4.64-6.31-5.41-3.57-1.52-14.12.83-12.33-4.81,4.48-2.35,9.41-4.27,13.83-6.61Z" fill="#9fd8f6"/>
        <path d="M887.73,477.4c-1.93,4.49-3.64,9.27-5.41,13.83-1.44-.72,1.32-3.65.3-4.21-3.7-2.03-13.04-2.83-15.93.6.05-.38-.1-.95,0-1.2,1.34-3.44,4.33-8.34,6.01-12.03,5.41,1.65,9.09,3.8,15.03,3.01Z" fill="#4576bb"/>
        <path d="M861.27,500.25l-1.2,11.73c.57,1.11,12.25.28,13.53-.3,4.11-1.87,2.34-7.59,5.71-12.03.06-.08.18,1.56,1.8-.6-.16,2.84-3.6,11.96-5.71,13.23-1.58.95-20.8,5.44-21.35,3.91,2.03-5.49,4.75-10.65,7.22-15.93Z" fill="#2d4096"/>
        <path d="M918.4,423.29c-2.22,1.12-4.55,5.84-5.11,6.01-.62.19-4.08-1.51-6.61-1.2-4.79.59-9.23,3.42-14.13,3.61,5.05-6.35,17.73-7.44,25.86-8.42Z" fill="#fff"/>
        <path d="M893.74,503.26c7.69,16.77,9.42,9.05,24.05,4.21l-20.14,10.22c-1.29-.51-6.96-17.48-8.12-19.84,2.11-1.8,3.35,3.54,4.21,5.41Z" fill="#2d4096"/>
        <path d="M949.67,438.92c-3.4,1.1-5.23-2.5-8.42-3.61,1.46-1.08,1.9-2.7,2.71-4.21,4.71,1.94,4.54,3.23,5.71,7.82Z" fill="#fff"/>
        <path d="M887.73,477.4c-5.95.8-9.62-1.36-15.03-3.01,1.32-2.89,7.62-15.61,7.82-17.44,3.47,5.31,9.67,4.65,15.03,5.71-2.36,4.61-5.82,10.09-7.82,14.73Z" fill="#628ac7"/>
      </g>
      <g>
        <g>
          <path d="M688.7,446.74c-5.64,5.46-10.09,13.67-15.03,19.84,3.5-7.52,6.34-16.72,10.22-24.65l4.81,4.81Z" fill="#ec7755"/>
          <path d="M719.37,458.16c1.21,1.27,2.42,3.44,1.2,4.81-4.93-.65-9.31.97-13.23-3.61.51-.39,4.57-4.91,4.81-5.41,5.19-.98,2.86,2.02,4.21,3.31,1.44,1.38,2.88.77,3.01.9Z" fill="#ea4d51"/>
        </g>
        <path d="M815.58,475.6c-4.86,7.07-8.59,27.93-14.13,33.07-1.29,1.2-16.78,5.3-17.14,3.91,1.2-5.33,7.13-13.29,6.01-18.34-.12-.55.07-1.23,0-1.8,2.98-1.92,8.73-17.51,10.22-21.65,2.07-3.09,3.16-6.34,4.81-9.62.74,3.97,13.08,2.27,13.83,3.31l-3.61,11.12Z" fill="#c5233a"/>
      </g>
    </g>
    <g>
      <g>
        <g>
          <path d="M588.29,429.3l-61.63,85.38-22.55,3.31c-1.49-1.82,14.74-26.11,16.84-29.76-.72,4.7,12.61,5.55,15.33,4.81,1.32-.36,13.65-19.46,15.93-22.25,1.78-2.17,2.84-.41,4.21-2.1,10.24-12.66,18.68-26.81,29.76-38.78.46-.5,1.62-2.06,2.1-.6Z" fill="#612a7a"/>
          <path d="M544.99,425.69c-2.53-.11-1.82-.41-2.41,1.5-2.6,8.49-1.27,21.52-.6,30.37-.85,1.16-1.58,2.48-2.41,3.61-2.38,3.27-5.46,6.37-7.82,9.62-6.79-1.85-3.23-3.75-4.81-7.52-.41-.99-1.6.65-1.8,0-1.43-4.45-.52-9.41-1.2-13.83-.18-1.18-1.76-3.41-1.8-3.61-.19-.99.89-7.54-1.8-5.71-.05-.59.04-1.21,0-1.8,2.92.39.9-8.02-.6-7.82,1.34-2.53,21.12-7.15,23.75-6.61.38.08,1.26,1.35,1.5,1.8Z" fill="#be4d9c"/>
          <path d="M588.29,429.3c-.49-1.46-1.64.1-2.1.6-11.08,11.98-19.52,26.12-29.76,38.78-1.37,1.7-2.43-.06-4.21,2.1-5.84-2.78-19.36.47-12.63-9.62.82-1.13,1.55-2.45,2.41-3.61,1.61-2.19,3.18-4.43,4.81-6.61.9-1.21,1.77-2.72,3.01-3.61-.71,1.41-1.96,3.82-2.1,5.41,1.47-2.26,4.28-.68,6.01-1.2,5.92-1.8,3.61-2.89,12.63-3.01.45,0-.07,1.39,1.2,1.2,1.16-.17,11.8-16.14,14.13-18.64,1.09-1.17,4.8-1.86,4.21-4.81,1.75.35,4.18.99,2.41,3.01Z" fill="#be4d9c"/>
          <path d="M552.21,470.79c-2.28,2.79-14.61,21.89-15.93,22.25-2.73.74-16.06-.11-15.33-4.81,1.62-2.82,4.27-4.52,3.01-7.82,3.87-.7,5.76-6.79,7.82-9.62,2.36-3.25,5.44-6.35,7.82-9.62-6.73,10.09,6.79,6.84,12.63,9.62Z" fill="#944098"/>
          <path d="M581.67,431.1c-2.33,2.5-12.97,18.47-14.13,18.64-1.27.19-.76-1.21-1.2-1.2-9.02.12-6.71,1.21-12.63,3.01-1.73.52-4.55-1.06-6.01,1.2.15-1.59,1.39-4.01,2.1-5.41,2.01-3.99,4.53-7.31,7.22-10.82,3.55,1.01,6.33-5.87,9.32-6.61s12.6-.3,15.33,1.2Z" fill="#e66fab"/>
          <path d="M531.76,470.79c-2.05,2.83-3.95,8.92-7.82,9.62v-.6c.8-6.37-1.8-24.81-2.41-32.47-.17-2.14-1.03-5.08-1.2-7.22,2.69-1.83,1.61,4.73,1.8,5.71.04.2,1.62,2.43,1.8,3.61.68,4.42-.22,9.38,1.2,13.83.21.65,1.39-.99,1.8,0,1.58,3.77-1.98,5.66,4.81,7.52Z" fill="#be4d9c"/>
          <path d="M544.99,425.69c3.03,5.73-.31,18.81,1.8,25.25-1.63,2.18-3.2,4.42-4.81,6.61-.67-8.84-2-21.88.6-30.37.59-1.91-.12-1.61,2.41-1.5Z" fill="#e39cc4"/>
          <path d="M585.88,426.29c.59,2.95-3.12,3.64-4.21,4.81-2.74-1.5-12.48-1.91-15.33-1.2-2.99.74-5.77,7.62-9.32,6.61,1.67-2.18,6.37-9.62,8.72-10.22,1.36-.34,18.52-.32,20.14,0Z" fill="#e66fab"/>
          <path d="M520.34,438.32c-.17-2.26-1.66-5.83-.6-7.82,1.51-.21,3.53,8.21.6,7.82Z" fill="#e66fab"/>
        </g>
        <g>
          <path d="M502.9,460.57c-2.05,2.04-5.59,5.67-7.82,7.22-9.7,6.74-21.45,10.83-32.77,13.83l-.9.9c.25.39,1.17,1.99,1.2,2.1,2.31,8.89,9.62,18.21,13.23,26.76-.12,2.27-17.14,6.8-20.14,7.52l-12.03-25.25c-1.7.17-6.83,17.02-9.02,18.64-2.84,2.11-16.44,2.72-20.44,4.81-1.5-.98,5.94-15.85,6.91-18.04,1.25-2.8,6.44-13.02,6.61-15.03,1.34-2.26,2.53-4.82,3.61-7.22l13.83.6c-.6,3.76-1.88,7.55-1.5,11.42,1.3-1.5,4.66-11.56,5.41-12.03.85-.53,16.59-2.16,19.84-3.01,14.51-3.79,31.31-10.72,39.38-24.05-.87,4.49-3.14,7.1-5.41,10.82Z" fill="#612a7a"/>
          <path d="M503.5,434.71c.11.3-.03.69.6.6.06.04.52,1.13.6,1.2-3.43,2.07-9.46-.39-12.93.6-1.2.34-4.75,5.94-6.61,6.01-.54.02-4.73-2.78-6.61-3.01-3.07-.37-10.93-.26-13.83.6-9.74,2.89-9.44,21.47-23.75,14.43,2.35-4.96,5.96-15.49,9.02-19.24,13.61-3.04,41.14-7.99,53.52-1.2Z" fill="#e66fab"/>
          <path d="M503.5,434.71c-12.37-6.79-39.9-1.84-53.52,1.2,4.64-5.68,30.72-9.12,38.18-8.42,4.01.38,13.85,3.16,15.33,7.22Z" fill="#fff"/>
          <path d="M445.18,477.4l-13.83-.6c1.98-4.41,4.04-8.82,6.01-13.23,1.73,2.67,3.25-.26,5.11,0,7.51,1.06,3.44,9.19,2.71,13.83Z" fill="#944098"/>
          <path d="M461.41,455.76c.08-.32.44-1,.6-1.2,1.8.86,1.39,1.4-.6,1.2Z" fill="#fde3e0"/>
        </g>
      </g>
      <g>
        <path d="M369.41,425.69l-24.95,3.01c-1.89,1.23-4.97,4.83-6.91,2.71,1.31.08,3.78-1.85,1.5-2.1-8.2,3.29-26.26,1.71-33.37,5.41,1.65-5.75,24.3-4.77,29.76-5.41,11.29-1.33,22.42-4.59,33.97-3.61Z" fill="#fff"/>
        <g>
          <path d="M421.73,468.99c-1.21,3.28-5.79,10.9-6.01,13.23-.02.18-.02.42,0,.6-.85,1.4-2.78,2.42-3.61,3.61-3.35-5.93-3.42.45-4.21,1.5-1.33,1.78-7.27,6.95-2.41,8.12-.05.19.03.41,0,.6-20.47,25.67-65.57,34.92-52.31-13.83.79-2.91,3.51-7.8,4.81-10.82-.46,8.39-3.13,15.9-1.2,24.65,2.11,9.54,10.75,14.41,20.14,12.03,3.15-.8,4.4-3.03,7.52-4.81,11.81-6.75,18.64-14.21,27.06-24.65.04-.05.32,1.42,1.2.3,2.72-3.46,4.3-8.69,6.91-12.33l2.1,1.8Z" fill="#743795"/>
          <path d="M404.89,426.9c4.17-.19,11.84.13,15.63,1.8.04.02-.1.18.6.6.04.02.42.43.6.6.03.03-.08.71.6.6,3.52,4.53,4.45,8.11,4.81,13.83.07,1.18.02,2.43,0,3.61-.06,3.2-.52,7.12-1.2,10.22-.72,3.28-3.01,7.58-4.21,10.82l-2.1-1.8c-2.61,3.64-4.2,8.87-6.91,12.33-.88,1.12-1.16-.35-1.2-.3,25.03-35.19.68-71.35-34.27-32.77-.95,1.05-9.86,15.58-11.42,12.63l.6-2.71c.59-.89,1.38-3.02,1.8-3.61,5.84-7.99,18.34-19.44,27.66-22.85.3-.11.69.03.6-.6.38-.06.82.05,1.2,0,.45-.06.67-.08.6-.6.19-.04.42.05.6,0,1.13-.31,1.14-.58,1.2-.6.38-.14,1.24.33,1.2-.6.19-.04.41.04.6,0,1.02-.2,1.71-.59,1.8-.6.39-.04.81.02,1.2,0Z" fill="#e39cc4"/>
          <path d="M426.54,458.16c-2.14,7.28-4.63,13.84-8.42,20.44-.7,1.23-.96,2.91-2.41,3.61.23-2.33,4.8-9.95,6.01-13.23s3.49-7.54,4.21-10.82h.6Z" fill="#e3bcd9"/>
          <path d="M420.52,428.7c-3.79-1.68-11.47-1.99-15.63-1.8,6.13-2.21,10.49-1.91,15.63,1.8Z" fill="#fff"/>
          <path d="M427.14,447.94c.02-1.18.07-2.43,0-3.61v3.61Z" fill="#fff"/>
          <path d="M371.82,425.69c-.45-.14-1.23.07-1.8,0h1.8Z" fill="#fff"/>
          <path d="M403.69,426.9c-.09,0-.79.4-1.8.6l1.8-.6Z" fill="#fff"/>
          <path d="M401.28,427.5c.03.93-.83.46-1.2.6.06-.03-.07-.32,1.2-.6Z" fill="#fff"/>
          <path d="M400.08,428.1c-.06.02-.07.29-1.2.6-.04-.94.86-.46,1.2-.6Z" fill="#fff"/>
          <path d="M397.67,429.3c-.07-.57.2-.51.6-.6.06.53-.15.54-.6.6Z" fill="#fff"/>
          <path d="M421.12,429.3c-.7-.42-.56-.58-.6-.6.51.37.55.56.6.6Z" fill="#fff"/>
          <path d="M903.37,475c-.2,0-.4,0-.6,0,.19-.8.56-.83.6,0Z" fill="#fff"/>
          <path d="M395.87,429.9c-.07-.54.16-.53.6-.6.08.63-.3.49-.6.6Z" fill="#fff"/>
          <path d="M421.73,429.9c-.18-.17-.56-.58-.6-.6.27.23.37.36.6.6Z" fill="#fff"/>
          <path d="M422.33,430.5c-.68.11-.57-.57-.6-.6.1.11.26.17.6.6Z" fill="#fff"/>
          <path d="M885.93,492.44h-1.2c.22-.29.4-.95.9-1.2.55.17.19,1.08.3,1.2Z" fill="#fff"/>
          <path d="M903.97,454.55l-.9.6c-.99-1,.28-1.15.3-1.2l.6.6Z" fill="#fff"/>
          <path d="M673.07,467.78c-.37-1.15.5-1.07.6-1.2-.2.42-.44.85-.6,1.2Z" fill="#fff"/>
          <path d="M504.1,435.31c-.63.08-.49-.3-.6-.6.74.41.57.58.6.6Z" fill="#fff"/>
          <path d="M305.07,435.31s-.16-.21.6-.6c-.1.36,0,.68-.6.6Z" fill="#fff"/>
          <path d="M384.45,503.86c-3.11,1.78-4.37,4.01-7.52,4.81-9.39,2.39-18.04-2.48-20.14-12.03,3.31-1.99.08-4.49,5.11-4.81,1.4,10.83,6.49,14.65,17.44,13.23,1.19-.15,3.86-2.74,5.11-1.2Z" fill="#944098"/>
          <path d="M412.11,486.42c-.24.35-.58,2.15-1.2,3.01-.86,1.17-5.28,6.06-5.41,6.61-4.86-1.17,1.07-6.33,2.41-8.12.79-1.06.86-7.44,4.21-1.5Z" fill="#a053a0"/>
          <g>
            <path d="M402.48,449.74l-.6.6c-8.3-2.04-21.35,15.74-24.65,22.25-.59,1.17-1.33,2.39-1.8,3.61-.27.69-.58,1.14-.6,1.2l-.6-.9v2.1c-1.28,4.62-1.2,6.57-1.2,11.42v1.2c-8.73-9.11,8.89-35.07,17.74-40.29,4.46-2.63,7.98-3.67,11.73-1.2Z" fill="#b969aa"/>
            <path d="M391.66,482.82c.04-.39-.09-.89,0-1.2.48-1.71,6.83-9.81,8.42-13.23s7.76-16.57,1.8-18.04l.6-.6c8.67,5.71-5.74,27.31-10.82,33.07Z" fill="#e3bcd9"/>
            <path d="M374.83,477.4c-.32.93-.58,1.14-.6,1.2v-2.1l.6.9Z" fill="#e3bcd9"/>
          </g>
        </g>
      </g>
    </g>
  </g>
  <g id="Generative_Object3" data-name="Generative_Object">
    <g>
      <path d="M298.46,446.14c16.49-6.34,33.71-10.55,51.41-12.03,2.79-.23,16.98.76,17.74.3.34-.21,2.54-6.44,3.61-7.22-22.46-1.42-45.07,5.66-67.35,9.32,22.59-8.03,46.75-10.58,70.65-12.03.99.58-9.04,20.01-9.92,20.74-2.54,2.11-17.62.14-21.95,2.1-3.36,1.53-28.43,55.51-33.37,63.44-.36.57.64,1.15.6,1.2-2.68,3.77-17.96,5.17-22.55,6.91l30.97-66.44c-.31-2.63-22.47,5.31-24.95,6.31-2.62-.41,4.74-11.94,5.11-12.63Z" fill="url(#linear-gradient3)"/>
      <path d="M576.26,444.93c-9.17,12.48-18.35,24.9-27.66,37.28-.8-.26-3.85,2.59-4.21,3.01-6.59-1.71-14.92,3.3-20.44-1.8.12-.48-.05-1.22,0-1.8.99,1.01,1.93-.83,2.41-1.5,2.96-4.16,5.5-9.22,8.42-13.53,2.48-3.66,5.18-7.26,7.82-10.82,2.39-1.24,8.18,6.01,8.72,6.01.84,0,11.09-10.99,11.73-12.03,1.19-.03,5.37,1.59,6.31,1.2,2.3-.94,4.15-7.68,6.91-6.01Z" fill="#ee7e31"/>
      <path d="M576.26,444.93c-2.77-1.66-4.61,5.08-6.91,6.01-.94.38-5.12-1.24-6.31-1.2.57-.91,1.81-1.71.9-3.01-2.35-.67-8.13-5.73-10.22-5.41-1.38.21-9.11,11.35-10.52,13.23-.38-1.85,1.05-6.14-1.2-6.01,2.1-2.32,1.09-6.79,1.2-10.22.13-3.81-.28-7.65,0-11.42.12.02,1.21-1.59,2.41.3l-.6,19.24,2.1.3,12.03-20.44,30.67-.6c2.07.76-12.6,17.97-13.53,19.24Z" fill="#fec867"/>
      <path d="M298.46,446.14c1.4-2.63,1.87-8.88,5.41-9.62,22.27-3.66,44.88-10.74,67.35-9.32-1.06.78-3.26,7.01-3.61,7.22-.76.46-14.95-.53-17.74-.3-17.7,1.47-34.92,5.69-51.41,12.03Z" fill="#577abc"/>
      <path d="M548.6,482.21c-3.5,4.66-20.05,29.71-22.55,31.27-2.11,1.32-21.02,5.15-22.85,4.21-.86-1.08,1.18-2.28,1.5-3.01,6.15-1.48,10.7-16.83,14.13-18.64,2.57-1.36,10.9,1.63,12.63,3.61,1.31-1.45,5.16-3.26,6.31-4.51,1.08-1.17,4.55-7.53,6.61-9.92.36-.42,3.41-3.27,4.21-3.01Z" fill="#8d2b1d"/>
      <path d="M540.18,426.9c-2.76,4.19-3.15,9.7-4.21,14.43-.55,2.47-1.23,4.79-1.8,7.22-4.48.67-8.7,1.83-13.23.6-.06-.79.05-1.61,0-2.41-.33-5.31-.94-10.58-.6-15.93.59-2.1,16.85-3.86,19.84-3.91Z" fill="#fce893"/>
      <path d="M544.39,485.22c-2.06,2.39-5.54,8.75-6.61,9.92-1.16,1.25-5,3.05-6.31,4.51-1.72-1.98-10.06-4.96-12.63-3.61-3.43,1.81-7.98,17.16-14.13,18.64,2.15-4.81,5.11-9.92,7.82-14.43,1.76-2.93,10.94-14.95,11.42-16.84,5.53,5.11,13.86.09,20.44,1.8Z" fill="#b14025"/>
      <g>
        <path d="M428.34,454.55c-4.82,23.51-30.72,60.4-56.22,62.53-23.93,2-23.9-15.07-19.54-33.07,6.49,1.58,8.48-1.37,12.93-3.61.9-.45,2.02,1.01,3.01.6.9-.37,6.24-14.1,8.72-17.44,4.8-6.45,14.52-14.92,22.85-13.23-24.39.37-43.15,72.43-7.22,29.76,4.65-5.52,18.54-24.2,9.02-29.16,1.45-2.54,5.95,1.81,6.31,1.8.19,0,1.55-2.13,3.01-2.41,4.88-.91,7.88-.7,12.63-3.01.51-.25-.25-2.65,3.01-1.8l-.9,11.73,2.41-2.71Z" fill="url(#linear-gradient4)"/>
        <path d="M429.54,443.13c.3,4.28-.37,7.36-1.2,11.42l-2.41,2.71.9-11.73c-3.26-.84-2.5,1.56-3.01,1.8-4.75,2.3-7.74,2.09-12.63,3.01-1.45.27-2.81,2.4-3.01,2.41-.36.01-4.86-4.35-6.31-1.8-.76-.4-.98-.43-1.8-.6-8.33-1.69-18.04,6.78-22.85,13.23-3.68-1.9-8.55,11.39-9.32,11.42-2.91-.63,2.28-6.04.6-6.61l-3.61,7.22c-2.82-3.51-5.66-2.08-7.52-5.41,4.09-8.92,9.17-16.17,15.63-23.45,2.46.64,6.36-2,8.12-2.41.17-.04,1.59,1.81,1.8,1.8.46-.02,6.06-4.17,7.82-4.81,3.35-1.23,7.37-2.9,10.82-3.61,5.08-1.04,18.83-.2,20.74-3.91.06-.12-2.53-2.28-.3-2.71,1.5-.29,4.02,4.59,4.51,5.71.77,1.77-.11,7.66,3.01,6.31Z" fill="#9454a1"/>
        <path d="M429.54,443.13c-3.12,1.35-2.23-4.54-3.01-6.31-.49-1.12-3.01-6-4.51-5.71-2.23.43.36,2.58.3,2.71-1.92,3.7-15.67,2.87-20.74,3.91-3.45.71-7.47,2.38-10.82,3.61-1.76.64-7.36,4.79-7.82,4.81-.22,0-1.63-1.84-1.8-1.8-1.76.41-5.66,3.05-8.12,2.41,10.55-11.88,23.08-21.65,39.99-20.44,5.51.39,12.34,3.43,14.73,8.72.73,1.61,1.68,6.28,1.8,8.12Z" fill="#ac73b1"/>
        <path d="M377.23,463.57c-2.48,3.33-7.82,17.06-8.72,17.44-.99.41-2.11-1.05-3.01-.6-4.45,2.23-6.44,5.19-12.93,3.61,1.21-4.99,2.68-9.19,4.81-13.83,1.86,3.33,4.69,1.9,7.52,5.41l3.61-7.22c1.68.57-3.51,5.98-.6,6.61.77-.04,5.64-13.33,9.32-11.42Z" fill="#742a85"/>
      </g>
      <path d="M543.19,426.9c-.28,3.78.13,7.62,0,11.42l-7.22,3.01c1.06-4.73,1.45-10.24,4.21-14.43,1.2-.02.84-.41,3.01,0Z" fill="#fce893"/>
      <path d="M541.99,448.54c2.26-.12.82,4.16,1.2,6.01-.59.78-.56,1.15-.6,1.2-2.63,3.56-5.34,7.16-7.82,10.82l-7.52-3.01-5.11,1.2c-.14-1.98.1-4.03,0-6.01,1.07-.06,9.85-4.51,11.42-5.41,1.18-.67,8.09-4.45,8.42-4.81Z" fill="#ef982c"/>
      <path d="M534.77,466.58c-2.92,4.31-5.46,9.37-8.42,13.53-.48.67-1.42,2.52-2.41,1.5.39-4.22-1.47-12.15-1.8-16.84l5.11-1.2,7.52,3.01Z" fill="#d07328"/>
      <path d="M534.17,448.54c-.38,1.62-.87,3.08-.6,4.81-1.58.9-10.35,5.36-11.42,5.41-.2.01-.41.01-.6,0,.31-3.25-.37-6.41-.6-9.62,4.53,1.23,8.75.07,13.23-.6Z" fill="#fec867"/>
      <path d="M563.03,449.74c-.64,1.03-10.89,12.03-11.73,12.03-.54,0-6.33-7.25-8.72-6.01.04-.05.01-.42.6-1.2,1.41-1.88,9.14-13.02,10.52-13.23,2.09-.32,7.87,4.75,10.22,5.41.91,1.3-.34,2.09-.9,3.01Z" fill="#fec867"/>
      <path d="M543.19,438.32c-.12,3.43.9,7.9-1.2,10.22-.33.36-7.24,4.14-8.42,4.81-.27-1.73.22-3.19.6-4.81.57-2.42,1.25-4.75,1.8-7.22l7.22-3.01Z" fill="#fec867"/>
      <g>
        <path d="M459.01,487.02c4.83,7.89,7.45,17.26,13.23,24.65-5.31,2.38-10.64,4.78-15.93,7.22-1.12-.14-3.32-5.43-3.91-6.61-3.12-6.24-4.84-13.45-9.02-19.24,2-.98.96-1.07-.6-1.8.12-.15.44-2.8,1.5-3.61.64-.5,12.57-4.42,13.23-4.21-.34,2.1.64,2.2,1.5,3.61Z" fill="#8d2b1d"/>
        <path d="M442.77,491.23c1.56.74,2.6.83.6,1.8-2.42,2.08-7,12.72-7.22,16.24-3.58,5.83-14.55,4.52-20.74,7.22l-.6-1.2c1.28-3.2,2.71-6.4,3.91-9.62,2.42-6.5,5.09-12.87,7.82-19.24,6.39-1.14,11.51,1.75,14.13,7.22.48-.91,1.6-1.78,2.1-2.41Z" fill="#8d2b1d"/>
        <path d="M478.25,428.7c6.51-.39,10.74-.73,15.93,1.2.49.18,3.8.18,4.21.6.6.62-1.01,1.34-.9,1.5,1.37,2.12,3.51.47,6.31,2.1,1.69.98,4.66,5.61,5.11,7.52l-.6,8.72c-.14-1.09-1.28-.24-1.8-.9-.45-.57,1.02-1.13.3-1.5-1.8-.93-4.77.01-6.31-1.2,2.4-5.96-.62-2.62-1.5-3.61-.19-.22-2.13-4.56-2.71-5.11s-9.33-7.32-9.92-7.52c-1.31-.45-6.24.56-7.52.6-9.27.26-17.13,1.99-26.16,3.61-.64.31-1.13,1.42-1.5,1.8l-1.8-1.2c3.16-3.62,4.82-1.98,8.72-3.01,6.7-1.77,12.84-3.17,20.14-3.61Z" fill="#fce893"/>
        <path d="M463.22,486.42c2.73,6.96,8.5,14.81,11.42,21.95.47,1.14.87,1.56,0,2.71-.48.22-1.92.38-2.41.6-5.78-7.4-8.4-16.77-13.23-24.65l4.21-.6Z" fill="#ee7c5a"/>
        <path d="M453.6,465.38c1.98-.14,4.62.64,9.02-.6.26,5.45,6.12,10.35,4.81,15.63-1.64.65-3.96.81-5.41,1.8-.54.57.84,3.28,1.2,4.21l-4.21.6c-.86-1.41-1.85-1.5-1.5-3.61-.66-.22-12.58,3.71-13.23,4.21-1.06.81-1.38,3.46-1.5,3.61-.5.63-1.62,1.49-2.1,2.41-2.62-5.47-7.74-8.36-14.13-7.22,3.3-7.71,6.56-14.2,10.22-21.65-.43,1.63,4.05,1.81,4.51,1.8,3.91-.01,8.38-.93,12.33-1.2Z" fill="#d75b28"/>
        <path d="M478.85,431.1c-.04,4.67,3.04,3.68,6.01,6.91.47.52,2.88,5.37,4.21,6.61.33.31,3.03.45,4.51,1.5,1.26.9.69,2.24,3.91,4.21-.15,2.25-12.8,13.2-13.53,12.63s-.03-2.42-.3-2.71c-1.31-1.38-2.64-.63-3.01-1.2-.99-1.55,1.95-4.36,0-4.51,6.46-7.39,2.54-7.89-5.71-7.22-14.04,1.14-14.71,7.71-21.35,18.04-3.95.27-8.42,1.19-12.33,1.2-.46,0-4.94-.18-4.51-1.8.41-.83.79-2.79,1.2-3.61,2.35-4.63,10.58-21.99,13.23-24.65.38-.38.86-1.5,1.5-1.8,9.03-1.62,16.89-3.34,26.16-3.61Z" fill="url(#linear-gradient5)"/>
        <path d="M500.5,446.74c-.36.9-2.21,2.26-2.41,3.61-.14-.09-.46.09-.6,0-3.22-1.97-2.65-3.31-3.91-4.21-1.48-1.06-4.18-1.2-4.51-1.5-1.32-1.24-3.74-6.1-4.21-6.61-2.97-3.24-6.05-2.24-6.01-6.91,1.28-.04,6.21-1.05,7.52-.6.59.2,9.37,6.99,9.92,7.52.58.55,2.51,4.9,2.71,5.11.89.99,3.9-2.36,1.5,3.61Z" fill="#fec867"/>
        <path d="M508.31,450.35c.19,1.44-1.27,3.07-1.8,4.21-1.97.22-5.37-4.03-5.71-4.21-.48-.25-2.31.25-2.71,0,.2-1.34,2.04-2.71,2.41-3.61,1.55,1.21,4.52.27,6.31,1.2.72.37-.75.93-.3,1.5.53.67,1.66-.19,1.8.9Z" fill="#fec867"/>
        <path d="M506.51,454.55c-6.49,14.01-25.81,20.6-39.08,25.86,1.31-5.28-4.55-10.18-4.81-15.63,5.27-1.49,14.46-6.13,18.04-10.22,1.95.15-.99,2.96,0,4.51.36.57,1.7-.18,3.01,1.2.27.28-.41,2.15.3,2.71s13.38-10.37,13.53-12.63c.15.09.46-.09.6,0,.4.25,2.23-.25,2.71,0,.34.18,3.75,4.42,5.71,4.21Z" fill="#ee7e31"/>
      </g>
    </g>
    <g>
      <g>
        <path d="M873.9,452.75c-5.77,14.3-30.09,24.7-44.2,28.26-.98,1.04.29,1.14.3,1.2.14,1.45,1.15,2.23,1.2,3.61-1.44-1.25-3.6-1.79-5.41-.6-.36-.46-.2-2.28-2.1-2.41-3.49,2.24-15.44,2.94-13.53,9.02-3.34,2.69-6.09,17.4-8.12,19.24-2.21,2.02-15.8,2.9-19.24,4.81-1.64-.06-.5-3.41-.3-4.21,1.51-5.99,6.78-13.33,7.82-19.84,5.39-10.81,9.92-22.13,15.03-33.07.74-1.59,1.64-3.17,2.41-4.81.02-.04.23.2.6-.6l17.44,1.2c-.54.77-5.86,10.93-5.11,11.42,7.82-1.38,19.69-5.35,25.56-10.82,2.27-.3,1.04,3.47,1.5,3.61.88.25,4.76-4.04,4.81,2.41,3.44-.5,11.79-12.33,12.63-12.63,2.07-.74,7.42,2.38,8.72,4.21Z" fill="url(#linear-gradient6)"/>
        <path d="M766.87,468.38c-.17.37,0,1.09-.6,2.41-.5-.39-2.33,2.54-2.41,2.71-1.67,3.44-4.36,12.32-6.01,14.73-3.26,4.75-9.45,1.25-14.13,3.61-2.43,1.23-7.18,13.95-9.32,16.84-.59.79-1.15,1.92-1.8,2.41-13.3-.52-.41-15.9-.6-17.14-.17-1.08-5.01-5.87-7.22-5.11,3.61-6.07,6.97-12.09,10.82-18.04,6.58.77,12.99-.52,19.24-1.2.59-.06,1.22.08,1.8,0,3.39-.44,6.86-.54,10.22-1.2Z" fill="#b43774"/>
        <path d="M825.8,485.22c5.44,6.93,8.08,18.72,13.83,25.86-4.82,3.04-10.86,4.59-15.93,7.22l-13.53-26.46c-1.91-6.08,10.04-6.78,13.53-9.02,1.9.13,1.74,1.95,2.1,2.41Z" fill="#5d2872"/>
        <path d="M732.6,511.08c-2.36,1.74-8.98,2.27-12.03,3.01-1.55-5.1-4.62-.83-7.82-4.81,2.65-5.05,5.58-10.09,8.42-15.03,1.1-1.91,2.55-3.64,3.61-5.41,2.21-.76,7.05,4.03,7.22,5.11.19,1.24-12.7,16.61.6,17.14Z" fill="#d76d62"/>
        <path d="M831.21,485.82c.98.85,3.89,6.72,4.81,8.42s6.6,13.35,6.61,14.13c.04,2.72-1.79,1.94-3.01,2.71-5.75-7.14-8.39-18.93-13.83-25.86,1.82-1.19,3.97-.65,5.41.6Z" fill="#9454a1"/>
        <path d="M720.57,514.08c-3.67.88-7.22,2.8-11.12,3.01l-.6-1.2c1.4-2.12,2.73-4.37,3.91-6.61,3.2,3.98,6.26-.28,7.82,4.81Z" fill="#fec867"/>
        <path d="M834.22,428.7c.25.65,3.41.89.3,1.8s-8.45,1.8-11.73,2.41c2.87-2.38,7.64-3.33,11.42-4.21Z" fill="#fbd8e1"/>
        <path d="M828.2,450.95c-.15.15-1.86,2.84-2.41,3.61l-17.44-1.2c1.26-2.68,3.03-5.09,4.21-7.82,2.27-1.19,5.96,2.32,6.31,2.41,3.58.87,6.72-1.45,9.32,3.01Z" fill="#af3d96"/>
        <g>
          <path d="M872.7,431.1c4.88,6.46,4.09,14.49,1.2,21.65-1.3-1.83-6.64-4.95-8.72-4.21-.84.3-9.19,12.13-12.63,12.63-.05-6.44-3.93-2.15-4.81-2.41-.46-.13.76-3.91-1.5-3.61,14.74-13.74-12.57-9.78-18.04-4.21-2.6-4.46-5.74-2.14-9.32-3.01-.35-.08-4.04-3.6-6.31-2.41.46-1.07.41-1.91.6-2.41,3.91-3.29,2.84-8.66,8.42-9.62.44-.07.67-.06.6-.6.19-.04.41.04.6,0,3.27-.6,8.73-1.53,11.73-2.41s-.05-1.15-.3-1.8c1.16-.27,1.58-.47,3.01-.6.69-.06,1.75.37,1.8-.6.8-.02,1.61.02,2.41,0,.69-.02,1.76.33,1.8-.6,9.82-.24,20.91-1.65,29.46,4.21Z" fill="#ce549f"/>
          <path d="M843.24,426.9c-.05.93-1.11.58-1.8.6.05-.93,1.11-.58,1.8-.6Z" fill="#fbd8e1"/>
          <path d="M839.03,427.5c-.06.97-1.11.54-1.8.6.05-.93,1.11-.58,1.8-.6Z" fill="#fbd8e1"/>
          <path d="M846.54,428.7c3.22-2.25,7.93,4.08,9.92,6.31-3.45,4.29-13.98-3.48-9.92-6.31Z" fill="#e788b8"/>
        </g>
        <path d="M796.33,446.14c-5.09,11.69-10.24,23.36-15.03,35.18-1.76,4.35-8.08,25.16-9.62,27.06-1.35,1.67-22.15,6.36-22.85,5.41,2.87-8.62,6.16-17.17,9.62-25.56,2.38-5.77,5.19-11.75,7.82-17.44.61-1.32.43-2.03.6-2.41.06-.14,1.28-1.3,1.8-2.41,1.68-3.56,5.18-14.03,7.22-16.24,3.49-3.79,7.4-2.12,11.12-4.81l9.32,1.2Z" fill="url(#linear-gradient7)"/>
        <path d="M796.33,446.14l-9.32-1.2c-3.73,2.69-7.63,1.02-11.12,4.81-2.57-1.15-5.84.26-7.82,1.8-6.12-1.43-12.7,1.07-18.04-1.8,2.76-3.81,8.86-14.48,12.33-16.24,14.61-3.88,28.68-9.7,43.89-10.82,1.06.73-8.78,20.83-9.92,23.45Z" fill="#f1678a"/>
        <path d="M768.07,451.55c-4.12,3.21-8.87,14.07-13.23,18.04-6.25.68-12.66,1.97-19.24,1.2,4.59-7.09,9.48-14.21,14.43-21.05,5.34,2.87,11.92.38,18.04,1.8Z" fill="#dc426d"/>
        <path d="M766.27,470.79c-2.63,5.69-5.44,11.67-7.82,17.44h-.6c1.66-2.41,4.34-11.29,6.01-14.73.08-.16,1.91-3.09,2.41-2.71Z" fill="#d66caa"/>
      </g>
      <g>
        <path d="M896.15,468.99c1.3.84-.2,2.41,3.61.6,3.35,2.64,1.54,7.3,6.61,6.01-.84-.04-1.57,1.65-1.8,1.8-.72.47-3.35,1.95-4.21,2.41-6.79,3.56-10.05,3.83-14.43,11.42-2.03,3.51-8.36,20.55-9.92,21.65-.88.62-20,5.09-21.05,4.81-1.05-1.13.47-4.35.9-5.71,2.01-6.34,6.24-15.01,9.02-21.35.42-.95,1.41-2.13,1.8-3.01,1.73,2.77,6.29,1.31,9.32,2.41l7.22,3.61,12.03-25.86c.49.17.84,1.16.9,1.2Z" fill="#5d2872"/>
        <path d="M905.77,452.15c-.37.66-.83,1.14-1.2,1.8-2.8,4.99-4.88,10.46-8.42,15.03-.06-.04-.42-1.03-.9-1.2l-12.03,25.86-7.22-3.61c-3.03-1.09-7.59.37-9.32-2.41,2.02-4.59,3.88-9.29,6.01-13.83,1.31-2.8,2.89-5.57,4.21-8.42,1.08,1.35,1.07,1.5,2.71.6,2.32-1.27,9.03-10.46,11.73-11.42,4.59-1.64,7.26,3.64,10.82-1.2l3.61-1.2Z" fill="#742a85"/>
        <path d="M900.36,479.81c.69,3.11,2.96,5.63,4.21,8.42,2.43,5.42,5.82,12.91,7.82,18.34.5,1.35.46,1.5,0,2.71-2,.94-16.97,7.17-17.74,6.61l-8.72-24.65c4.39-7.59,7.64-7.86,14.43-11.42Z" fill="#4b1e59"/>
        <path d="M920.8,424.49c.66,2.63-6.39,11.84-7.82,14.43.55-2.01-2.26-.74-3.01,0-6.92-4.4-13.42,11.26-18.64,15.03l-6.01-7.22c2.26-4.18,4.8-11.73,7.22-15.03,3.03-1.2,19.5-5.37,21.05-3.31.81,1.08-1.77,4.08.3,4.51,2.03-2.81,3.27-7.3,6.91-8.42Z" fill="#cf80b5"/>
        <path d="M932.83,461.17c-7.34,3.02-19.4,12.64-26.46,14.43-5.08,1.29-3.26-3.37-6.61-6.01,5.49-2.61,13.81-9.12,19.24-12.63,1.2-.77,3.07-1.22,4.81-2.41,5.36,1.77,3.9,7.89,9.02,6.61Z" fill="#953694"/>
        <path d="M919,456.96c-5.44,3.51-13.75,10.02-19.24,12.63-3.81,1.81-2.3.23-3.61-.6,3.54-4.57,5.62-10.04,8.42-15.03.27,1.28.55.03.6,0,.99-.65,1.12-.96,2.41-1.2,3.48-.65,6.61.04,9.92-2.41,2.1,2.27,2.27,3.73,1.5,6.61Z" fill="#9454a1"/>
        <path d="M946.66,438.92c.02.99.02,2.01,0,3.01-3.09,1.44-2.34-2.89-5.71-1.8-.44.14-4.76,5.34-6.31,6.61-4.17,1.04-2.03-3.79-5.11-4.21-1.48-.2-7.46,4.35-9.02,5.41l-2.1-2.41c7.96-4.87,14.48-8.76,23.45-12.03.3-.11.69.03.6-.6.16-.04.44-.02.6,0,.63.09.7.72,1.5.6.43-.06,1.3-2.02,2.1-1.5.03,2.3-.05,4.62,0,6.91Z" fill="#cf80b5"/>
        <path d="M934.63,446.74c-.54.44-1.18,1.32-1.8,1.8-2.93,2.26-5.97,3.95-9.02,6.01-1.74,1.18-3.61,1.63-4.81,2.41.77-2.88.6-4.34-1.5-6.61-3.31,2.45-6.44,1.75-9.92,2.41,2.9-3.4,7.14-4.96,10.82-7.22l2.1,2.41c1.56-1.06,7.54-5.61,9.02-5.41,3.08.41.95,5.25,5.11,4.21Z" fill="#ac73b1"/>
        <path d="M946.66,441.93c-.08,3.39-1.2,7.1,0,10.22-.25.49,1.16.31-.3,1.8-1.32,1.35-5.13,2.61-6.91,3.61-5.45-1.25-1.25-8-6.61-9.02.62-.48,1.26-1.36,1.8-1.8,1.56-1.27,5.88-6.47,6.31-6.61,3.37-1.09,2.62,3.25,5.71,1.8Z" fill="#cf80b5"/>
        <path d="M908.78,487.02c1.11,2.54,8.51,18.48,8.42,19.54-.22,2.6-3.52,2.1-4.81,2.71.46-1.2.5-1.35,0-2.71-2-5.43-5.39-12.92-7.82-18.34l4.21-1.2Z" fill="#9454a1"/>
        <path d="M939.44,457.56c-2.18,1.22-4.1,2.98-6.61,3.61-5.12,1.28-3.66-4.84-9.02-6.61,3.04-2.06,6.09-3.75,9.02-6.01,5.37,1.02,1.16,7.77,6.61,9.02Z" fill="#ae56a1"/>
        <path d="M891.34,453.95v.6c-2.7.96-9.41,10.15-11.73,11.42-1.63.9-1.62.75-2.71-.6,1.71-3.71,3.78-7.44,4.81-11.42.73-1.39,1.66-2.79,2.41-4.21.37-.7.67-2.02,1.2-3.01l6.01,7.22Z" fill="#9454a1"/>
        <path d="M920.8,424.49c-3.65,1.11-4.88,5.61-6.91,8.42-2.07-.43.51-3.43-.3-4.51-1.55-2.07-18.01,2.11-21.05,3.31,4.5-6.16,20.34-7.21,27.96-8.42.54.28.2.81.3,1.2Z" fill="#8a3393"/>
        <path d="M904.57,477.4c1.43,3.19,2.81,6.42,4.21,9.62l-4.21,1.2c-1.25-2.79-3.52-5.3-4.21-8.42.86-.45,3.49-1.93,4.21-2.41Z" fill="#cf80b5"/>
        <path d="M912.99,438.92c-2.42,4.4-4.74,8.85-7.22,13.23l-3.61,1.2c2.27-3.09,5.59-12.22,7.82-14.43.75-.74,3.56-2.01,3.01,0Z" fill="#af3d96"/>
        <path d="M948.46,438.32l-1.8.6c-.05-2.3.03-4.61,0-6.91-.81-.51-1.67,1.44-2.1,1.5-.8.12-.87-.51-1.5-.6l6.61-3.31c-.52,2.58-1.12,6.16-1.2,8.72Z" fill="#fdeff5"/>
        <path d="M946.66,452.15c-1.2-3.12-.08-6.83,0-10.22.02-.99.02-2.01,0-3.01l1.8-.6c-.2,6.04.95,8.32-1.8,13.83Z" fill="#fff"/>
        <path d="M941.85,433.51c-.07-.58.2-.51.6-.6.08.63-.3.49-.6.6Z" fill="#fdeff5"/>
        <path d="M821.59,433.51c-.07-.57.19-.51.6-.6.07.54-.17.53-.6.6Z" fill="#fff"/>
        <path d="M904.57,453.95h.6c-.05.03-.33,1.28-.6,0Z" fill="#fff"/>
        <path d="M876.91,465.38c-1.32,2.85-2.9,5.62-4.21,8.42v-1.8c3.11-5.93,5.89-12.08,9.02-18.04-1.03,3.98-3.1,7.72-4.81,11.42Z" fill="#edc3d3"/>
        <path d="M909.98,438.92c-2.23,2.21-5.54,11.34-7.82,14.43-3.56,4.84-6.23-.43-10.82,1.2v-.6c5.22-3.77,11.72-19.44,18.64-15.03Z" fill="#ce549f"/>
      </g>
      <g>
        <path d="M738.61,438.32c.85,23.19-20.85,37.16-39.69,43.29-3.57-9.37-8.85-2.8-12.03,3.01-2.31.88-2.96.48-4.81,2.71-4.3,5.19-6.77,20-9.62,24.05-1.1,1.57-2.78,1.1-3.61,1.5l10.82-26.76-12.03-10.52c5.05-11.28,10.62-23,16.84-33.67,6.4,2.09,11.49.25,15.03,6.61-2.32,2.7-4.97,11.37-7.22,14.73,7.89,3.14,23.15-7.46,21.65-15.93l6.01-2.1c.06,4.63-1.22,9.02-3.01,13.23,2.82-1.83,4.31-.09,5.11-.3.7-.18,6.6-10.74,7.52-12.33,2.19-3.78,4.18-14.42,9.02-7.52Z" fill="#dc426d"/>
        <path d="M738.61,438.32c-4.84-6.91-6.83,3.74-9.02,7.52-.92,1.58-6.82,12.14-7.52,12.33-.8.21-2.29-1.53-5.11.3,1.79-4.21,3.06-8.6,3.01-13.23l-6.01,2.1c-.84-4.73-12.32-1.24-14.43,1.2-3.54-6.37-8.64-4.53-15.03-6.61,1.61-2.77,5.13-10.6,7.52-12.03,2.33-1.4,19.06-5.16,22.25-5.41,11.59-.9,23.82-.74,24.35,13.83Z" fill="#f27684"/>
        <path d="M668.86,512.88c-2.26,1.11-16.2,5.63-17.44,3.91,4.77-14.01,10.19-27.7,16.24-41.19l12.03,10.52-10.82,26.76Z" fill="#b63157"/>
        <path d="M698.92,481.61c-3.89,1.27-8.62,1.71-12.03,3.01,3.17-5.81,8.46-12.37,12.03-3.01Z" fill="#d76d62"/>
      </g>
    </g>
  </g>
</svg>